<svg xmlns="http://www.w3.org/2000/svg" xmlns:xlink="http://www.w3.org/1999/xlink" viewBox="0 0 31.65 254.73"><defs><style>.cls-1{fill:#442928;}.cls-1,.cls-2,.cls-4{stroke:#333;stroke-miterlimit:10;}.cls-1,.cls-2{stroke-width:0.79px;}.cls-2{fill:url(#linear-gradient);}.cls-3{fill:url(#linear-gradient-2);}.cls-4{stroke-width:0.2px;fill:url(#radial-gradient);}</style><linearGradient id="linear-gradient" x1="16" y1="102.78" x2="14.84" y2="255.38" gradientUnits="userSpaceOnUse"><stop offset="0" stop-color="#2f2f2f"/><stop offset="0.49" stop-color="#6e6e6e"/><stop offset="1" stop-color="#232323"/></linearGradient><linearGradient id="linear-gradient-2" x1="25.07" y1="102.18" x2="14.75" y2="268.61" gradientUnits="userSpaceOnUse"><stop offset="0" stop-color="#4c4c4c"/><stop offset="0.49" stop-color="#ebebeb"/><stop offset="1" stop-color="#7b7b7b"/></linearGradient><radialGradient id="radial-gradient" cx="15.79" cy="11.93" r="3.95" gradientUnits="userSpaceOnUse"><stop offset="0" stop-color="#6e6e6e"/><stop offset="1" stop-color="#393939"/></radialGradient></defs><title>page2knife</title><g id="Layer_2" data-name="Layer 2"><g id="pics"><path class="cls-1" d="M14.65,105.89s5.7-86.07,9.77-88.43,6.52,0,6.52-3.16S24.42-2.29,13,.87s-7.33,11.84-10.59,105Z"/><path class="cls-2" d="M7.32,254.33s9-12.63,13.84-37.9,11.4-100.28,9.77-110.54H.8S-.83,213.27,2.43,233.8,7.32,254.33,7.32,254.33Z"/><path class="cls-3" d="M20.92,105.49s.39,105-13,149.23c8.69-15.79,13-27.05,15.59-47.08s10.07-87.94,7.7-102.15Z"/><circle class="cls-4" cx="15.79" cy="11.93" r="3.95"/></g></g></svg>