<svg xmlns="http://www.w3.org/2000/svg" xmlns:xlink="http://www.w3.org/1999/xlink" viewBox="0 0 288.92 315.02"><defs><style>.cls-1,.cls-17,.cls-2,.cls-3,.cls-4{stroke:#f46f3b;}.cls-1,.cls-17,.cls-2,.cls-3,.cls-4,.cls-5{stroke-miterlimit:10;}.cls-1{fill:url(#linear-gradient);}.cls-2{fill:url(#linear-gradient-2);}.cls-3{fill:url(#linear-gradient-3);}.cls-4{fill:url(#linear-gradient-4);}.cls-5{fill:#928c3c;stroke:#6d6731;stroke-width:0.25px;}.cls-6{fill:url(#linear-gradient-5);}.cls-7{fill:url(#linear-gradient-6);}.cls-8{fill:url(#linear-gradient-7);}.cls-9{fill:url(#linear-gradient-8);}.cls-10{fill:url(#linear-gradient-9);}.cls-11{fill:url(#linear-gradient-10);}.cls-12{fill:url(#linear-gradient-11);}.cls-13{fill:url(#linear-gradient-12);}.cls-14{fill:url(#linear-gradient-13);}.cls-15{fill:url(#linear-gradient-14);}.cls-16{fill:url(#linear-gradient-15);}.cls-17{fill:url(#linear-gradient-16);}.cls-18{fill:url(#linear-gradient-17);}.cls-19{fill:url(#linear-gradient-18);}</style><linearGradient id="linear-gradient" x1="200.11" y1="90.37" x2="260.22" y2="293.84" gradientUnits="userSpaceOnUse"><stop offset="0" stop-color="#dc7d31"/><stop offset="0.5" stop-color="#f85823"/><stop offset="1" stop-color="#dc7d31"/></linearGradient><linearGradient id="linear-gradient-2" x1="40.64" y1="246.18" x2="86.11" y2="135.33" xlink:href="#linear-gradient"/><linearGradient id="linear-gradient-3" x1="110.1" y1="112.2" x2="60.65" y2="308.59" xlink:href="#linear-gradient"/><linearGradient id="linear-gradient-4" x1="216.95" y1="306.97" x2="184.06" y2="116.62" xlink:href="#linear-gradient"/><linearGradient id="linear-gradient-5" x1="9.7" y1="263.07" x2="90.78" y2="104.57" gradientUnits="userSpaceOnUse"><stop offset="0" stop-color="#dc8231"/><stop offset="0.5" stop-color="#f86023"/><stop offset="1" stop-color="#dc8231"/></linearGradient><linearGradient id="linear-gradient-6" x1="53.64" y1="292.94" x2="108.11" y2="126.04" xlink:href="#linear-gradient-5"/><linearGradient id="linear-gradient-7" x1="195.76" y1="116.62" x2="224.28" y2="305.44" xlink:href="#linear-gradient-5"/><linearGradient id="linear-gradient-8" x1="202.74" y1="98.67" x2="278.27" y2="285.18" xlink:href="#linear-gradient-5"/><linearGradient id="linear-gradient-9" x1="130.13" y1="74.65" x2="144.74" y2="74.98" gradientUnits="userSpaceOnUse"><stop offset="0" stop-color="#979440"/><stop offset="0.5" stop-color="#a3a554"/><stop offset="1" stop-color="#979440"/></linearGradient><linearGradient id="linear-gradient-10" x1="116.8" y1="76.43" x2="133.6" y2="78.41" xlink:href="#linear-gradient-9"/><linearGradient id="linear-gradient-11" x1="143.7" y1="87.41" x2="153.71" y2="83.61" xlink:href="#linear-gradient-9"/><linearGradient id="linear-gradient-12" x1="160.65" y1="92.52" x2="170.52" y2="82.66" xlink:href="#linear-gradient-9"/><linearGradient id="linear-gradient-13" x1="111.06" y1="79.06" x2="121.63" y2="87.47" xlink:href="#linear-gradient-9"/><linearGradient id="linear-gradient-14" x1="184.2" y1="47.11" x2="191.91" y2="49.11" xlink:href="#linear-gradient-9"/><linearGradient id="linear-gradient-15" x1="171.96" y1="-4.73" x2="168.67" y2="8.29" xlink:href="#linear-gradient-9"/><linearGradient id="linear-gradient-16" x1="61.47" y1="214.58" x2="234.95" y2="214.83" xlink:href="#linear-gradient"/><linearGradient id="linear-gradient-17" x1="202.27" y1="274.85" x2="21.05" y2="262.73" xlink:href="#linear-gradient-5"/><linearGradient id="linear-gradient-18" x1="184.79" y1="145.83" x2="60.43" y2="147.17" xlink:href="#linear-gradient-5"/></defs><title>page2pumpkin</title><g id="Layer_2" data-name="Layer 2"><g id="pics"><g id="Layer_1-2" data-name="Layer 1"><path class="cls-1" d="M174.79,97.89s4-15,30-11,38,22,41,38,3,26,4,43,30,41,34,52,10,25-5,55-53,29-61,27-8-128-8-128Z"/><path class="cls-2" d="M119.79,103.89s7-18-30-13-42,63-44,68,1,14-13,29-35,42-32,59,7,37,48,42,31-86,31-86Z"/><path class="cls-3" d="M62.79,193.89c-5,15.77-25,39-28,61s3,41,24,47,44-3,44-3l28-175s-6-12-19-12-31,4-38,27S69.79,171.89,62.79,193.89Z"/><path class="cls-4" d="M158.79,129.89s9-19,23-22,25,1,35,17,9,50,10,56,8,24,15,37,14,28,6,58-34,31-39,32-28,0-38-16S158.79,129.89,158.79,129.89Z"/><path class="cls-5" d="M159.29,42.39s0,2,3,3,8-2,7-4-6-2-9,0-7,8-7,15c0,25,12.2,31.94,29.1,33-1.1,7-2.09,9.81,2.9,17.92-9,1.11-11.6,3-19.3,11.55-6.7-2.44-16.79-8.13-38.25.71,0,0-5.3-8.16-18.38-7.66-.08-6.5-9.08-13.5-11.08-14.5,5-2,11-5,11-11,5-4,6-1,13-26s29-36,45-37,21,6,21,6,8,7,5,20-20,18-25,18-12-1-14-2C152.29,55.39,153.29,47.39,159.29,42.39Z"/><path class="cls-5" d="M135.8,37.56s-3.51-24.17,27.49-35.17,27,22,10,16c-4-10-14-3-17.18,7.15C156.11,25.54,142.31,29.74,135.8,37.56Z"/><path class="cls-6" d="M24.29,275.39c1.28,10.37-17-13-17-28a56.33,56.33,0,0,1,12-34c8-10,21-21,26-34s9-34,13-52,25-27,30-29-17,13-20,23-9,20-11,44-23,45-25,47-15,9-13,31S23.9,272.25,24.29,275.39Z"/><path class="cls-7" d="M96.29,136.39c-6,6-14,12-16,30s-6,37-12,46-18,36-8,57,18,13,19,20-10,13-21,6-23-25-14-48,19-34,22-46,11-55,14-67,13-14,18-13S100.29,132.39,96.29,136.39Z"/><path class="cls-8" d="M188.29,114.39c9.06,0,28,7,30,39s6,49,13,67,16,27,9,56-31,22-35,22-18-9-3-18,30-10,26-33-6-25-9-47-6-53-16-61-20-9-21-18S185.29,114.39,188.29,114.39Z"/><path class="cls-9" d="M202.29,98.39c11,3,25,1,32,27s3,42,11,59,20,27,21,47-8,46-14,56,11,0,20-15,13-32,8-47-29-34-33-50-4-41-5-49-10-35-37-34S202.29,98.39,202.29,98.39Z"/><path class="cls-10" d="M125.12,116.77c7.17-7.38,10.17-9.38,8.17-26.38s-4-20-3-28,11.07-25.88,15.5-31.5-13.5,19.5-10.5,35.5,9,24,7,33a115.24,115.24,0,0,1-4.79,16.79c-3.21,1.21-7.32,1.53-9.26,3.37A22.92,22.92,0,0,0,125.12,116.77Z"/><path class="cls-11" d="M108.28,107.78s12-3.38,13-9.39c.93-5.83-.87-36.06,4.5-45.5a61.23,61.23,0,0,1,8-11s-7.5,14.5-7.5,22.5,1,23,2,29-.58,15.68-9.29,19.84a86.72,86.72,0,0,0-9.63-1.46A18.5,18.5,0,0,0,108.28,107.78Z"/><path class="cls-12" d="M169.65,114.88s-18.36-15.49-20.36-31.49,1.35-28.37,3.5-32.5,4-8,4-8-14.5,16.5-10.5,45.5,20,30,20,30Z"/><path class="cls-13" d="M152.79,60.89a45.66,45.66,0,0,0,13.5,35.5,165.9,165.9,0,0,0,13.31,12l5.69-1s-6-8-3-18C175.29,88.39,154.92,89.23,152.79,60.89Z"/><path class="cls-14" d="M100.91,99.21s12.38-.82,15.38-7.82,6.5-31.5,6.5-31.5-5.5,19.5-7.5,22.5a18.83,18.83,0,0,1-6.37,6.47c-1.63,2.53-1.63,4.53-10.63,8.53Z"/><path class="cls-15" d="M185.29,44.39c0,9.06-7,14-12,16s34-6,10-30C185.29,40.39,185.29,37.39,185.29,44.39Z"/><path class="cls-16" d="M153.29,11.39c-5.22,2.61,13-11,23-9s7,9,7,9-2-5-9-5A43,43,0,0,0,153.29,11.39Z"/><path class="cls-17" d="M149.79,114.89c6-.2,25,5,29,14s17,69,15,113-6,59-14,66-75,12-85-4-3-68,0-86,11-64,18-77S119.79,115.89,149.79,114.89Z"/><path class="cls-18" d="M103.29,244.39c3,8,3,37,29,42s34-8,42-27,11-28,10-15,9,62-31,62-53-8-55-30S103.29,244.39,103.29,244.39Z"/><path class="cls-19" d="M115.29,168.39c-1.77-8.83,4-48,31-47s33,25,31,44-10-31-31-29S118.29,183.39,115.29,168.39Z"/></g></g></g></svg>