<svg xmlns="http://www.w3.org/2000/svg" xmlns:xlink="http://www.w3.org/1999/xlink" viewBox="0 0 198.91 239.42"><defs><style>.cls-1,.cls-2,.cls-3,.cls-4,.cls-9{stroke:#f46f3b;stroke-width:0.77px;}.cls-1,.cls-12,.cls-2,.cls-3,.cls-4,.cls-9{stroke-miterlimit:10;}.cls-1{fill:url(#linear-gradient);}.cls-2{fill:url(#linear-gradient-2);}.cls-3{fill:url(#linear-gradient-3);}.cls-4{fill:url(#linear-gradient-4);}.cls-5{fill:url(#linear-gradient-5);}.cls-6{fill:url(#linear-gradient-6);}.cls-7{fill:url(#linear-gradient-7);}.cls-8{fill:url(#linear-gradient-8);}.cls-9{fill:url(#linear-gradient-9);}.cls-10{fill:url(#linear-gradient-10);}.cls-11{fill:url(#linear-gradient-11);}.cls-12{fill:#928c3c;stroke:#6d6731;stroke-width:0.17px;}.cls-13{fill:url(#linear-gradient-12);}.cls-14{fill:url(#linear-gradient-13);}.cls-15{fill:url(#linear-gradient-14);}.cls-16{fill:url(#linear-gradient-15);}.cls-17{fill:url(#linear-gradient-16);}.cls-18{fill:url(#linear-gradient-17);}.cls-19{fill:url(#linear-gradient-18);}</style><linearGradient id="linear-gradient" x1="138.61" y1="61.65" x2="185.05" y2="218.8" gradientUnits="userSpaceOnUse"><stop offset="0" stop-color="#dc6931"/><stop offset="0.09" stop-color="#e6611f"/><stop offset="0.21" stop-color="#f05a0e"/><stop offset="0.34" stop-color="#f65503"/><stop offset="0.5" stop-color="#f85400"/><stop offset="0.68" stop-color="#f65503"/><stop offset="0.8" stop-color="#f1590c"/><stop offset="0.9" stop-color="#e8601b"/><stop offset="1" stop-color="#dc6931"/></linearGradient><linearGradient id="linear-gradient-2" x1="18.78" y1="181.12" x2="53.58" y2="96.29" xlink:href="#linear-gradient"/><linearGradient id="linear-gradient-3" x1="76.56" y1="75.41" x2="36.63" y2="233.99" xlink:href="#linear-gradient"/><linearGradient id="linear-gradient-4" x1="151.1" y1="232.97" x2="124.41" y2="78.55" xlink:href="#linear-gradient"/><linearGradient id="linear-gradient-5" x1="-1.79" y1="185.52" x2="59" y2="66.68" gradientUnits="userSpaceOnUse"><stop offset="0" stop-color="#dc6431"/><stop offset="0.5" stop-color="#f84623"/><stop offset="1" stop-color="#dc6431"/></linearGradient><linearGradient id="linear-gradient-6" x1="30.18" y1="221.07" x2="74.2" y2="86.21" xlink:href="#linear-gradient-5"/><linearGradient id="linear-gradient-7" x1="135.36" y1="77.31" x2="158.57" y2="231" xlink:href="#linear-gradient-5"/><linearGradient id="linear-gradient-8" x1="143.55" y1="64.44" x2="199.81" y2="203.37" xlink:href="#linear-gradient-5"/><linearGradient id="linear-gradient-9" x1="97.47" y1="94.17" x2="95.86" y2="246.31" xlink:href="#linear-gradient"/><linearGradient id="linear-gradient-10" x1="94.76" y1="234.67" x2="99.69" y2="179.4" xlink:href="#linear-gradient-5"/><linearGradient id="linear-gradient-11" x1="146.95" y1="92.41" x2="112.86" y2="92.78" xlink:href="#linear-gradient-5"/><linearGradient id="linear-gradient-12" x1="-371.41" y1="299.07" x2="-358.01" y2="299.38" gradientTransform="matrix(-0.81, 0.08, 0.14, 1.42, -234.55, -346.35)" gradientUnits="userSpaceOnUse"><stop offset="0" stop-color="#979440"/><stop offset="0.5" stop-color="#a3a554"/><stop offset="1" stop-color="#979440"/></linearGradient><linearGradient id="linear-gradient-13" x1="-382.09" y1="300.01" x2="-366.64" y2="301.83" xlink:href="#linear-gradient-12"/><linearGradient id="linear-gradient-14" x1="-358.98" y1="306.25" x2="-352.79" y2="303.89" xlink:href="#linear-gradient-12"/><linearGradient id="linear-gradient-15" x1="-346.2" y1="308.46" x2="-338.75" y2="301.01" xlink:href="#linear-gradient-12"/><linearGradient id="linear-gradient-16" x1="-386.1" y1="301.57" x2="-379.73" y2="306.64" xlink:href="#linear-gradient-12"/><linearGradient id="linear-gradient-17" x1="-328.79" y1="284.99" x2="-322.16" y2="286.7" xlink:href="#linear-gradient-12"/><linearGradient id="linear-gradient-18" x1="-337.28" y1="257.71" x2="-339.43" y2="266.23" xlink:href="#linear-gradient-12"/></defs><title>page2pumpkin3</title><g id="Layer_2" data-name="Layer 2"><g id="pics"><g id="Layer_1-2" data-name="Layer 1"><path class="cls-1" d="M120.49,62.85s2.37-5.17,21.3-1.61c57,10.71,73.51,126,38.23,152.42-18.67,14-22.4,16.74-28.22,15.11S146,124.66,146,124.66Z"/><path class="cls-2" d="M80.44,67.72s4.48-6.57-22.94-2.46C-.41,73.94-21.68,199.65,28.75,218.19c26.4,9.7,22.57-69.94,22.57-69.94Z"/><path class="cls-3" d="M18.56,190.53c-2.18,17.89,2.18,33.35,17.47,38.23s32-2.44,32-2.44L88.45,84s-4.37-9.76-13.83-9.76S52.05,77.48,47,96.19,20.74,172.64,18.56,190.53Z"/><path class="cls-4" d="M108.84,88.87S115.39,73.42,125.58,71s18.2.81,25.48,13.83,28.39,98.41,22.57,122.81-24.75,25.21-28.39,26-20.39,0-27.67-13S108.84,88.87,108.84,88.87Z"/><path class="cls-5" d="M14.5,197.83C15.43,206.27,4.8,184,3.2,172c-4-29.94-.6-51.09,29.19-91.21C41,69.2,60.38,67.17,64,65.55S47.34,75.84,43,82.77C23.66,113.27,6,108.09,9.28,162.17,10.37,180.1,14.22,195.28,14.5,197.83Z"/><path class="cls-6" d="M63.34,94.16c-7,4.81-36.22,91-26.21,108.17,9.25,15.85,13.1,10.57,13.83,16.27s-7.28,10.57-15.29,4.88-16.75-20.33-10.19-39,24-82.14,26.21-91.9S61.15,81.14,64.79,82,66.84,91.75,63.34,94.16Z"/><path class="cls-7" d="M133.59,75c17.15,3.83,47.31,96.31,34.58,133-7.85,22.62-22.57,17.89-25.48,17.89s-13.1-7.32-2.18-14.64,20-8.54,22.21-28.87c2-18.85,0-16.27-4.37-37.41-3.63-17.6-9.83-41.89-17.11-48.39S126.68,89.28,125.95,82,130,74.23,133.59,75Z"/><path class="cls-8" d="M139.62,65c8,2.44,12,3,24.19,20.24,16.38,23.18,27.67,62.62,27.3,85.8-.26,16.28-9.76,27.89-14.13,36s5.61-2.75,12.16-15,7-16,7-33.93c0-12.86-6.26-59.95-21-72.53-6.16-5.25-19.32-24.25-35.48-23.52C120,63,139.62,65,139.62,65Z"/><path class="cls-9" d="M102.29,76.67c4.37-.16,18.2,4.07,21.11,11.39s12.38,56.12,10.92,91.9-4.37,48-10.19,53.68-54.6,9.76-61.88-3.25-2.18-55.3,0-69.94,8-52.05,13.1-62.62S80.44,77.48,102.29,76.67Z"/><path class="cls-10" d="M68.43,211.93c2.18,2.64,2.18,12.23,21.11,13.88s24.75-2.64,30.58-8.92,8-9.25,7.28-5,6.55,20.49-22.57,20.49-38.59-2.64-40-9.91S68.43,211.93,68.43,211.93Z"/><path class="cls-11" d="M81.4,103.59c-1.53-2.32-3-21.92,20.42-21.66s23,15.62,21.29,20.61-3-17.19-21.29-16.67S84,107.53,81.4,103.59Z"/><path class="cls-12" d="M86.6,29s.18,1.39-1.63,2.16S79.73,30,80.19,28.57s3.62-1.55,5.69-.25S91,33.68,91.63,38.53c2.21,17.36-4.9,22.5-15.49,23.68,1.32,4.84,2.19,6.75-.26,12.51,5.79.52,7.6,1.76,13.22,7.48,4-1.88,9.9-6.1,24.25-.56,0,0,2.63-5.81,10.94-5.82-.52-4.51,4.55-9.62,5.73-10.36-3.34-1.25-7.4-3.16-7.92-7.33-3.51-2.64-3.88-.53-10.51-17.68S90.07,16.28,79.86,16s-12.75,4.74-12.75,4.74-4.44,5.08-1.4,14S80,46.72,83.11,46.58s7.5-1,8.68-1.77C92.17,37.81,90.83,32.29,86.6,29Z"/><path class="cls-12" d="M101,25s.09-16.87-20.48-23.64-15.13,16-4.91,11.38c1.65-7,8.59-2.47,11.49,4.48C87.13,17.21,96.22,19.74,101,25Z"/><path class="cls-13" d="M114.76,79.64c-5.19-4.92-7.26-6.23-7.49-18.07s.77-14-.57-19.51S97.41,24.42,94.12,20.64,104.38,33.79,103.89,45s-3.57,16.9-1.52,23.08a92.81,92.81,0,0,0,4.51,11.51c2.14.75,4.76.86,6.15,2.08A13.29,13.29,0,0,1,114.76,79.64Z"/><path class="cls-14" d="M124.62,72.93s-7.92-2-9.06-6.15-2.63-25-6.86-31.44a47.91,47.91,0,0,0-6-7.41s6,9.85,6.73,15.4A188.75,188.75,0,0,1,110.7,63.5c-.1,4.19,1.75,10.86,7.62,13.51a48.22,48.22,0,0,1,6-1.28A13.22,13.22,0,0,1,124.62,72.93Z"/><path class="cls-15" d="M86.44,79.56S96.68,68.3,96.54,57.15,93.18,37.51,91.46,34.7s-3.23-5.44-3.23-5.44,10.62,11,10.65,31.27-10,21.36-10,21.36Z"/><path class="cls-16" d="M92.34,41.64s3.3,13.46-5.41,25a96.27,96.27,0,0,1-7.36,8.66l-3.68-.5a15.71,15.71,0,0,0,.31-12.57C80.54,61.34,93.49,61.36,92.34,41.64Z"/><path class="cls-17" d="M128.52,66.78s-7.9-.23-10.41-5-6.89-21.67-6.89-21.67,5.2,13.37,6.73,15.4a14.24,14.24,0,0,0,4.6,4.31c1.25,1.71,1.43,3.09,7.47,5.62Z"/><path class="cls-18" d="M70.34,31.09c.8,6.28,5.66,9.52,9,10.77s-22-3.22-9-20.53C70,28.32,69.72,26.24,70.34,31.09Z"/><path class="cls-19" d="M87.66,7.32C91.19,9,78.47,0,72.32,1.71s-3.63,6.44-3.63,6.44.82-3.52,5.25-3.72A26.66,26.66,0,0,1,87.66,7.32Z"/></g></g></g></svg>