<svg xmlns="http://www.w3.org/2000/svg" xmlns:xlink="http://www.w3.org/1999/xlink" viewBox="0 0 284.95 191.89"><defs><style>.cls-1,.cls-2,.cls-3,.cls-4,.cls-9{stroke:#f46f3b;stroke-width:0.8px;}.cls-1,.cls-11,.cls-2,.cls-3,.cls-4,.cls-9{stroke-miterlimit:10;}.cls-1{fill:url(#linear-gradient);}.cls-2{fill:url(#linear-gradient-2);}.cls-3{fill:url(#linear-gradient-3);}.cls-4{fill:url(#linear-gradient-4);}.cls-5{fill:url(#linear-gradient-5);}.cls-6{fill:url(#linear-gradient-6);}.cls-7{fill:url(#linear-gradient-7);}.cls-8{fill:url(#linear-gradient-8);}.cls-9{fill:url(#linear-gradient-9);}.cls-10{fill:url(#linear-gradient-10);}.cls-11{fill:#928c3c;stroke:#6d6731;stroke-width:0.2px;}.cls-12{fill:url(#linear-gradient-11);}.cls-13{fill:url(#linear-gradient-12);}.cls-14{fill:url(#linear-gradient-13);}.cls-15{fill:url(#linear-gradient-14);}</style><linearGradient id="linear-gradient" x1="212.34" y1="37.81" x2="253.48" y2="177.04" gradientUnits="userSpaceOnUse"><stop offset="0" stop-color="#dc7d31"/><stop offset="0.5" stop-color="#f85823"/><stop offset="1" stop-color="#dc7d31"/></linearGradient><linearGradient id="linear-gradient-2" x1="35.01" y1="145.6" x2="67.63" y2="66.09" xlink:href="#linear-gradient"/><linearGradient id="linear-gradient-3" x1="94.54" y1="54.77" x2="60.84" y2="188.61" xlink:href="#linear-gradient"/><linearGradient id="linear-gradient-4" x1="208.02" y1="187.18" x2="186.09" y2="60.28" xlink:href="#linear-gradient"/><linearGradient id="linear-gradient-5" x1="9.65" y1="156.38" x2="67.12" y2="44.03" gradientUnits="userSpaceOnUse"><stop offset="0" stop-color="#dc8231"/><stop offset="0.5" stop-color="#f86023"/><stop offset="1" stop-color="#dc8231"/></linearGradient><linearGradient id="linear-gradient-6" x1="54.1" y1="177.28" x2="91.05" y2="64.05" xlink:href="#linear-gradient-5"/><linearGradient id="linear-gradient-7" x1="199.97" y1="58.96" x2="219" y2="184.97" xlink:href="#linear-gradient-5"/><linearGradient id="linear-gradient-8" x1="214.87" y1="41.88" x2="267.28" y2="171.3" xlink:href="#linear-gradient-5"/><linearGradient id="linear-gradient-9" x1="138.87" y1="86.46" x2="137.47" y2="218.21" xlink:href="#linear-gradient"/><linearGradient id="linear-gradient-10" x1="132.86" y1="214.63" x2="145.27" y2="75.69" xlink:href="#linear-gradient-5"/><linearGradient id="linear-gradient-11" x1="57.28" y1="33.76" x2="72.14" y2="34.1" gradientTransform="matrix(-1, 0, 0, 1, 207.11, 0)" gradientUnits="userSpaceOnUse"><stop offset="0" stop-color="#979440"/><stop offset="0.5" stop-color="#a3a554"/><stop offset="1" stop-color="#979440"/></linearGradient><linearGradient id="linear-gradient-12" x1="41.62" y1="35.42" x2="61.27" y2="37.73" xlink:href="#linear-gradient-11"/><linearGradient id="linear-gradient-13" x1="71.92" y1="41.91" x2="79.52" y2="39.02" xlink:href="#linear-gradient-11"/><linearGradient id="linear-gradient-14" x1="84.39" y1="43.45" x2="93.36" y2="34.48" xlink:href="#linear-gradient-11"/></defs><title>page2pumpkin5</title><g id="Layer_2" data-name="Layer 2"><g id="pics"><g id="Layer_1-2" data-name="Layer 1"><path class="cls-1" d="M170.64,49.09s4-10.24,29.52-7.23C275.81,50.78,308.21,161.58,265.58,175c-29.86,9.38-44.77,9.53-52.64,8.22s-7.87-84.14-7.87-84.14Z"/><path class="cls-2" d="M116.53,53S123,39.72,87,44.49c-81.74,10.83-125.6,134-40.34,130.15,40.55-1.81,30.5-56.53,30.5-56.53Z"/><path class="cls-3" d="M32.9,152.3c-3,14.46,3,27,23.61,30.89s43.29-2,43.29-2l27.55-115s-5.9-7.89-18.69-7.89S78.16,60.93,71.27,76,35.85,137.83,32.9,152.3Z"/><path class="cls-4" d="M154.9,70.13s8.85-12.49,22.63-14.46,24.6.66,34.44,11.17,38.37,79.54,30.5,99.26-33.45,20.38-38.37,21-27.55,0-37.39-10.52S154.9,70.13,154.9,70.13Z"/><path class="cls-5" d="M22.57,166.43C23.82,173.24,8,157.78,5.84,148c-5.36-24.2,5.48-52,45.75-84.47,11.58-9.33,29-12.16,33.94-13.48S71.79,59.59,65.86,65.2c-26.07,24.65-52.64,36.48-48.21,80.19C19.12,159.88,22.19,164.36,22.57,166.43Z"/><path class="cls-6" d="M93.41,74.4C83.94,78.29,44.47,148,58,161.83c12.5,12.81,17.71,8.55,18.69,13.15s-9.84,8.55-20.66,3.94-22.63-16.43-13.77-31.55S74.71,81,77.66,73.09s12.79-9.2,17.71-8.55S98.15,72.45,93.41,74.4Z"/><path class="cls-7" d="M188.35,59c23.18,3.1,63.94,77.84,46.73,107.47-10.61,18.28-30.5,14.46-34.44,14.46s-17.71-5.92-3-11.83,27.06-6.9,30-23.34c2.74-15.24,0-13.15-5.9-30.24-4.91-14.22-13.28-33.85-23.12-39.11S179,70.46,178,64.54,183.43,58.3,188.35,59Z"/><path class="cls-8" d="M197.7,49.42c10.82,2,15.07,3.86,31.48,17.75,22.14,18.73,37.39,50.61,36.89,69.35-.35,13.16-13.28,30.57-19.19,37.14s10.82,0,19.68-9.86,12.3-16.76,12.3-31.22c0-10.39-21.64-53.24-34.44-65.08-4.64-4.3-17.22-22.68-43.78-22S197.7,49.42,197.7,49.42Z"/><path class="cls-9" d="M146,60.27c5.9-.13,24.6,3.29,28.53,9.2s16.73,45.36,14.76,74.28-5.9,38.78-13.77,43.38S101.77,195,91.93,184.5s-3-44.7,0-56.53,10.82-42.07,17.71-50.61S116.53,60.93,146,60.27Z"/><path class="cls-10" d="M100.29,145.39c3,5.26,3,24.32,28.53,27.61s33.45-5.26,41.32-17.75S181,136.85,180,145.39s8.85,40.75-30.5,40.75-52.14-5.26-54.11-19.72S100.29,145.39,100.29,145.39Z"/><path class="cls-11" d="M111.12,12c1-1.31,5.9-1.31,8.85,0s6.89,5.26,6.89,9.86c0,16.45-12,21-28.63,21.67,2.94.6,21,5.76,14.36,14.81,5.9,1.31,5.9,1.31,11.81,5.26,6.59-1.61,17.26-6.47,38.37-.66.8,1.31,2.8-4.44,13.77-7.23-5-5-5.57-7.51-1-11.17-4.92-2.63-11.31-3.62-18.2-20S128.83.78,113.09.12,110.14,13.27,111.12,12Z"/><path class="cls-12" d="M154.58,61.51c-7.06-4.85-10-6.17-8-17.34s3.94-13.15,3-18.41-10.9-17-15.25-20.71,13.28,12.82,10.33,23.34-8.85,15.78-6.89,21.69a58.25,58.25,0,0,0,4.71,11c3.16.8,7.2,1,9.11,2.21A22.35,22.35,0,0,1,154.58,61.51Z"/><path class="cls-13" d="M173.59,56.32s-14.3-3-15.25-6.9.86-23.7-4.43-29.91A46.8,46.8,0,0,0,146,12.28s7.38,9.53,7.38,14.79a109.89,109.89,0,0,1-2,19.06c-1,3.94,4.71,12.06,13.28,14.79C166.7,58.3,173.59,56.32,173.59,56.32Z"/><path class="cls-14" d="M115.76,58.63s13.07-8.55,15-19.07-1.33-18.65-3.44-21.36-3.94-5.26-3.94-5.26,14.27,10.85,10.33,29.91-12.09,18.41-12.09,18.41Z"/><path class="cls-15" d="M127.35,24.77s6.88,13.15-15.75,25c-1-2-7.87-5.92-11.81-5.92C124.4,42.52,126.38,33.42,127.35,24.77Z"/></g></g></g></svg>