<svg xmlns="http://www.w3.org/2000/svg" xmlns:xlink="http://www.w3.org/1999/xlink" viewBox="0 0 148.15 180.67"><defs><style>.cls-1,.cls-4{opacity:0.37;}.cls-2{fill:url(#linear-gradient);}.cls-3{fill:url(#linear-gradient-2);}.cls-4{fill:#c9c9c9;}.cls-5{fill:#fff;opacity:0.49;}.cls-6{fill:url(#linear-gradient-3);}</style><linearGradient id="linear-gradient" x1="73.64" y1="15.12" x2="73.64" y2="25.28" gradientUnits="userSpaceOnUse"><stop offset="0" stop-color="#1c1c1c"/><stop offset="0.49" stop-color="#414141"/><stop offset="1" stop-color="#151515"/></linearGradient><linearGradient id="linear-gradient-2" x1="73.73" y1="-0.12" x2="73.37" y2="15.85" xlink:href="#linear-gradient"/><linearGradient id="linear-gradient-3" x1="72.82" y1="27.86" x2="73.55" y2="52.53" xlink:href="#linear-gradient"/></defs><title>page2jar1_1</title><g id="Layer_2" data-name="Layer 2"><g id="pics"><path class="cls-1" d="M8.73,176.33s8-5.56,66.06-5.56,59.88,3.09,63.59,5.56S30.52,184.73,8.73,176.33Z"/><path class="cls-2" d="M58.66,26.42s-6.95-12.84.46-11.6,19.76,1.23,28.4,0,.86,11.43.86,11.43Z"/><path class="cls-3" d="M73.93,0C78.87,0,97.39,0,90,14.82a72.56,72.56,0,0,1-32.58,0C48,0,73.93,0,73.93,0Z"/><path class="cls-4" d="M8.49,174.33c1.12,7.11,125.94,4.94,130.88,0s21-118.53-8.64-121c-44.45-2.47-70.38-2.47-112.36,1.23C-10,57,1.08,127.41,8.49,174.33Z"/><polygon class="cls-5" points="86.96 52.66 86.66 176 98.66 176 98.31 53.3 86.96 52.66"/><polygon class="cls-5" points="104.32 53.24 104.66 176 107.66 176 107.93 53.24 104.32 53.24"/><path class="cls-6" d="M14.67,55.56C9.72,53.33,8.49,42,12.2,38.28c7-7,27.16-12.35,61.73-12.35S127,30.87,133.2,35.81s2.29,16.56,1.15,18.77C112.21,53.09,34.1,51.58,14.67,55.56Z"/></g></g></svg>