<svg xmlns="http://www.w3.org/2000/svg" xmlns:xlink="http://www.w3.org/1999/xlink" viewBox="0 0 336.77 362.02"><defs><style>.cls-1{fill:#f9f8f7;}.cls-1,.cls-4,.cls-5,.cls-7{stroke:#151a28;}.cls-1,.cls-2,.cls-4,.cls-5,.cls-7{stroke-miterlimit:10;stroke-width:0.84px;}.cls-2{fill:#edcfc5;stroke:#000;}.cls-3{fill:#ccb0a8;}.cls-4{fill:url(#linear-gradient);}.cls-5{fill:url(#linear-gradient-2);}.cls-6{fill:#331e1e;}.cls-7{fill:url(#linear-gradient-3);}</style><linearGradient id="linear-gradient" x1="126.57" y1="213.89" x2="-7" y2="70.66" gradientUnits="userSpaceOnUse"><stop offset="0" stop-color="#331e1e"/><stop offset="1" stop-color="#563b3b"/></linearGradient><linearGradient id="linear-gradient-2" x1="229.11" y1="210.34" x2="363.21" y2="70.16" xlink:href="#linear-gradient"/><linearGradient id="linear-gradient-3" x1="157.62" y1="268.29" x2="265.24" y2="125.91" xlink:href="#linear-gradient"/></defs><title>page4skulltop</title><g id="Layer_2" data-name="Layer 2"><g id="Layer_1-2" data-name="Layer 1"><path class="cls-1" d="M104,354.42c0,3.46,2.52,7.56,9.24,5.88s6.3-20.92,6.3-23.1c0-1.68-9.66-6.3-13,3.78S104,352.74,104,354.42Z"/><path class="cls-1" d="M126.21,333c5.37-1.22,7.56-3.36,7.56,7.56,0,10.08,1.68,21-7.56,21s-8.87-1.49-7.37-13.34S119.66,334.49,126.21,333Z"/><path class="cls-1" d="M143.63,329.59c4.42,0,10.3-.79,10.3,11.81s2.52,20.16-10.08,20.16-9.87-2.88-10-11.52S132.49,329.54,143.63,329.59Z"/><path class="cls-1" d="M164.84,328.8c3.36,0,10.92-2.52,10.92,16,0,15.12-2.52,16.8-10.92,16.8s-11.35.64-10.71-14.8S155.6,328.8,164.84,328.8Z"/><path class="cls-1" d="M188.36,328.8c3.36,0,10.08-.84,10.08,11.76s4.2,21-10.08,21-12.6-2.52-12.6-16.8S178.28,328.8,188.36,328.8Z"/><path class="cls-1" d="M209.35,329.64c5.08.51,8.4,1.68,8.4,11.76s3.36,21-8.4,20.16-10.51-1.16-10.72-15.7S201,328.8,209.35,329.64Z"/><path class="cls-1" d="M225.31,332.16c5,1.68,8.4.84,8.4,14.28s1.68,14.28-7.56,14.28-7.51-.73-8-13.38S215.72,329,225.31,332.16Z"/><path class="cls-1" d="M238.31,333.93c4.22.21,10.09,4.53,10.93,11.25s2.52,16-7.56,16-7.32-6.21-7.86-13.6S231.58,333.6,238.31,333.93Z"/><path class="cls-2" d="M14.87,243.81c3.89,6.42,22.32,32.08,41.63,35.44S84.22,280.93,90.1,286s19.32,17.64,16,37.79,21,9.24,27.72,7.56,73.91-4.2,90.7,1.68,24.36-3.36,24.36-9.24-2.52-33.59,8.4-37.79,28.55-5.88,35.27-2.52,30.8-19.55,35.14-28.25,5.3-29.76,5.24-38.54,6.36-16.86,1.89-53.14-1.26-53.79-31.84-95.43S220.27.42,168.2.42,45.93,33.36,14.26,98.77C-4,137.32-.34,176.11,3.72,181.91s3.92,14.55,4.41,22.77S10.19,236.09,14.87,243.81Z"/><path class="cls-3" d="M169,5.08c183.75,108.74-140.8,91.76-43,137.36,89.39,41.7,94.37,154.15,60.43,128.58a24.48,24.48,0,0,1-5.73-8.41c-1.73-4.08-6.73-4.63-7.13,1.78s-4.53,12.13-10.33,12.13S75.95,316.14,215.61,327c-10.15-.6-60.77-6.33-95.88,4.3-11.11,2.46-12.77-5.72-11.94-11.44s1.66-33.52-25.66-40.88c-34.76-1.64-45.59-9.11-65.83-40.53a120.52,120.52,0,0,1-4.4-26.08C11,197.21,11.12,186.74,7.73,183s-7.31-28,2.51-64.12S53,48.69,79.14,33,135.11,4.26,169,5.08Z"/><path class="cls-4" d="M98.49,142.35c-10.87,1.36-45.35,14.28-47,31.07s1.68,40.31,16.8,50.39,61.31,1.68,70.55-14.28,11.76-22.68,9.24-32.75-11.76-33.59-26-36.11S105.21,141.51,98.49,142.35Z"/><path class="cls-5" d="M245.47,141.51c-11.78-.47-40.31,4.2-40.31,41.15S256.39,228,264.78,228s18.48-2.52,24.36-8.4,16-40.31,7.56-52.07S266.46,142.35,245.47,141.51Z"/><path class="cls-6" d="M87.49,227.14a42.32,42.32,0,0,1-12.7-1.6c33.92-1.07,52.32-14,54.63-23.34,1-4.22-.85-7.84-5.33-10.2-10.38-5.47-13.66-10.63-14.58-14a7.21,7.21,0,0,1,.62-5.82,13.12,13.12,0,0,1,11.79-6.61c12.15,0,25.64,12.14,26.21,17.7.89,8.7-9.4,25.23-11.67,28.11-.09.12-9.77,12.08-33.82,14.75a140.19,140.19,0,0,1-15.15,1Z"/><path class="cls-6" d="M266.35,227.14c-4.65-.1-36.33-4.34-51.81-20.87A30.38,30.38,0,0,1,206,183c4.55-5.2,10.29-11.54,24.1-11.54a61.26,61.26,0,0,1,11,1.11c3.29.61,10.54,5.08,13.45,9.77a5.44,5.44,0,0,1,1,4.29c-.62,2.17-5.19,4.1-9.61,6-6.39,2.7-13.63,5.77-13.09,11.14.86,8.59,7,16.71,12.59,16.71l1.89,0,2.28,0c4.73,0,10.09-.53,14.06-4.5a3.23,3.23,0,0,1,2.35-1c2.35,0,4.82,2.16,5.38,4.72C272.08,222.64,270.27,225.26,266.35,227.14Z"/><path class="cls-7" d="M175.76,184.35c6.72,0,25.2,42,26.88,49.55s9.24,43.67-6.72,42.83-13.44-12.6-18.48-14.28-5,5.88-5.88,8.4-4.2,12.6-16.8,5.88-8.4-37-5.88-45.35S164.84,184.35,175.76,184.35Z"/><path class="cls-6" d="M161.78,278.16c-5.36,0-11.86-4-14-15.19-1.3-6.79-1.33-24.46,3.26-35.51.72-1.73,1.56-4,2.54-6.53,4.48-11.79,12.6-33.17,20.74-35.53-3.78,7.79-20.77,44-16.14,57.18,2.14,6.07,5.4,9.55,8.94,9.55a5.5,5.5,0,0,0,4.08-1.91,9.27,9.27,0,0,0,2-7.17,3,3,0,0,1,.41-2.35.61.61,0,0,1,.48-.22c.42,0,1.16.39,1.83,1.49,2,3.31,2.29,10.66-3.13,21.36l0,.06,0,.07c-.18.59-.36,1.32-.57,2.17-1.11,4.61-3,12.33-10.07,12.53Z"/></g></g></svg>