<svg xmlns="http://www.w3.org/2000/svg" xmlns:xlink="http://www.w3.org/1999/xlink" viewBox="0 0 1382 740"><defs><style>.cls-1{fill:url(#linear-gradient);}.cls-2{fill:#11131c;}.cls-10,.cls-3{fill:#00080a;}.cls-4{fill:url(#linear-gradient-2);}.cls-5{fill:url(#linear-gradient-3);}.cls-6{fill:#001826;}.cls-7{fill:url(#linear-gradient-4);}.cls-8{fill:url(#linear-gradient-5);}.cls-9{fill:url(#linear-gradient-6);}.cls-10{stroke:#00080a;stroke-width:0.85px;}.cls-10,.cls-33,.cls-34,.cls-35,.cls-36,.cls-37,.cls-47,.cls-51,.cls-52,.cls-53,.cls-54,.cls-55,.cls-65,.cls-67,.cls-68,.cls-69,.cls-70,.cls-71,.cls-81,.cls-85,.cls-90{stroke-miterlimit:10;}.cls-11{fill:url(#linear-gradient-7);}.cls-12{fill:url(#linear-gradient-8);}.cls-13{fill:url(#radial-gradient);}.cls-14{fill:url(#linear-gradient-9);}.cls-15{fill:url(#linear-gradient-10);}.cls-16{fill:url(#linear-gradient-11);}.cls-17{fill:url(#linear-gradient-12);}.cls-18{fill:url(#linear-gradient-13);}.cls-19{fill:url(#linear-gradient-14);}.cls-20{fill:url(#linear-gradient-15);}.cls-21{fill:#00293d;}.cls-22{fill:url(#linear-gradient-16);}.cls-23{fill:url(#linear-gradient-17);}.cls-24{fill:url(#linear-gradient-18);}.cls-25{fill:url(#linear-gradient-19);}.cls-26{fill:url(#linear-gradient-20);}.cls-27{fill:url(#linear-gradient-21);}.cls-28{fill:url(#linear-gradient-22);}.cls-29{fill:url(#linear-gradient-23);}.cls-30{fill:url(#linear-gradient-24);}.cls-31{fill:url(#linear-gradient-25);}.cls-32{fill:url(#linear-gradient-26);}.cls-33,.cls-34,.cls-35,.cls-36,.cls-47,.cls-51,.cls-52,.cls-53,.cls-54,.cls-65,.cls-67,.cls-68,.cls-69,.cls-70,.cls-81,.cls-85{stroke:#f46f3b;}.cls-33,.cls-34,.cls-35,.cls-36,.cls-47{stroke-width:0.12px;}.cls-33{fill:url(#linear-gradient-27);}.cls-34{fill:url(#linear-gradient-28);}.cls-35{fill:url(#linear-gradient-29);}.cls-36{fill:url(#linear-gradient-30);}.cls-37,.cls-55,.cls-71,.cls-89{fill:#928c3c;}.cls-37,.cls-55,.cls-71,.cls-90{stroke:#6d6731;}.cls-37{stroke-width:0.03px;}.cls-38{fill:url(#linear-gradient-31);}.cls-39{fill:url(#linear-gradient-32);}.cls-40{fill:url(#linear-gradient-33);}.cls-41{fill:url(#linear-gradient-34);}.cls-42{fill:url(#linear-gradient-35);}.cls-43{fill:url(#linear-gradient-36);}.cls-44{fill:url(#linear-gradient-37);}.cls-45{fill:url(#linear-gradient-38);}.cls-46{fill:url(#linear-gradient-39);}.cls-47{fill:url(#linear-gradient-40);}.cls-48{fill:url(#linear-gradient-41);}.cls-49{fill:url(#linear-gradient-42);}.cls-50{fill:#000f14;}.cls-51,.cls-52,.cls-53,.cls-54,.cls-65{stroke-width:0.16px;}.cls-51{fill:url(#linear-gradient-43);}.cls-52{fill:url(#linear-gradient-44);}.cls-53{fill:url(#linear-gradient-45);}.cls-54{fill:url(#linear-gradient-46);}.cls-55{stroke-width:0.04px;}.cls-56{fill:url(#linear-gradient-47);}.cls-57{fill:url(#linear-gradient-48);}.cls-58{fill:url(#linear-gradient-49);}.cls-59{fill:url(#linear-gradient-50);}.cls-60{fill:url(#linear-gradient-51);}.cls-61{fill:url(#linear-gradient-52);}.cls-62{fill:url(#linear-gradient-53);}.cls-63{fill:url(#linear-gradient-54);}.cls-64{fill:url(#linear-gradient-55);}.cls-65{fill:url(#linear-gradient-56);}.cls-66{fill:url(#linear-gradient-57);}.cls-67,.cls-68,.cls-69,.cls-70,.cls-81{stroke-width:0.13px;}.cls-67{fill:url(#linear-gradient-58);}.cls-68{fill:url(#linear-gradient-59);}.cls-69{fill:url(#linear-gradient-60);}.cls-70{fill:url(#linear-gradient-61);}.cls-71{stroke-width:0.03px;}.cls-72{fill:url(#linear-gradient-62);}.cls-73{fill:url(#linear-gradient-63);}.cls-74{fill:url(#linear-gradient-64);}.cls-75{fill:url(#linear-gradient-65);}.cls-76{fill:url(#linear-gradient-66);}.cls-77{fill:url(#linear-gradient-67);}.cls-78{fill:url(#linear-gradient-68);}.cls-79{fill:url(#linear-gradient-69);}.cls-80{fill:url(#linear-gradient-70);}.cls-81{fill:url(#linear-gradient-71);}.cls-82{fill:url(#linear-gradient-72);}.cls-83{fill:url(#linear-gradient-73);}.cls-84{fill:url(#linear-gradient-74);}.cls-85,.cls-90{fill:none;}.cls-85{stroke-width:0.14px;}.cls-86{fill:url(#linear-gradient-75);}.cls-87{fill:url(#linear-gradient-76);}.cls-88{fill:url(#linear-gradient-77);}.cls-90{stroke-width:0.04px;}.cls-91{fill:url(#linear-gradient-78);}.cls-92{fill:url(#linear-gradient-79);}.cls-93{fill:url(#linear-gradient-80);}.cls-94{fill:url(#linear-gradient-81);}.cls-95{fill:url(#linear-gradient-82);}.cls-96{fill:url(#linear-gradient-83);}.cls-97{fill:url(#linear-gradient-84);}.cls-98{fill:url(#linear-gradient-85);}.cls-99{fill:url(#linear-gradient-86);}.cls-100{fill:url(#linear-gradient-87);}.cls-101{fill:url(#linear-gradient-88);}</style><linearGradient id="linear-gradient" x1="691" y1="724.48" x2="691" y2="273.64" gradientUnits="userSpaceOnUse"><stop offset="0" stop-color="#00000e"/><stop offset="1" stop-color="#111d23"/></linearGradient><linearGradient id="linear-gradient-2" x1="710.09" y1="199.47" x2="761.95" y2="199.47" gradientUnits="userSpaceOnUse"><stop offset="0" stop-color="#00182d"/><stop offset="0.35" stop-color="#001120"/><stop offset="0.98"/></linearGradient><linearGradient id="linear-gradient-3" x1="691.36" y1="145.29" x2="737.72" y2="145.29" xlink:href="#linear-gradient-2"/><linearGradient id="linear-gradient-4" x1="978.08" y1="274.3" x2="1190.75" y2="274.3" gradientUnits="userSpaceOnUse"><stop offset="0" stop-color="#00172d"/><stop offset="1" stop-color="#00121b"/></linearGradient><linearGradient id="linear-gradient-5" x1="653.29" y1="160.92" x2="738.08" y2="160.92" gradientUnits="userSpaceOnUse"><stop offset="0" stop-color="#00394c"/><stop offset="0.27" stop-color="#0a4259"/><stop offset="1" stop-color="#23587a"/></linearGradient><linearGradient id="linear-gradient-6" x1="1008.89" y1="312.97" x2="1036.67" y2="312.97" xlink:href="#linear-gradient-5"/><linearGradient id="linear-gradient-7" x1="660.02" y1="53.79" x2="738" y2="53.79" gradientUnits="userSpaceOnUse"><stop offset="0" stop-color="#003a5f"/><stop offset="0.01" stop-color="#003a5e"/><stop offset="1" stop-color="#00142b"/></linearGradient><linearGradient id="linear-gradient-8" x1="643.95" y1="379.72" x2="759.05" y2="379.72" xlink:href="#linear-gradient-5"/><radialGradient id="radial-gradient" cx="824.23" cy="-67.67" r="230.77" gradientTransform="translate(26.54 297.25) scale(1.02 0.84)" gradientUnits="userSpaceOnUse"><stop offset="0" stop-color="#005a80"/><stop offset="0.48" stop-color="#00415e"/><stop offset="1" stop-color="#00293d"/></radialGradient><linearGradient id="linear-gradient-9" x1="788.7" y1="377.46" x2="937.62" y2="377.46" xlink:href="#linear-gradient-5"/><linearGradient id="linear-gradient-10" x1="751.36" y1="278.7" x2="963.57" y2="278.7" xlink:href="#linear-gradient-7"/><linearGradient id="linear-gradient-11" x1="846.82" y1="465.48" x2="846.5" y2="495.56" gradientUnits="userSpaceOnUse"><stop offset="0" stop-color="#ffe96f" stop-opacity="0.3"/><stop offset="0.16" stop-color="#ffe96f" stop-opacity="0.29"/><stop offset="0.26" stop-color="#ffe96f" stop-opacity="0.25"/><stop offset="0.35" stop-color="#ffe96f" stop-opacity="0.2"/><stop offset="0.45" stop-color="#ffe96f" stop-opacity="0.17"/><stop offset="0.6" stop-color="#ffe96f" stop-opacity="0.09"/><stop offset="0.73" stop-color="#ffe96f" stop-opacity="0"/></linearGradient><linearGradient id="linear-gradient-12" x1="945.36" y1="95.65" x2="1409.28" y2="82.23" xlink:href="#linear-gradient-2"/><linearGradient id="linear-gradient-13" x1="1037.53" y1="18.4" x2="1165.74" y2="18.4" xlink:href="#linear-gradient-7"/><linearGradient id="linear-gradient-14" x1="1095.25" y1="72" x2="1161.65" y2="72" gradientUnits="userSpaceOnUse"><stop offset="0" stop-color="#002c4c"/><stop offset="0.13" stop-color="#002a47"/><stop offset="1" stop-color="#001c26"/></linearGradient><linearGradient id="linear-gradient-15" x1="1034.83" y1="218.55" x2="1133.35" y2="218.55" xlink:href="#linear-gradient-14"/><linearGradient id="linear-gradient-16" x1="1043.99" y1="70.74" x2="1108.43" y2="70.74" xlink:href="#linear-gradient-14"/><linearGradient id="linear-gradient-17" x1="1028.51" y1="312.58" x2="1131.81" y2="312.58" xlink:href="#linear-gradient-14"/><linearGradient id="linear-gradient-18" x1="1034.83" y1="252.92" x2="1239" y2="252.92" xlink:href="#linear-gradient-2"/><linearGradient id="linear-gradient-19" x1="1031.71" y1="26.05" x2="1119.77" y2="26.05" xlink:href="#linear-gradient-7"/><linearGradient id="linear-gradient-20" x1="1115.74" y1="29.1" x2="1170.2" y2="29.1" xlink:href="#linear-gradient-7"/><linearGradient id="linear-gradient-21" x1="1034.72" y1="279.95" x2="1172.69" y2="279.95" xlink:href="#linear-gradient-5"/><linearGradient id="linear-gradient-22" x1="721.24" y1="105.2" x2="1063.53" y2="105.2" xlink:href="#linear-gradient-7"/><linearGradient id="linear-gradient-23" x1="670.44" y1="309.23" x2="787.09" y2="309.23" xlink:href="#linear-gradient-2"/><linearGradient id="linear-gradient-24" x1="596.71" y1="318.45" x2="772.25" y2="318.45" xlink:href="#linear-gradient-7"/><linearGradient id="linear-gradient-25" x1="779.1" y1="259.35" x2="951.21" y2="259.35" xlink:href="#linear-gradient-2"/><linearGradient id="linear-gradient-26" x1="939.05" y1="274.13" x2="974.09" y2="274.13" xlink:href="#linear-gradient-2"/><linearGradient id="linear-gradient-27" x1="1118.39" y1="559.56" x2="1124.45" y2="580.08" gradientTransform="translate(-75.89 -58.42) rotate(-2.7)" gradientUnits="userSpaceOnUse"><stop offset="0" stop-color="#dc6931"/><stop offset="0.09" stop-color="#e6611f"/><stop offset="0.21" stop-color="#f05a0e"/><stop offset="0.34" stop-color="#f65503"/><stop offset="0.5" stop-color="#f85400"/><stop offset="0.68" stop-color="#f65503"/><stop offset="0.8" stop-color="#f1590c"/><stop offset="0.9" stop-color="#e8601b"/><stop offset="1" stop-color="#dc6931"/></linearGradient><linearGradient id="linear-gradient-28" x1="1093.43" y1="575.18" x2="1098.13" y2="563.73" xlink:href="#linear-gradient-27"/><linearGradient id="linear-gradient-29" x1="1101.88" y1="562.04" x2="1096.81" y2="582.18" xlink:href="#linear-gradient-27"/><linearGradient id="linear-gradient-30" x1="1118.25" y1="582.18" x2="1114.91" y2="562.85" xlink:href="#linear-gradient-27"/><linearGradient id="linear-gradient-31" x1="1089.76" y1="575.91" x2="1097.72" y2="560.35" gradientTransform="translate(-75.89 -58.42) rotate(-2.7)" gradientUnits="userSpaceOnUse"><stop offset="0" stop-color="#dc6431"/><stop offset="0.5" stop-color="#f84623"/><stop offset="1" stop-color="#dc6431"/></linearGradient><linearGradient id="linear-gradient-32" x1="1095.83" y1="580.49" x2="1101.39" y2="563.43" xlink:href="#linear-gradient-31"/><linearGradient id="linear-gradient-33" x1="1116.94" y1="562.66" x2="1119.84" y2="581.86" xlink:href="#linear-gradient-31"/><linearGradient id="linear-gradient-34" x1="1118.83" y1="560.16" x2="1126.32" y2="578.66" xlink:href="#linear-gradient-31"/><linearGradient id="linear-gradient-35" x1="-3765.8" y1="558.87" x2="-3763.81" y2="558.91" gradientTransform="matrix(-1, 0.05, 0.05, 1, -2728.93, 66.9)" gradientUnits="userSpaceOnUse"><stop offset="0" stop-color="#979440"/><stop offset="0.5" stop-color="#a3a554"/><stop offset="1" stop-color="#979440"/></linearGradient><linearGradient id="linear-gradient-36" x1="-3767.87" y1="558.82" x2="-3765.16" y2="559.14" xlink:href="#linear-gradient-35"/><linearGradient id="linear-gradient-37" x1="-3765.56" y1="558.78" x2="-3764.39" y2="558.34" xlink:href="#linear-gradient-35"/><linearGradient id="linear-gradient-38" x1="-3761.67" y1="560.18" x2="-3760.36" y2="558.87" xlink:href="#linear-gradient-35"/><linearGradient id="linear-gradient-39" x1="-3767.75" y1="559.26" x2="-3766.87" y2="559.96" xlink:href="#linear-gradient-35"/><linearGradient id="linear-gradient-40" x1="1108.18" y1="564.95" x2="1107.98" y2="583.64" xlink:href="#linear-gradient-27"/><linearGradient id="linear-gradient-41" x1="1107.6" y1="582.48" x2="1109.01" y2="566.74" xlink:href="#linear-gradient-31"/><linearGradient id="linear-gradient-42" x1="1117.53" y1="566.3" x2="1110.84" y2="566.37" xlink:href="#linear-gradient-31"/><linearGradient id="linear-gradient-43" x1="1136.26" y1="612.83" x2="1144.2" y2="639.74" gradientTransform="translate(-156.7 -99.55) rotate(-5.75)" gradientUnits="userSpaceOnUse"><stop offset="0" stop-color="#dc7d31"/><stop offset="0.5" stop-color="#f85823"/><stop offset="1" stop-color="#dc7d31"/></linearGradient><linearGradient id="linear-gradient-44" x1="1100.95" y1="632.83" x2="1107.08" y2="617.88" xlink:href="#linear-gradient-43"/><linearGradient id="linear-gradient-45" x1="1112.5" y1="615.92" x2="1106.19" y2="640.99" xlink:href="#linear-gradient-43"/><linearGradient id="linear-gradient-46" x1="1135.53" y1="641.31" x2="1131.35" y2="617.12" xlink:href="#linear-gradient-43"/><linearGradient id="linear-gradient-47" x1="1096.02" y1="634.8" x2="1106.83" y2="613.68" gradientTransform="translate(-156.7 -99.55) rotate(-5.75)" gradientUnits="userSpaceOnUse"><stop offset="0" stop-color="#dc8231"/><stop offset="0.5" stop-color="#f86023"/><stop offset="1" stop-color="#dc8231"/></linearGradient><linearGradient id="linear-gradient-48" x1="1104.81" y1="638.83" x2="1111.74" y2="617.62" xlink:href="#linear-gradient-47"/><linearGradient id="linear-gradient-49" x1="1134.14" y1="616.89" x2="1137.77" y2="640.87" xlink:href="#linear-gradient-47"/><linearGradient id="linear-gradient-50" x1="1136.76" y1="613.61" x2="1146.89" y2="638.61" xlink:href="#linear-gradient-47"/><linearGradient id="linear-gradient-51" x1="-3779.51" y1="612.1" x2="-3776.34" y2="612.18" gradientTransform="matrix(-0.99, 0.1, 0.1, 0.99, -2799.35, 166.38)" xlink:href="#linear-gradient-35"/><linearGradient id="linear-gradient-52" x1="-3782.63" y1="612.45" x2="-3778.49" y2="612.93" gradientTransform="matrix(-0.99, 0.1, 0.1, 0.99, -2799.35, 166.38)" xlink:href="#linear-gradient-35"/><linearGradient id="linear-gradient-53" x1="-3776.52" y1="613.63" x2="-3775" y2="613.05" gradientTransform="matrix(-0.99, 0.1, 0.1, 0.99, -2799.35, 166.38)" xlink:href="#linear-gradient-35"/><linearGradient id="linear-gradient-54" x1="-3773.99" y1="613.93" x2="-3772.15" y2="612.09" gradientTransform="matrix(-0.99, 0.1, 0.1, 0.99, -2799.35, 166.38)" xlink:href="#linear-gradient-35"/><linearGradient id="linear-gradient-55" x1="-3782.46" y1="612.74" x2="-3781.36" y2="613.61" gradientTransform="matrix(-0.99, 0.1, 0.1, 0.99, -2799.35, 166.38)" xlink:href="#linear-gradient-35"/><linearGradient id="linear-gradient-56" x1="1121.7" y1="622.04" x2="1121.44" y2="646.81" xlink:href="#linear-gradient-43"/><linearGradient id="linear-gradient-57" x1="1120.62" y1="646.05" x2="1122.92" y2="620.28" xlink:href="#linear-gradient-47"/><linearGradient id="linear-gradient-58" x1="995.77" y1="448.83" x2="1001.75" y2="469.07" gradientTransform="matrix(1, 0, 0, 1, 0, 0)" xlink:href="#linear-gradient-27"/><linearGradient id="linear-gradient-59" x1="965.93" y1="464.68" x2="970.74" y2="452.95" gradientTransform="matrix(1, 0, 0, 1, 0, 0)" xlink:href="#linear-gradient-27"/><linearGradient id="linear-gradient-60" x1="974.67" y1="451.33" x2="969.58" y2="471.53" gradientTransform="matrix(1, 0, 0, 1, 0, 0)" xlink:href="#linear-gradient-27"/><linearGradient id="linear-gradient-61" x1="994.92" y1="471.2" x2="991.66" y2="452.29" gradientTransform="matrix(1, 0, 0, 1, 0, 0)" xlink:href="#linear-gradient-27"/><linearGradient id="linear-gradient-62" x1="961.87" y1="465.6" x2="970.06" y2="449.59" gradientTransform="matrix(1, 0, 0, 1, 0, 0)" xlink:href="#linear-gradient-31"/><linearGradient id="linear-gradient-63" x1="968.11" y1="469.68" x2="973.67" y2="452.65" gradientTransform="matrix(1, 0, 0, 1, 0, 0)" xlink:href="#linear-gradient-31"/><linearGradient id="linear-gradient-64" x1="994.07" y1="452.08" x2="996.9" y2="470.82" gradientTransform="matrix(1, 0, 0, 1, 0, 0)" xlink:href="#linear-gradient-31"/><linearGradient id="linear-gradient-65" x1="996.34" y1="449.34" x2="1003.85" y2="467.87" gradientTransform="matrix(1, 0, 0, 1, 0, 0)" xlink:href="#linear-gradient-31"/><linearGradient id="linear-gradient-66" x1="-3641.14" y1="448.57" x2="-3638.7" y2="448.63" gradientTransform="matrix(-1, 0, 0, 1, -2656, 0)" xlink:href="#linear-gradient-35"/><linearGradient id="linear-gradient-67" x1="-3643.68" y1="448.49" x2="-3640.38" y2="448.88" gradientTransform="matrix(-1, 0, 0, 1, -2656, 0)" xlink:href="#linear-gradient-35"/><linearGradient id="linear-gradient-68" x1="-3641.25" y1="448.76" x2="-3639.54" y2="448.12" gradientTransform="matrix(-1, 0, 0, 1, -2656, 0)" xlink:href="#linear-gradient-35"/><linearGradient id="linear-gradient-69" x1="-3635.97" y1="450.08" x2="-3634.36" y2="448.47" gradientTransform="matrix(-1, 0, 0, 1, -2656, 0)" xlink:href="#linear-gradient-35"/><linearGradient id="linear-gradient-70" x1="-3643.54" y1="448.86" x2="-3642.57" y2="449.63" gradientTransform="matrix(-1, 0, 0, 1, -2656, 0)" xlink:href="#linear-gradient-35"/><linearGradient id="linear-gradient-71" x1="982.92" y1="454.48" x2="982.72" y2="472.65" gradientTransform="matrix(1, 0, 0, 1, 0, 0)" xlink:href="#linear-gradient-27"/><linearGradient id="linear-gradient-72" x1="982.32" y1="471.58" x2="983.73" y2="455.8" gradientTransform="matrix(1, 0, 0, 1, 0, 0)" xlink:href="#linear-gradient-31"/><linearGradient id="linear-gradient-73" x1="994.39" y1="455.78" x2="986.28" y2="455.87" gradientTransform="matrix(1, 0, 0, 1, 0, 0)" xlink:href="#linear-gradient-31"/><linearGradient id="linear-gradient-74" x1="7866.68" y1="-4604.33" x2="7906.67" y2="-4468.97" gradientTransform="matrix(0.22, 0, 0, 0.19, -677.52, 1346.92)" xlink:href="#linear-gradient-43"/><linearGradient id="linear-gradient-75" x1="7737.83" y1="-4500.47" x2="7768.24" y2="-4574.63" gradientTransform="matrix(0.22, 0, 0, 0.19, -677.52, 1346.92)" xlink:href="#linear-gradient-43"/><linearGradient id="linear-gradient-76" x1="7790.84" y1="-4587.8" x2="7758" y2="-4457.35" gradientTransform="matrix(0.22, 0, 0, 0.19, -677.52, 1346.92)" xlink:href="#linear-gradient-43"/><linearGradient id="linear-gradient-77" x1="7871.4" y1="-4458.39" x2="7849.38" y2="-4585.85" gradientTransform="matrix(0.22, 0, 0, 0.19, -677.52, 1346.92)" xlink:href="#linear-gradient-43"/><linearGradient id="linear-gradient-78" x1="7717.69" y1="-4488.66" x2="7770.85" y2="-4592.58" gradientTransform="matrix(0.22, 0, 0, 0.19, -677.52, 1346.92)" xlink:href="#linear-gradient-47"/><linearGradient id="linear-gradient-79" x1="7753.36" y1="-4467.47" x2="7788.78" y2="-4576" gradientTransform="matrix(0.22, 0, 0, 0.19, -677.52, 1346.92)" xlink:href="#linear-gradient-47"/><linearGradient id="linear-gradient-80" x1="7860.37" y1="-4583.94" x2="7879.1" y2="-4459.88" gradientTransform="matrix(0.22, 0, 0, 0.19, -677.52, 1346.92)" xlink:href="#linear-gradient-47"/><linearGradient id="linear-gradient-81" x1="7868.6" y1="-4597" x2="7918.4" y2="-4474.03" gradientTransform="matrix(0.22, 0, 0, 0.19, -677.52, 1346.92)" xlink:href="#linear-gradient-47"/><linearGradient id="linear-gradient-82" x1="-10480.79" y1="-4607.3" x2="-10469.79" y2="-4607.05" gradientTransform="matrix(-0.22, 0, 0, 0.19, -1257, 1351.62)" xlink:href="#linear-gradient-35"/><linearGradient id="linear-gradient-83" x1="-10492.22" y1="-4605.23" x2="-10478.29" y2="-4603.59" gradientTransform="matrix(-0.22, 0, 0, 0.19, -1257, 1351.62)" xlink:href="#linear-gradient-35"/><linearGradient id="linear-gradient-84" x1="-10471.82" y1="-4600.43" x2="-10464.87" y2="-4603.07" gradientTransform="matrix(-0.22, 0, 0, 0.19, -1257, 1351.62)" xlink:href="#linear-gradient-35"/><linearGradient id="linear-gradient-85" x1="-10462.66" y1="-4599.28" x2="-10456.39" y2="-4605.55" gradientTransform="matrix(-0.22, 0, 0, 0.19, -1257, 1351.62)" xlink:href="#linear-gradient-35"/><linearGradient id="linear-gradient-86" x1="-10493.21" y1="-4604.57" x2="-10487.01" y2="-4599.63" gradientTransform="matrix(-0.22, 0, 0, 0.19, -1257, 1351.62)" xlink:href="#linear-gradient-35"/><linearGradient id="linear-gradient-87" x1="7818.65" y1="-4561.35" x2="7817.21" y2="-4426.07" gradientTransform="matrix(0.22, 0, 0, 0.19, -677.52, 1346.92)" xlink:href="#linear-gradient-43"/><linearGradient id="linear-gradient-88" x1="7812.22" y1="-4431.88" x2="7824.05" y2="-4564.43" gradientTransform="matrix(0.22, 0, 0, 0.19, -677.52, 1346.92)" xlink:href="#linear-gradient-47"/></defs><title>page1houseandyard</title><g id="Layer_2" data-name="Layer 2"><g id="Layer_2-2" data-name="Layer 2"><path class="cls-1" d="M0,291.81S19,268.17,272.39,294s142.3-14.13,396.57-21.5c230.22-6.67,527.82,3.55,603.87-4.3,52.45-5.42,81.12,9.67,109.16,10.75V740H0Z"/><path class="cls-2" d="M288,738.73s33.26-61.66,90.57-93.44,80.85-45.13,132-59.75,144.31-40,170.91-54.67,70.09-39.47,69.59-68.65c26.11.06,214.92,0,214.92,0s30.7,68.65-40.94,119.51S848.33,712,848.33,740C803.3,740,288,738.73,288,738.73Z"/><path class="cls-3" d="M741.74,178.32q26.87-7.41,53.89-14.84-2.55-20.77-4.77-41.53C774.23,140.9,757.78,159.72,741.74,178.32Z"/><path class="cls-3" d="M626.09,368.45q15.84-6.23,32.17-12.81Q651.88,334.31,646.2,313C638.59,331.8,631.83,350.28,626.09,368.45Z"/><path class="cls-4" d="M734,193c6.94,1,17.46,2.67,25.6,3.83,11.52,1.64-22.44,6.08-33.61,9.1l-15.89-3.53C718.95,199.49,725.1,195.94,734,193Z"/><path class="cls-3" d="M653.29,99.91q31.2-7.11,62.38-14s10.19-2,14.59,2.3-55.49,9.6-55.49,9.7Q664,98.88,653.29,99.91Z"/><path class="cls-5" d="M711.09,202.4l26.63-8.78q-5.3-52.75-7.46-105.43-17,3.85-34,7.76-2.84,24.19-4.89,48.28Q700.69,173.14,711.09,202.4Z"/><path class="cls-6" d="M979.12,432.36c61.48-42.71,129.74-86.58,200.36-128.24,31-.37,21.06.55,52,.26C1191.33,343.49,1161.35,386,1110,429.59Q1044.66,432.21,979.12,432.36Z"/><path class="cls-7" d="M1179.91,304.11a1385.09,1385.09,0,0,0,10.77-187.84c-70.81,2.34-141.7,6.55-212.6,12.07,3,101.85,4.37,203.18,3,304C1042.13,389.6,1109.86,345.75,1179.91,304.11Z"/><path class="cls-8" d="M668.6,223.25c-7.11-41.27-12.31-82.4-15.31-123.34,0,0,24.41-6.38,49.19-5.42-1.32,14.28,7.78,107.12,8.57,107.16q13.51.52,27,1.09-1.45,12.37-2.71,24.71Q702,225.25,668.6,223.25Z"/><path class="cls-3" d="M694.23,212.83q50-12.93,100.7-26.22.63,3.07,1.28,6.15-4.85,8.53-9.6,17Q740.4,211.2,694.23,212.83Z"/><path class="cls-9" d="M1014.63,213.52s14.21-8.85,21.68,6.7c2.15,16.45-6,194.46-7.33,194.32q-10,.22-20.1.4Q1014,314.55,1014.63,213.52Z"/><path class="cls-10" d="M684.82,94q.23-15,.79-30S696,58,707,62.61c-.24,3.77,1.75,28.2,1.81,28.21S695.38,91.89,684.82,94Z"/><path class="cls-11" d="M685.61,64q-10.68.72-21.35,1.51s-10.77-7.3,2.06-15.7c13.5-2,67.36-7.85,67.35-7.74s9.56,10.09.27,19c-25.85,1.45-27,1.6-27,1.58S698.23,57.9,685.61,64Z"/><path class="cls-12" d="M643.95,341.58q16.82,56.94,38.72,114.36,38.19,3.54,76.39,6Q744.33,410.25,732,358.71c-17.87-20.66-36-41.1-54.11-61.23C665.91,312.45,654.56,327.17,643.95,341.58Z"/><path class="cls-13" d="M709.56,302.63q-8.92-45-15.32-89.8,42.42-3.25,85-6.41-1.16-33.46-1.33-67c32.63-34.06,66.1-68.63,99.06-103.06,33.8,29.84,68.58,60.42,103.2,91.09,2.44,34.5.46,68.58,2.41,102.94-.09,67,3.13,134.16,1.08,200.74q63.36,0,126.55-2.31-2.8,17-5.93,34.05-83.76,4.81-167.58,4.54-65-.06-129.92-3.15-23.88-1.14-47.76-2.69-15.25-51.35-28.31-102.51,5.43,5,10.82,10.1,15.28-3.43,30.76-7C751.72,342.1,730.73,322.21,709.56,302.63Z"/><path class="cls-14" d="M788.7,290.11q6.25,87.15,19,173.91,65,3.07,130,3.11-1.14-89.41-2.48-179.32Q861.82,289.2,788.7,290.11Z"/><path class="cls-15" d="M751.36,294.65q13.79-15.81,28.29-31.89,79.42.09,158.85.09,12.69,14.6,25.07,29.16Q857.29,293.9,751.36,294.65Z"/><path class="cls-16" d="M846.89,465.48q-34.59,13.39-66.66,25.38c46.91,3.77,85,4.47,131.7,5.39,0-9.28,2.7-19-.47-29.35Q879.17,466.56,846.89,465.48Z"/><path class="cls-17" d="M877.21,19.16C968.73,8.46,1059.57,1.6,1149.47,0,1202.2,37.84,1255.79,75.41,1308,111.15c-80.57,19.35-162.82,44.15-244.46,71-32.39-26-65.48-52.36-98.49-78.48C935.43,75.2,905.86,46.88,877.21,19.16Z"/><path class="cls-3" d="M1047.61,191.24q8-4.57,15.94-9.12c81.64-26.83,163.89-51.62,244.46-71q-6.67,3-13.38,6.14C1213,137.78,1129.89,163.6,1047.61,191.24Z"/><path class="cls-18" d="M1037.53,15.83q31-2.67,61.77-4.61c21.57,3.23,44.79,7.09,66.44,10.72-15.72,1.19-33.09,2.13-48.89,3.64Q1077.12,20.25,1037.53,15.83Z"/><path class="cls-19" d="M1095.25,111.93q26.18-6,52.27-11.61c6.6-22.8,8.69-45.75,14.13-68.25-19.89.9-35.82,2.33-55.79,3.68Q1101.3,73.76,1095.25,111.93Z"/><path class="cls-3" d="M1110.17,428.83c51.28-43.28,64.78-70.15,121.29-124.45-.22,8.73-.22,3.67-.22,13.8-43,52.33-76,98.28-127,144.71Q1107.37,445.87,1110.17,428.83Z"/><path class="cls-20" d="M1035.76,219.83c32.35-12,64.94-23.76,97.59-35.09q-.4,13.33-1,26.64c-32.74,13.32-65.32,27.07-97.52,41Q1035.37,236.1,1035.76,219.83Z"/><path class="cls-21" d="M1015.2,213.13c34.69-12.41,69.64-24.59,104.64-36.28,0,0,13.84-3.6,13.51,8-18.59,6.39-98.51,35.18-98.4,35.33S1029.82,210.87,1015.2,213.13Z"/><path class="cls-22" d="M1044,64.47q3.21-17.51,6.19-35,29.1,2.94,58.25,6.37-4.7,38-10.92,76.15Q1070.85,88.33,1044,64.47Z"/><path class="cls-23" d="M1028.51,414.16c29.42-21.16,60.17-42.39,91.76-63.35Q1128.7,281,1131.81,211c-32.73,13.32-65.32,27.07-97.52,41Q1033.28,333.3,1028.51,414.16Z"/><path class="cls-24" d="M1034.83,252.37c32.2-13.92,64.79-27.67,97.52-41,36.16,14.51,71.81,28.74,106.65,42.35q-31.81,19.92-63.35,40.73C1129.77,281.08,1082.7,266.85,1034.83,252.37Z"/><path d="M1039.79,360.77c33.42-26.26,68.22-52.43,103.56-78-35.15,22.79-69.75,46.13-103.15,69.56Q1040,356.57,1039.79,360.77Z"/><path class="cls-25" d="M1034.5,27.42s-8-7.26,3-11.59c14.46,1,79.3,9.58,79.33,9.75,0,0,6.95,4.91-.6,10.68l-10.06-.53q-29.15-3.4-58.25-6.33Z"/><path class="cls-26" d="M1116.26,36.26s7.53-5.7-.52-10.74c15.51-1.51,49.71-3.62,49.7-3.56,1.89-.23,9.27,6.9.71,10.59C1154,33.08,1116.27,36.19,1116.26,36.26Z"/><path class="cls-27" d="M1034.74,269.22c.09-5.54-.06-11.34,0-16.88,47.9,14.5,92,28,138,41.41q-11.1,6.87-22.13,13.81C1111.79,295,1075.24,282.73,1034.74,269.22Z"/><path class="cls-3" d="M778,153.42c39.75-34.29,80.52-69.17,120.65-103.67q-10.58-10.84-21-21.6C842,65.33,805.77,102.69,770.52,139.42Q774.23,146.41,778,153.42Z"/><path class="cls-28" d="M876.93,36.38C831.65,84,785.42,131.86,741.74,178.32q-10.25-3.6-20.5-7.13c50.5-49.6,104-101,156-152,60.68,53.29,125,109.14,186.32,163.73q-8,4.16-15.92,8.34C991.58,139.59,932.87,87,876.93,36.38Z"/><path class="cls-3" d="M730.56,358.32q13.62.43,27.24.8Q768,410.79,780.41,462.52q-10.92-.25-21.83-.59Q743.41,410,730.56,358.32Z"/><path class="cls-29" d="M670.44,267.77q19.71-5.85,39.68-11.88c25.78,30.57,51.73,61.78,77,93.3q-7.23,6.72-14.27,13.36C739.52,330.33,705,298.54,670.44,267.77Z"/><path class="cls-30" d="M626.52,368.12q-14.82-8.29-29.81-16.44c21.89-26.74,47-55,74.25-84.28,34.17,30.76,68.33,62.55,101.3,94.76Q756,365.91,740,369.5c-20.3-23.19-41-46.14-61.69-68.69C659.41,324,642,346.45,626.52,368.12Z"/><path class="cls-31" d="M779.1,262.76l22.82-6.9,149.3,0-12.17,7Q859.07,262.85,779.1,262.76Z"/><path class="cls-32" d="M963,292.42q5.51-5.45,11.07-10.9-11.3-12.82-22.87-25.68l-12.17,7Q951.18,277.65,963,292.42Z"/><path class="cls-33" d="M1062,449.59s.48-1.56,4.22-1.26c11.27.88,15.26,15.8,8.52,19.32-3.57,1.86-4.28,2.22-5.43,2.07S1067.4,457,1067.4,457Z"/><path class="cls-34" d="M1054.14,450.49s1-1.84-4.36-1.13c-11.31,1.51-14.75,18.1-4.73,20,5.25,1,3.94-8.76,3.94-8.76Z"/><path class="cls-35" d="M1042.86,466c-.3,2.21.66,4.08,3.7,4.56a15.71,15.71,0,0,0,6.27-.54l3-17.62a3.47,3.47,0,0,0-2.78-1.09c-1.86.07-4.41.57-5.28,2.91S1043.16,463.82,1042.86,466Z"/><path class="cls-36" d="M1059.86,452.87a5.38,5.38,0,0,1,3.16-2.32,5.15,5.15,0,0,1,5.1,1.5c1.52,1.54,6.26,11.86,5.29,14.9s-4.68,3.28-5.39,3.41-4,.16-5.52-1.39S1059.86,452.87,1059.86,452.87Z"/><path class="cls-37" d="M1055.37,445.69c.14,2.5-1.56,3.26-4,3.45.43.07,3.1.76,2.21,2.17a3.42,3.42,0,0,1,1.76.73,8.43,8.43,0,0,1,5.57-.32c.13.19.37-.69,1.94-1.18-.77-.73-.87-1.11-.24-1.69-.74-.37-1.67-.48-2.82-2.94s2.5-3.83.21-3.84S1055.33,445,1055.37,445.69Z"/><path class="cls-38" d="M1042.11,467c.24,1-2-1.62-2.4-3.09-1-3.64-.48-6.27,5.09-11.42a12.08,12.08,0,0,1,4.81-2.24c.7-.23-1.91,1.52-2.73,2.41-3.57,3.89-7.07,3.39-6,10A22.43,22.43,0,0,0,1042.11,467Z"/><path class="cls-39" d="M1051,453.87c-1.34.64-6.47,11.45-4.38,13.47,1.93,1.87,2.65,1.2,2.83,1.89s-1.35,1.35-3,.72-3.43-2.37-2.27-4.71,4.14-10.26,4.5-11.48a2.34,2.34,0,0,1,2.5-1.4C1051.89,452.43,1051.64,453.54,1051,453.87Z"/><path class="cls-40" d="M1064.62,451c3.39.34,10,11.46,7.72,16.05-1.38,2.84-4.3,2.37-4.88,2.39s-2.62-.8-.53-1.78,3.87-1.2,4.16-3.71c.26-2.33-.11-2-1.12-4.56-.84-2.13-2.22-5.06-3.7-5.81s-2.91-.79-3.1-1.68S1063.9,450.91,1064.62,451Z"/><path class="cls-41" d="M1065.9,449.48c1.59.24,2.22.5,4.73,2.52,3.38,2.72,5.87,7.47,6,10.32.06,2-1.72,3.5-2.52,4.53s1.08-.38,2.28-1.93,1.25-2,1.13-4.22c-.09-1.58-2.67-7-4.63-8.74-.71-.63-2.7-3.35-6.55-3.1S1065.9,449.48,1065.9,449.48Z"/><path class="cls-42" d="M1059.74,451.56c-1.07-.7-1.51-.88-1.32-2.59s-.25-2-.13-2.87a4.49,4.49,0,0,1,.91-2.94c.47-.65-1.13,1-1.46,2.57s-.89,3.31-.55,4.19a9.25,9.25,0,0,0,.78,1.65,5.94,5.94,0,0,1,1.34.28A3.14,3.14,0,0,1,1059.74,451.56Z"/><path class="cls-43" d="M1062.46,450.67s-2.1-.37-2.27-1-.44-3.4-.87-4.57c-.27-.73.44-1.73.44-1.73a1.78,1.78,0,0,0-.64,1.34,44.14,44.14,0,0,1,0,4.5c-.11.6.79,1.8,2.06,2.17A3.14,3.14,0,0,1,1062.46,450.67Z"/><path class="cls-44" d="M1054.08,451.35a5.47,5.47,0,0,0,2-3,14.3,14.3,0,0,1,.67-3.92c.34-.78,3.64-2.12,3.64-2.12a6.14,6.14,0,0,0-3.85,6.52c.21,2.92-1.6,2.86-1.6,2.86Z"/><path class="cls-45" d="M1055.47,446.14s1.11,2-2.07,3.88a2.82,2.82,0,0,0-1.77-.83C1055.19,448.85,1055.4,447.46,1055.47,446.14Z"/><path class="cls-46" d="M1061.88,449.88a1.88,1.88,0,0,1-1-.8,16.57,16.57,0,0,1-1.11-3.11,16.17,16.17,0,0,0,1.2,2.2c.3.29.24.44,1.31.79Z"/><path class="cls-47" d="M1058.49,451.42c.86-.05,3.6.36,4.22,1.24a28.73,28.73,0,0,1,2.79,11.19c0,4.4-.52,5.92-1.62,6.66s-10.65,1.62-12.17.07-.82-6.77-.49-8.58,1.21-6.45,2.13-7.78S1054.21,451.69,1058.49,451.42Z"/><path class="cls-48" d="M1052.59,464.61c.47.78.64,3.68,4.38,4s4.81-1,5.85-2.93,1.41-2.86,1.34-1.55,1.64,6.14-4.08,6.36-7.62-.5-8-2.69A3.82,3.82,0,0,1,1052.59,464.61Z"/><path class="cls-49" d="M1054.42,458.06c-.34-.61-.93-5.87,3.67-6s4.76,4,4.5,5.38-.86-4.6-4.43-4.32S1055,459.1,1054.42,458.06Z"/><path class="cls-50" d="M837.38,374.7Q841,420.39,845.82,466q-15.08,5.76-29.69,11.26-7.63-43.06-14-86.17Z"/><path class="cls-51" d="M1026.9,399.54s.57-2,5.74-1.84c15.33.41,24.34,20.6,16.12,23.81-5.76,2.25-8.73,2.53-10.34,2.41s-3.49-15.61-3.49-15.61Z"/><path class="cls-52" d="M1016.17,401.18s1-2.6-6.1-1.11c-16.1,3.38-22.06,27.14-5.1,25,8.07-1,4.81-11.08,4.81-11.08Z"/><path class="cls-53" d="M1001.71,421.13c-.26,2.75,1.21,5,5.43,5.39a24,24,0,0,0,8.61-1.09l2.88-22a5.08,5.08,0,0,0-3.92-1.17c-2.56.21-6,1-7.07,3.94S1002,418.38,1001.71,421.13Z"/><path class="cls-54" d="M1024.23,403.74a7.24,7.24,0,0,1,4.2-3.08,7.7,7.7,0,0,1,7.14,1.52c2.21,1.8,9.49,14.24,8.36,18.06s-6.22,4.37-7.19,4.57-5.51.46-7.72-1.35S1024.23,403.74,1024.23,403.74Z"/><path class="cls-55" d="M1014.15,393.58c.17-.26,1.15-.34,1.77-.15a2.39,2.39,0,0,1,1.6,1.73c.38,3.08-1.92,4.13-5.23,4.53.6.06,4.33.73,3.21,2.53a5.08,5.08,0,0,1,2.48.79,12.86,12.86,0,0,1,7.66-.76c.19.23.46-.88,2.59-1.58-1.11-.86-1.29-1.31-.45-2.07-1-.41-2.34-.49-4.1-3.45s-6.25-4-9.41-3.81S1014,393.85,1014.15,393.58Z"/><path class="cls-56" d="M1000,423.94c.41,1.25-3.11-1.38-3.76-3.16-1.62-4.44-.09-9.82,7.22-16.56,2.1-1.94,5.53-2.76,6.48-3.08s-2.53,2-3.59,3.15c-4.65,5-9.69,7.7-7.81,15.8A13.33,13.33,0,0,0,1000,423.94Z"/><path class="cls-57" d="M1012,405.56c-1.8.88-8.11,14.57-5.09,16.94,2.79,2.19,3.74,1.3,4,2.15s-1.77,1.76-4,1.08-4.9-2.7-3.47-5.67,5-13,5.39-14.48,2.35-1.93,3.35-1.89S1012.94,405.11,1012,405.56Z"/><path class="cls-58" d="M1030.67,401.09c4.71.19,14.56,13.5,11.8,19.33-1.71,3.6-5.77,3.21-6.56,3.28s-3.68-.81-.86-2.16,5.25-1.74,5.47-4.86c.2-2.9-.3-2.46-1.87-5.56-1.31-2.58-3.43-6.11-5.52-6.93s-4.07-.78-4.4-1.87S1029.67,401.05,1030.67,401.09Z"/><path class="cls-59" d="M1032.32,399.15c2.21.19,3.1.47,6.7,2.8,4.85,3.14,8.63,8.85,9,12.36.23,2.47-2,5.94-3,7.26s2.16-.18,3.71-2.17a7,7,0,0,0,1.75-6c-.24-1.94-5.54-9.6-8.37-11.6-1-.73-4-4-9.26-3.39S1032.32,399.15,1032.32,399.15Z"/><path class="cls-60" d="M1024,402.13c-1.52-.79-2.14-1-2-3.11s.49-2.52.17-3.49-2.57-3-3.52-3.62,2.95,2.18,2.6,4.19-1.41,3.1-.88,4.17a11.12,11.12,0,0,0,1.19,2,9.09,9.09,0,0,1,1.87.26A4.34,4.34,0,0,1,1024,402.13Z"/><path class="cls-61" d="M1027.66,400.85s-2.93-.32-3.21-1-.37-4.45-1.57-5.52a9.76,9.76,0,0,0-1.74-1.22s1.69,1.66,1.81,2.64a19.26,19.26,0,0,1,0,3.6c-.11.75,1.22,2.18,3,2.55A4.42,4.42,0,0,1,1027.66,400.85Z"/><path class="cls-62" d="M1016.14,402.24s2.42-1.82,2.57-3.82a5.3,5.3,0,0,0-1.18-3.94c-.49-.47-.91-.92-.91-.92a5.87,5.87,0,0,1,2.75,5.42c-.35,3.63-2,3.64-2,3.64Z"/><path class="cls-63" d="M1017.69,395.71s1.68,2.34-2.58,4.93a4.13,4.13,0,0,0-2.5-.91C1017.5,399.08,1017.69,397.35,1017.69,395.71Z"/><path class="cls-64" d="M1026.81,399.91a2.64,2.64,0,0,1-1.47-.93,19.32,19.32,0,0,1-1.75-3.77,19.71,19.71,0,0,0,1.81,2.64c.44.34.36.53,1.86.89Z"/><path class="cls-65" d="M1022.24,402c1.18-.12,5,.21,5.92,1.25s4.38,8.21,4.65,13.65-.3,7.35-1.76,8.34-14.58,2.7-16.78.9-1.61-8.31-1.29-10.57,1.2-8,2.39-9.76S1016.35,402.65,1022.24,402Z"/><path class="cls-66" d="M1015,418.72c.71.93,1.15,4.5,6.34,4.69s6.57-1.54,7.86-4,1.74-3.62,1.74-2,2.7,7.48-5.17,8.13-10.55-.12-11.27-2.79S1015,418.72,1015,418.72Z"/><path class="cls-67" d="M988.51,450.75s.69-1.49,5.19-1.07c13.57,1.28,17.36,15.9,9,19.06-4.44,1.67-5.33,2-6.71,1.8s-1.39-12.42-1.39-12.42Z"/><path class="cls-68" d="M979,451.34s1.33-1.75-5.19-1.26c-13.78,1-19.09,17-7.1,19.21,6.28,1.16,5.37-8.35,5.37-8.35Z"/><path class="cls-69" d="M964.27,466c-.52,2.13.52,4,4.16,4.56a23.67,23.67,0,0,0,7.62-.29l4.85-17a4.49,4.49,0,0,0-3.29-1.16c-2.25,0-5.37.39-6.58,2.62S964.79,463.85,964.27,466Z"/><path class="cls-70" d="M985.74,453.86a6.79,6.79,0,0,1,4-2.13,7.07,7.07,0,0,1,6.06,1.65c1.73,1.55,6.75,11.74,5.37,14.65s-5.89,3-6.75,3.11-4.85,0-6.58-1.55S985.74,453.86,985.74,453.86Z"/><path class="cls-71" d="M980.8,446.73c0,2.43-2.11,3.1-5,3.2.52.09,3.7.85,2.53,2.19a4.57,4.57,0,0,1,2.08.78,12.62,12.62,0,0,1,6.75-.1c.14.19.49-.66,2.42-1.07-.88-.74-1-1.11-.17-1.65a4.9,4.9,0,0,1-3.2-3c-1.21-2.43,3.29-3.63.52-3.72S980.8,446,980.8,446.73Z"/><path class="cls-72" d="M963.3,466.86c.22,1-2.31-1.65-2.69-3.09-.94-3.57-.14-6.1,6.94-10.88,2-1.38,5.11-1.8,6-2s-2.42,1.4-3.46,2.23c-4.59,3.64-8.79,3-8,9.47A18.07,18.07,0,0,0,963.3,466.86Z"/><path class="cls-73" d="M974.92,454.49c-1.67.57-8.61,10.86-6.23,12.91,2.2,1.89,3.12,1.26,3.29,1.94s-1.73,1.26-3.64.58-4-2.43-2.42-4.66,5.71-9.8,6.23-11,2.25-1.36,3.12-1.26S975.75,454.2,974.92,454.49Z"/><path class="cls-74" d="M991.63,452.21c4.08.46,11.25,11.49,8.23,15.87-1.87,2.7-5.37,2.13-6.06,2.13s-3.12-.87-.52-1.75,4.76-1,5.28-3.45c.48-2.25,0-1.94-1-4.46-.86-2.1-2.34-5-4.07-5.77s-3.46-.87-3.64-1.75S990.76,452.11,991.63,452.21Z"/><path class="cls-75" d="M993.27,450.8c1.9.29,2.65.57,5.54,2.62,3.9,2.77,6.58,7.47,6.49,10.24-.06,1.94-2.32,3.33-3.36,4.3s1.33-.33,2.89-1.78,1.65-1.91,1.65-4c0-1.53-2.74-6.91-5-8.65a10.29,10.29,0,0,0-7.71-3.25C989.12,450.32,993.27,450.8,993.27,450.8Z"/><path class="cls-76" d="M985.68,452.59c-1.24-.72-1.76-.91-1.42-2.56s-.16-1.93,0-2.79a3.92,3.92,0,0,1,1.3-2.82c.62-.61-1.43.88-1.95,2.43s-1.3,3.18-1,4a8,8,0,0,0,.83,1.63,8.55,8.55,0,0,1,1.6.33A4.17,4.17,0,0,1,985.68,452.59Z"/><path class="cls-77" d="M989,451.82s-2.52-.44-2.68-1a39.2,39.2,0,0,0-.73-4.46c-.27-.72.65-1.66.65-1.66a1.75,1.75,0,0,0-.87,1.28,34.52,34.52,0,0,1-.26,4.36c-.17.58.83,1.78,2.34,2.18A4.28,4.28,0,0,1,989,451.82Z"/><path class="cls-78" d="M978.85,452.16s2.3-1.26,2.65-2.82a11.78,11.78,0,0,1,1.08-3.78c.47-.74,4.55-1.92,4.55-1.92-.65.26-5.2,1.41-5.11,6.18.05,2.84-2.13,2.72-2.13,2.72Z"/><path class="cls-79" d="M980.89,447.16s1.21,1.94-2.77,3.69A3.64,3.64,0,0,0,976,450C980.37,449.78,980.72,448.44,980.89,447.16Z"/><path class="cls-80" d="M988.39,451a2.22,2.22,0,0,1-1.18-.82,13.55,13.55,0,0,1-1.13-3.06,14.25,14.25,0,0,0,1.3,2.18c.35.29.26.44,1.53.82Z"/><path class="cls-81" d="M984.18,452.4c1,0,4.33.49,5,1.36a23,23,0,0,1,2.6,11c-.35,4.27-1,5.73-2.42,6.4s-13,1.16-14.72-.39-.52-6.6,0-8.35,1.9-6.21,3.12-7.47S979,452.5,984.18,452.4Z"/><path class="cls-82" d="M976.13,465c.52.78.52,3.59,5,4.08s5.89-.78,7.27-2.62,1.9-2.72,1.73-1.46,1.56,6-5.37,6-9.18-.78-9.52-2.91A3.28,3.28,0,0,1,976.13,465Z"/><path class="cls-83" d="M978.8,458.69c-.36-.61-.72-5.73,4.86-5.66s5.48,4.08,5.06,5.39-.72-4.5-5.06-4.36S979.42,459.72,978.8,458.69Z"/><path class="cls-84" d="M1025.17,447c0,.08.51-2.35,5.18-2.53,7.13.1,11.66,7.16,13.34,13.16,1.73,6.23.61,11.4-2.46,12.91-4.46,1.86-6.56,2-7.73,1.74s-1.81-16.61-1.81-16.61A74.63,74.63,0,0,0,1025.17,447Z"/><path class="cls-85" d="M1025.17,447c0,.08.51-2.35,5.18-2.53,7.13.1,11.66,7.16,13.34,13.16,1.73,6.23.61,11.4-2.46,12.91-4.46,1.86-6.56,2-7.73,1.74s-1.81-16.61-1.81-16.61A74.63,74.63,0,0,0,1025.17,447Z"/><path class="cls-86" d="M1018.13,448c0,.14,1.39-2.43-5.2-2.82-7.79.17-12.67,8.09-13.85,14.36-1.22,6.52,1.25,11.39,7.18,11.29,5.84-.51,4.68-11.26,4.63-11.29A76.81,76.81,0,0,1,1018.13,448Z"/><path class="cls-85" d="M1018.13,448c0,.14,1.39-2.43-5.2-2.82-7.79.17-12.67,8.09-13.85,14.36-1.22,6.52,1.25,11.39,7.18,11.29,5.84-.51,4.68-11.26,4.63-11.29A76.81,76.81,0,0,1,1018.13,448Z"/><path class="cls-87" d="M1004.17,466.69c-.23,2.78.88,5.05,3.91,5.78a12.66,12.66,0,0,0,6.32-.52,213.32,213.32,0,0,1,5.38-21.44,5,5,0,0,0-3.27-2.32c-2.32-.51-5.61-.08-6.76,3C1008.45,454.22,1004.28,464,1004.17,466.69Z"/><path class="cls-85" d="M1004.17,466.69c-.23,2.78.88,5.05,3.91,5.78a12.66,12.66,0,0,0,6.32-.52,213.32,213.32,0,0,1,5.38-21.44,5,5,0,0,0-3.27-2.32c-2.32-.51-5.61-.08-6.76,3C1008.45,454.22,1004.28,464,1004.17,466.69Z"/><path class="cls-88" d="M1022.93,451s1.36-2.87,3.86-3.63a5.37,5.37,0,0,1,6.28,2.06c2,2.35,6,16.13,4.44,19.52-1.39,3.62-5.07,3.93-5.79,4.05s-4,.07-5.55-1.9S1022.93,451,1022.93,451Z"/><path class="cls-85" d="M1022.93,451s1.36-2.87,3.86-3.63a5.37,5.37,0,0,1,6.28,2.06c2,2.35,6,16.13,4.44,19.52-1.39,3.62-5.07,3.93-5.79,4.05s-4,.07-5.55-1.9S1022.93,451,1022.93,451Z"/><path class="cls-89" d="M1016,439.72c.15-.29,1-.43,1.55-.22a2.25,2.25,0,0,1,1.29,1.9c.11,3.37-1.75,4.35-4.3,4.78.49,0,3.36.84,2.48,2.72a3.09,3.09,0,0,1,1.8,1,6.47,6.47,0,0,1,5.59-.22c.1.26.46-.9,2.16-1.37-.64-1-.71-1.47.07-2.09-.73-.58-1.66-.81-2.64-4.19s-5-5.25-7.85-4.74S1015.84,440,1016,439.72Z"/><path class="cls-90" d="M1016,439.72c.15-.29,1-.43,1.55-.22a2.25,2.25,0,0,1,1.29,1.9c.11,3.37-1.75,4.35-4.3,4.78.49,0,3.36.84,2.48,2.72a3.09,3.09,0,0,1,1.8,1,6.47,6.47,0,0,1,5.59-.22c.1.26.46-.9,2.16-1.37-.64-1-.71-1.47.07-2.09-.73-.58-1.66-.81-2.64-4.19s-5-5.25-7.85-4.74S1015.84,440,1016,439.72Z"/><path class="cls-91" d="M1002.5,469.37c.26,1.32-2.21-1.64-2.7-3.43a13,13,0,0,1,.38-7.59,21.67,21.67,0,0,1,6.55-9.32c2.08-1.81,5.28-1.62,6.16-1.53s-2.55,1-3.62,2.09c-4.78,4.18-8.93,7.44-7.72,15.72A19.36,19.36,0,0,0,1002.5,469.37Z"/><path class="cls-92" d="M1013.89,451.84c-2-.13-8.28,13.88-5.88,16.49,1.94,2.42,2.67,1.6,2.83,2.48s-1.42,1.7-3,.85a4.65,4.65,0,0,1-2.33-6c1.07-3.08,4.94-13.3,5.6-14.62.54-1.5,2.35-1.43,3.22-1S1014.73,451.69,1013.89,451.84Z"/><path class="cls-93" d="M1028.6,448.41c2.14-.26,5.13,3.88,6.86,8.4s2.35,9.54,1,12.19a4.65,4.65,0,0,1-5.1,2.86c-.56,0-2.64-1.06-.49-2.29s4-1.43,4.57-4.54c.49-2.88.07-2.5-.86-5.86-.77-2.79-2.24-6.74-4-7.63s-3.52-.57-3.75-1.64S1027.71,448.44,1028.6,448.41Z"/><path class="cls-94" d="M1029.87,446.61c1.94,0,2.77.18,5.75,2.81,4,3.72,6.24,10.33,6,13.81-.17,2.48-2.22,5.82-3.08,7.15s1.55-.06,2.95-1.94a9,9,0,0,0,2.16-5.78c.19-1.83-3-10.58-5.34-13.11-.78-.82-3.12-4.88-8-3.82C1025.62,447.07,1029.87,446.6,1029.87,446.61Z"/><path class="cls-95" d="M1023.3,449.44c-1-.89-1.49-1.15-1.18-3.29s.65-2.47.49-3.49a8.08,8.08,0,0,0-2.74-3.84c-.79-.67,2.45,2.11,1.91,4.29-.49,2-1.37,3.12-1,4.22a15.7,15.7,0,0,0,.76,2.09,4.84,4.84,0,0,1,1.33.38A3,3,0,0,1,1023.3,449.44Z"/><path class="cls-96" d="M1026.37,448.46s-2.12-.58-2.29-1.34.09-4.66-.88-5.8a4.39,4.39,0,0,0-1.46-1.12,5.34,5.34,0,0,1,1.43,2.6,28.37,28.37,0,0,1-.18,3.73,3.47,3.47,0,0,0,2.05,2.81A2.89,2.89,0,0,1,1026.37,448.46Z"/><path class="cls-97" d="M1017.28,449a8.62,8.62,0,0,0,2.26-3.7,6.13,6.13,0,0,0-.56-4.14c-.38-.56-.72-1-.72-1A6.17,6.17,0,0,1,1020,446c-.71,3.51-1.83,3.53-1.84,3.5Z"/><path class="cls-98" d="M1019.2,442.59c.12.18.65,2.29-2.72,4.74a2.45,2.45,0,0,0-1.85-1.09C1018.34,445.66,1018.89,444.21,1019.2,442.59Z"/><path class="cls-99" d="M1025.88,447.49s-.53-.17-1-1.06-1.23-3.9-1.24-3.86,1.08,2.27,1.38,2.7a2.61,2.61,0,0,0,1.35,1.12C1026.2,446.74,1026,447.11,1025.88,447.49Z"/><path class="cls-100" d="M1022.22,447.9c1.09,0,4.49,1.15,5.13,2.49s2.43,9.22,1.71,14.48-1.35,7.19-2.55,8.09-10.69,1.74-12.3-.24-1.16-8.44-.83-10.82,1.21-8.42,2.36-10.29S1016.8,447.93,1022.22,447.9Z"/><path class="cls-85" d="M1022.22,447.9c1.09,0,4.49,1.15,5.13,2.49s2.43,9.22,1.71,14.48-1.35,7.19-2.55,8.09-10.69,1.74-12.3-.24-1.16-8.44-.83-10.82,1.21-8.42,2.36-10.29S1016.8,447.93,1022.22,447.9Z"/><path class="cls-101" d="M1014.19,465c.67.93,1.34,4.52,5.34,5.1s5.23-1.11,6.9-3.38,2.44-3,2-1.52c-.36,1.68-.12,7.44-5.75,7.66-5.68,0-7.71-1-8.58-3.64A5.23,5.23,0,0,1,1014.19,465Z"/></g></g></svg>