<svg xmlns="http://www.w3.org/2000/svg" xmlns:xlink="http://www.w3.org/1999/xlink" viewBox="0 0 632.86 138.29"><defs><style>.cls-1{fill:#444343;}.cls-2{fill:#442928;stroke-width:0.86px;}.cls-2,.cls-3,.cls-4,.cls-5,.cls-6{stroke:#333;stroke-miterlimit:10;}.cls-3,.cls-4,.cls-5,.cls-6{stroke-width:0.2px;}.cls-3{fill:url(#radial-gradient);}.cls-4{fill:url(#radial-gradient-2);}.cls-5{fill:url(#radial-gradient-3);}.cls-6{fill:url(#radial-gradient-4);}</style><radialGradient id="radial-gradient" cx="602.16" cy="130.1" r="3.95" gradientUnits="userSpaceOnUse"><stop offset="0" stop-color="#6e6e6e"/><stop offset="1" stop-color="#393939"/></radialGradient><radialGradient id="radial-gradient-2" cx="602.16" cy="9.1" r="3.95" xlink:href="#radial-gradient"/><radialGradient id="radial-gradient-3" cx="18.16" cy="11.1" r="3.95" xlink:href="#radial-gradient"/><radialGradient id="radial-gradient-4" cx="18.16" cy="129.1" r="3.95" xlink:href="#radial-gradient"/></defs><title>page2ledge</title><g id="Layer_2" data-name="Layer 2"><g id="pics"><polygon class="cls-1" points="594.2 58.03 594.2 138.29 610.78 138.29 610.78 0 594.2 0 594.2 58.03"/><polygon class="cls-1" points="10.11 58.03 10.11 138.29 26.69 138.29 26.69 58.03 26.69 2.47 10.11 2.47 10.11 58.03"/><polygon class="cls-2" points="10.57 58.65 0.43 45.07 0.43 32.54 632.43 36.24 632.43 45.07 610.78 59.27 594.66 58.65 605.72 48.77 21.62 50.01 26.23 58.65 10.57 58.65"/><circle class="cls-3" cx="602.16" cy="130.1" r="3.95"/><circle class="cls-4" cx="602.16" cy="9.1" r="3.95"/><circle class="cls-5" cx="18.16" cy="11.1" r="3.95"/><circle class="cls-6" cx="18.16" cy="129.1" r="3.95"/></g></g></svg>