<svg xmlns="http://www.w3.org/2000/svg" xmlns:xlink="http://www.w3.org/1999/xlink" viewBox="0 0 164.41 202.6"><defs><style>.cls-1{fill:url(#linear-gradient);}.cls-2{fill:url(#linear-gradient-2);}.cls-3{fill:url(#linear-gradient-3);}</style><linearGradient id="linear-gradient" x1="82.63" y1="3.4" x2="81.1" y2="199.64" gradientUnits="userSpaceOnUse"><stop offset="0" stop-color="#fff" stop-opacity="0.6"/><stop offset="0.08" stop-color="#fff" stop-opacity="0.53"/><stop offset="0.4" stop-color="#fff" stop-opacity="0.31"/><stop offset="0.67" stop-color="#fff" stop-opacity="0.14"/><stop offset="0.88" stop-color="#fff" stop-opacity="0.04"/><stop offset="1" stop-color="#fff" stop-opacity="0"/></linearGradient><linearGradient id="linear-gradient-2" x1="67.14" y1="74.68" x2="66.98" y2="95.8" gradientTransform="translate(-9.55 -42.86) rotate(-5.31)" gradientUnits="userSpaceOnUse"><stop offset="0" stop-opacity="0.6"/><stop offset="1" stop-opacity="0"/></linearGradient><linearGradient id="linear-gradient-3" x1="-1566.03" y1="74.54" x2="-1566.2" y2="95.73" gradientTransform="matrix(-1, 0.09, 0.09, 1, -1475.26, 93.28)" xlink:href="#linear-gradient-2"/></defs><title>page1ghost</title><g id="Layer_2" data-name="Layer 2"><g id="Layer_2-2" data-name="Layer 2"><path class="cls-1" d="M43.77,109.58c-.13-3.33-.66-9.72-1.08-17.82C42.51,88.18,3.85,73.28.22,61.18-3.5,48.8,41.9,68.4,42,65.42,42.56,35.06,48.69,1.94,74,.08c23.47-1.73,39.5,24.55,46.58,62.31,1.81,9.68,39-16.31,43-9.68C171.42,66,122.47,80.9,123,90.22c3,50.82-16.73,104.2-73.2,110.71-66.65,7.69-39.46-12.86-20.57-26.62C44.44,163.25,45,139.83,43.77,109.58Z"/><path class="cls-2" d="M71.46,36.4c4.08,4.28-2.62,10-6.21,10.37S58.32,42.31,57.78,36s.57-12.75,3.35-10.07C65.13,29.76,65.13,29.76,71.46,36.4Z"/><path class="cls-3" d="M85.91,35.14c-3.3,5,4.24,9.29,7.83,8.92s6.07-5.8,5.54-12.12-2.68-12.41-5-9.21C91,27.32,91,27.32,85.91,35.14Z"/></g></g></svg>