<svg xmlns="http://www.w3.org/2000/svg" viewBox="0 0 1421.48 677.11"><defs><style>.cls-1{fill:#300;stroke:#000;stroke-miterlimit:10;stroke-width:0.74px;}</style></defs><title>page3vampcape</title><g id="Layer_2" data-name="Layer 2"><g id="Layer_1-2" data-name="Layer 1"><g id="cape"><path class="cls-1" d="M603.67,184.74c-23,7-75,113.67-41,278,17.23,83.38,87.17,208,45,208h-121c-12,0-232-1-298-1h-109c-28.47,0-42-1.57-55-29-17-36-31.95-27.32-20-100,12-73-4.35-198.61-1.59-242.54S13,135.2,20.82,96.89,48.95,50.34,78.9,53.35s74.72,5.31,83.6,5.26S227.55,61,299.16,84.08,603.67,184.74,603.67,184.74Z"/><path class="cls-1" d="M793.33,177.81s63.12,108.13,25.35,188.92c-16.81,36-103.11,307-36,307,57,0,356,0,385,2,16.75,1.16,169,1,169,1,3.13-5.23,101-67,82-179-20.42-120.48-127-467.94-145.91-488.84C1269.33.51,1260-.4,1243,.79S1062.6,15.22,793.33,177.81Z"/></g></g></g></svg>