<svg xmlns="http://www.w3.org/2000/svg" viewBox="0 0 103.3 60.7"><defs><style>.cls-1,.cls-2{fill:#00394c;}.cls-1{stroke:#000;stroke-miterlimit:10;stroke-width:0.25px;}</style></defs><title>page1cat</title><g id="Layer_2" data-name="Layer 2"><g id="Layer_2-2" data-name="Layer 2"><g id="cat"><path class="cls-1" d="M37.59,38.24s0,4.15,10.36,4.18.81-3.11,20.76-4.1S83.09,30,83.09,30l0-15.56-7.19,4.13H70.35L47.2,24.77Z" transform="translate(0 -0.06)"/><path class="cls-2" d="M73.47,18.39,72,18.15c-7.28-1.47-14.8-2.93-22-.62C44.29,19.39,38.94,23.66,33,24.15c-3.07.25-6.12-.52-9.17-1a48,48,0,0,0-15.54.1c-2.39.41-5,1.16-6.48,3.62C.5,29,.33,32,.59,34.66,1,39.06,2.49,43.38,5,46.33s6.22,4.37,9.51,3.17a5.47,5.47,0,0,0,2.72-2,10.29,10.29,0,0,0,1.32-3.73c.63-3.19.72-7-1.12-9.29A2.1,2.1,0,0,0,16,33.53a1.31,1.31,0,0,0-1.21,1.22,3.56,3.56,0,0,0,.77,2,8,8,0,0,1-1.1,8.72,5,5,0,0,1-7,0A12,12,0,0,1,4.88,42a15.64,15.64,0,0,1-1.6-4.69C2.5,32.2,5.63,26.64,9.63,26.07c2.12-.31,4.22.6,6.29,1.29A31.61,31.61,0,0,0,37,27l1.9-2a13.35,13.35,0,0,0-3.77,7.76,38.11,38.11,0,0,1-.66,5,14.56,14.56,0,0,1-3.15,5.17,31.73,31.73,0,0,0-4.51,6.89A17,17,0,0,0,25.3,58.4,2.78,2.78,0,0,0,26,60.22a1.21,1.21,0,0,0,1.69-.38,5.64,5.64,0,0,0,.88-2.09c.86-3.28,1.47-6.82,3.24-9.41,2.46-3.6,6.45-4.41,9.83-6.38a16.5,16.5,0,0,0,8-14.37" transform="translate(0 -0.06)"/><path d="M73.57,18c-4.79-.8-9.52-2-14.4-2.07-5.66-.1-10.45,1.49-15.47,3.93-2.94,1.43-5.94,3.09-9.2,3.67-4.23.76-8.35-.56-12.51-1-5.13-.6-11.88-.89-16.79,1.17C-2.48,26.91-.25,38.34,3,44.07c2.92,5.14,11.71,9.72,15.18,2.44.93-1.95,2.71-14.32-2.39-13.31-3.2.64.29,6.4.18,7.49-1,10.55-7.65,5.31-10,2.44a12.86,12.86,0,0,1-2.39-7.22,10.35,10.35,0,0,1,1.22-5.15c2.13-4.17,5.11-4.55,9.5-3.59,5.48,1.2,10,2.66,15.79,1.9,2.08-.27,5.34-.59,7.13-1.78.47-.31,2.6-2.24,1.19-1.74-4,1.42-3.24,8.87-4.22,12-1.76,5.68-7.34,9.3-8.8,15.37-.37,1.54-1.7,7.82,1.42,7.81,2.66,0,2.95-6.34,3.44-7.88C32.72,45,38.67,45.26,44,40.71a17.22,17.22,0,0,0,6-13.11.38.38,0,0,0-.75,0c-.15,8.33-5,12.62-11.88,16.05-4.19,2.1-6.43,4.54-7.87,9-.28.88-.71,4.72-1.28,5l-2.6-1a14.26,14.26,0,0,1,.72-4.3c1.21-4.16,3.81-6.89,6.24-10.34,3.71-5.27,2.11-11.84,6.64-16.73.33-.35-.2-.88-.53-.53C31.95,31.78,20.91,27.62,12.89,26c-5.09-1-8.67,2.11-9.8,7.07-1,4.47.92,11.43,5.3,13.64,4.15,2.1,7.72-1.24,8.24-5.3.14-1.08-.41-2.52-.23-3.49l-.55-1.29q3.54-.87,2.76,2.83c.14,2.9-.5,7.55-3.26,9.27-3.47,2.16-7.69,0-10.06-2.64-3.65-4.12-6.57-14-3.18-19s12.63-4.37,17.82-4c4.35.33,8.75,1.83,13.15,1.44,4-.36,7.47-2.27,11-4C54.24,15.61,62.65,17,73.37,18.75c.47.08.68-.64.2-.72Z" transform="translate(0 -0.06)"/><path class="cls-2" d="M76.69,35.22C74,38,66.07,39.43,62.73,40.37a26.92,26.92,0,0,1-3.37.89c-2.84.41-5.66-.77-8.38-1.93l-1.76,0-3.45-1.66a4.78,4.78,0,0,0,2.78,1.47A41.86,41.86,0,0,1,53,40.59a7.92,7.92,0,0,1,4.62,3.67,3.14,3.14,0,0,1,.27,2.41c-.5,1.26-1.73.36-2.76-.1-2.21-1-4.54-1.44-6.66-2.72-2.63-1.6-5.44-2.65-8.24-1.36" transform="translate(0 -0.06)"/><path d="M76.43,35c-4.05,3.54-12.66,5.43-17.92,5.66-3.95.18-8.91-1.55-12.54-3.3-.36-.17-.79.29-.45.59,1.36,1.22,2.7,1.45,4.44,2,1.41.45,3.39.75,4.44,1.74,1.51,1.43,2.45,4.49.17,4.3-5.47-.46-8.57-5.58-14.43-3.81a.38.38,0,0,0,.2.72c6.18-1.87,10,4,15.72,4.57,1.08.1,1.47.61,2.18-.61,2.81-4.84-8.79-8-11-8.4-3.06-.55,1,.93,2.2,1.26,3.09.87,6.7,2.35,10,1.94C64.81,41,72.83,39.1,77,35.49c.36-.32-.17-.85-.53-.53Z" transform="translate(0 -0.06)"/><path class="cls-2" d="M83.1,25.9c.63,2.24.58,3.6,1.58,6.23a13.35,13.35,0,0,0,1.84,3.43,2.07,2.07,0,0,0,1.17.8c4.63,1.61,9.77.65,14.05,3.44a2.13,2.13,0,0,1,1,1.27,2,2,0,0,1-.65,1.84c-.47.39-4.16-.25-4.71-.38-4.79-1-4.42-.06-8.78,0-2.58,0-5.55.1-8-1.06-3-1.42-3.45-2.55-6.37-4.17" transform="translate(0 -0.06)"/><path d="M82.74,26c.77,3.1,1.08,7.43,3.52,9.82,3.76,3.68,10.79,0,13.49,4.89,1.62,2.92.48,1.92-1.72,1.56-.71-.12-1.41-.31-2.13-.41a17.44,17.44,0,0,0-3.93,0c-3.15.25-6.59.69-9.69-.21s-5.2-3.12-7.8-4.69a.38.38,0,0,0-.38.65c2.43,1.46,4.52,3.51,7.22,4.48,3.1,1.11,6.63.92,9.86.63a31.34,31.34,0,0,1,7.5.41c1,.13,2.76.66,3.64.1,2.54-1.62-.51-3.92-1.93-4.6-3.5-1.67-7.53-.82-11-2.19C84.67,34.63,84.51,30,83.46,25.8a.38.38,0,0,0-.72.2Z" transform="translate(0 -0.06)"/><path class="cls-2" d="M101.42,39.43c-4-5.2-7.41-3.09-11-5.26-1.11-.68-4.62-2.47-5.75-3.08l.67,2.59,2.51,2.61S97.44,37.35,101.42,39.43Z" transform="translate(0 -0.06)"/><path d="M101.69,39.17c-2.35-2.82-4.48-3.51-8-4.25-3.14-.66-6-2.65-8.86-4.15a.38.38,0,0,0-.55.42c.56,2.16,1.31,4.41,3.54,5.47,1.24.59,3.43.47,4.8.71a32.9,32.9,0,0,1,8.57,2.39c.43.21.81-.44.38-.65A37.5,37.5,0,0,0,91,36.34c-2.51-.39-3.36-.25-4.93-2.43a4,4,0,0,1-.56-1l-.32-1.25q-.12-1-.26,0c1.62.37,3.4,1.78,4.84,2.57a13.19,13.19,0,0,0,4.09,1.48,11.13,11.13,0,0,1,7.27,4C101.46,40.07,102,39.54,101.69,39.17Z" transform="translate(0 -0.06)"/><path class="cls-2" d="M78.68,23.76A29.16,29.16,0,0,1,73.89,19a5.32,5.32,0,0,1-1.05-1.82,7.25,7.25,0,0,1-.15-2.24L73.2.43a29.44,29.44,0,0,0,3.56,4.82,1.42,1.42,0,0,0,.71.51,1.34,1.34,0,0,0,.64-.11c1.54-.51,3.17-.34,4.73-.75a4.57,4.57,0,0,0,3.44-3.75A66.46,66.46,0,0,1,87.62,12a22.06,22.06,0,0,1-2.15,10.52,6.3,6.3,0,0,1-2.87,3,2.66,2.66,0,0,1-3.37-1.28Z" transform="translate(0 -0.06)"/><path d="M78.95,23.49A33.51,33.51,0,0,1,75.28,20c-2.07-2.33-2.1-4-2.15-6.93,0-2.55-.63-7.57.35-10,.61-1.5-.74-1.56,1.11,0,.61.53,1.15,1.88,1.91,2.32,1.13.67.62.31,1.71.49a11.05,11.05,0,0,0,6.5-1.66C85.48,3.77,86.07,3,86.24,3c1.22.24,1.05,10.52.89,12.17-.18,1.83-.6,5.91-2,7.16-.86.78-5.3,2-6.21,1.12a.38.38,0,0,0-.53.53c3.14,3.11,5.73,2.14,7.7-1.94,3.15-6.52,1.75-14.22.52-21-.07-.38-.62-.33-.72,0C85,3.9,81.53,5.56,78.79,5.12S75,2.54,73.52.24a.38.38,0,0,0-.7.19c-.18,5-1.13,10.69-.51,15.66C72.73,19.46,76,22,78.41,24,78.78,24.33,79.32,23.8,78.95,23.49Z" transform="translate(0 -0.06)"/><path d="M83.12,20.37C87,18.1,91.59,17,94.76,21c.3.38.83-.15.53-.53-3.37-4.29-8.36-3.21-12.55-.78a.38.38,0,0,0,.38.65Z" transform="translate(0 -0.06)"/><path class="cls-2" d="M78.09,20.58a4.62,4.62,0,0,0-1.77-.6,4.55,4.55,0,0,0-2.2.52A19.34,19.34,0,0,0,71,22.36a43.46,43.46,0,0,0-6.24,5.42" transform="translate(0 -0.06)"/><path d="M78.28,20.25c-5-2.26-10.65,4.06-13.78,7.27-.34.35.19.88.53.53,2.73-2.8,8.5-9.14,12.88-7.15.44.2.82-.45.38-.65Z" transform="translate(0 -0.06)"/><path class="cls-2" d="M77.92,20.87a4.8,4.8,0,0,0-4.36,1.58,20.84,20.84,0,0,0-3.15,4.43" transform="translate(0 -0.06)"/><path d="M78,20.51c-3.91-.69-6.24,3.33-7.93,6.18a.38.38,0,0,0,.65.38c1.48-2.5,3.6-6.45,7.08-5.84.47.08.67-.64.2-.72Z" transform="translate(0 -0.06)"/><path class="cls-2" d="M77.83,21.11c-1.37.11-2.56,1.28-3.46,2.62a16.46,16.46,0,0,0-2.59,7.84" transform="translate(0 -0.06)"/><path d="M77.73,20.74c-4.39.84-6,7.11-6.33,10.83,0,.48.7.48.75,0,.32-3.41,1.78-9.34,5.78-10.11.47-.09.27-.81-.2-.72Z" transform="translate(0 -0.06)"/><path d="M83,20.72a9.4,9.4,0,0,1,8,1.7c.39.28.77-.37.38-.65A10.13,10.13,0,0,0,82.78,20a.38.38,0,0,0,.2.72Z" transform="translate(0 -0.06)"/><path d="M84.73,21.55c3.87,1.56,6.56,4.87,8.2,8.62.19.44.84.06.65-.38a16.38,16.38,0,0,0-8.65-9c-.45-.18-.64.54-.2.72Z" transform="translate(0 -0.06)"/></g></g></g></svg>