<svg xmlns="http://www.w3.org/2000/svg" xmlns:xlink="http://www.w3.org/1999/xlink" viewBox="0 0 1714.51 977.78"><defs><style>.cls-1{fill:url(#linear-gradient);}.cls-2{fill:url(#linear-gradient-2);}.cls-3{fill:#151a28;}.cls-4{fill:url(#linear-gradient-3);}.cls-5{fill:#ffff41;}.cls-5,.cls-7{stroke:#000;stroke-miterlimit:10;}.cls-6{fill:url(#linear-gradient-4);}.cls-7{stroke-width:1.06px;}</style><linearGradient id="linear-gradient" x1="776.86" y1="913.53" x2="805.57" y2="671.14" gradientTransform="translate(117.67 -154.83) rotate(12.15)" gradientUnits="userSpaceOnUse"><stop offset="0" stop-color="#4a3d72"/><stop offset="0.04" stop-color="#3f3663"/><stop offset="0.13" stop-color="#302c4d"/><stop offset="0.23" stop-color="#24243c"/><stop offset="0.35" stop-color="#1b1e31"/><stop offset="0.52" stop-color="#161b2a"/><stop offset="1" stop-color="#151a28"/></linearGradient><linearGradient id="linear-gradient-2" x1="823.61" y1="313.99" x2="794.23" y2="779.19" gradientTransform="translate(117.67 -154.83) rotate(12.15)" gradientUnits="userSpaceOnUse"><stop offset="0" stop-color="#4a3d72"/><stop offset="0.22" stop-color="#39325a"/><stop offset="0.52" stop-color="#25253f"/><stop offset="0.8" stop-color="#191d2e"/><stop offset="1" stop-color="#151a28"/></linearGradient><linearGradient id="linear-gradient-3" x1="1210.85" y1="-25.52" x2="756.34" y2="331.2" xlink:href="#linear-gradient-2"/><linearGradient id="linear-gradient-4" x1="523.2" y1="56.71" x2="788.99" y2="415.41" xlink:href="#linear-gradient-2"/></defs><title>page3bat1</title><g id="Layer_2" data-name="Layer 2"><g id="Layer_1-2" data-name="Layer 1"><path class="cls-1" d="M906.18,748.45c-82.82-79.63-225.74-116.25-331-94.68-39.83,8.16-84.92,77.82-48.06,159.44a50.42,50.42,0,0,0-35.7,14.32l-32.72,25.26,45.44-18.45-27.17,30.75,39.4-28.92-5.88,32.72s.8-2.09,9.6-15c9.77-14.32,20.84-24.67,23.18-31.4C675.46,749.11,786,785,834.92,917.19c1.07,7.56,6.87,20,10.58,35s3.77,17.4,3.77,17.4l5.91-32.71L882,977.78l-14.73-38.3,36.14,33.15-22.94-38s-5.73-10.33-19.36-19.09C915.22,884.83,978.37,817.85,906.18,748.45Z"/><path class="cls-2" d="M1373.89,528.38s130.61,12.25,340.62-76c-285.49-101.71-363.29-124-481.45-198.81-115,136.73-182.66,194-222.12,217C989.07,481.52,966,492.43,944,503.1c-14.38-55.32-46.38-96.66-93.39-109C804.47,382,747.49,404,699.19,445.78c-20.09-17.6-40.68-35.36-57.75-52.49C580.8,311.21,512,83.36,512,83.36,325.48,182.92,263.08,182.74,0,194.82c173.42,125.5,306,160.83,306,160.83S240.9,497.08,166.68,519.22c119.54,14.43,214.37-7.13,286.6-42.49-7.94,86.15-20,172.13-11.32,174,0,0,49.93-69.21,136.66-90,11.39-.5,24.12-.55,37.49-.35q-3.39,8.19-6.25,16.6C559,726.56,647.59,755.54,730.67,777.3s179.38,36.94,214.12-129q2-9.63,3.5-19.18a601,601,0,0,1,59.6,18.58c80.83,41.67,111.82,120.69,111.82,120.69,9.18.39,20.39-84.83,35.78-169.18,62.17,52,150.51,96.51,273.12,112.85C1360.87,672.17,1373.89,528.38,1373.89,528.38Z"/><path class="cls-3" d="M181,515.47c-5,1.4-9.92,2.7-14.72,3.87Q173.45,517.7,181,515.47Z"/><path class="cls-3" d="M1161.05,401.27c2.37-1.29,17.94-16.86,22.44-22.32,155.58,104.45,314.78,108.58,530.5,73.37-265.57,21.41-386.49,3.15-519.71-86.46,5.66-7.05,41.17-43.24,46.34-50.69C1369.88,374,1641.27,448.29,1714,452.32c-72.85-26.12-301.44-104.52-481.32-198.67-57.08,24.79-33.52,88.1-236.23,219.88,16.59-17.66,27.92-39,32-63a118.31,118.31,0,0,0-2-48.94c36.89-3.11,72.2-15,100.11-34.22,36-24.76,59.34-61.38,64-100.43,1.42-11.88,1.21-24.11,5.57-35.39,7-18.19,24.89-31.6,42.09-44.18l58.39-42.72c2.58-1.89,5.41-4.4,4.47-7.24-1.06-3.2-6-4.25-10-4.51-20.73-1.4-41.29,1.43-61.26,5.22-85.46,16.19-164.74,50.44-228.3,98.63-24.25,18.38-47.37,41.55-51.16,68.14a227.77,227.77,0,0,0-81.09-30.16A235.24,235.24,0,0,0,822,231.41C823.32,141.84,758.39,49.24,665.94,11,655.72,6.8,644.89,3.14,634,3.4s-21.79,5.26-25.51,14.34c-5,12.12,3.86,25.8,10.23,38.18a115.8,115.8,0,0,1,13.11,54.29c-.29,21.17-6.79,41.56-6.86,62.75-.15,42.86,29.58,85.91,71.18,108.26-18.42,18.3-31,40.88-35.38,66.46a120.42,120.42,0,0,0,6.73,63.88C593.66,327,618.09,372.76,512,83.11,284.8,196.46,218.21,172.74.32,194.78,239.9,230.93,392.14,174,478.71,144.58c12.44,35.33,25.33,67.31,38.45,96.25h0s-192.22,90.4-516.83-46c0,0,285.11,156,526.19,66.1q8.83,18.39,17.74,35h0S319.5,474.84,181,515.47C304.08,481.12,487.24,380,550.74,307.83h0A712.49,712.49,0,0,0,592,373.74S445.61,540.6,442.15,650.44c6.75-23.76,8.85-88.35,157.28-266.39l0,0c35.33,29,78,58.61,94.71,71.46,28.75,33.55,25.15,71.07,102.63,91.09,95,24.54,108.16-20.62,142.9-34.86,18.93-6.49,40.73-7.94,79.13-19.07,60,68.9,100.89,276.24,100.89,276.24-17.59-162.16-82-275.82-86.43-283.55,37.83-19.59,77.2-43.6,113.74-72.54,6,21.78,67.36,225.73,281.65,299.14C1386.11,687,1231.5,640.45,1161.05,401.27Z"/><path class="cls-4" d="M1295.87,104.42l-70.1,14.44c-15.43,3.18-31,6.41-44.86,12.63-18.33,8.24-32.51,21.24-48.64,32.06-30.6,20.53-68,33.12-102,49.81s-66.26,39.48-77,71c0,0-26.51-39.38,68.6-102.2s199.36-88.11,253-89.59S1295.87,104.42,1295.87,104.42Z"/><path class="cls-5" d="M758.9,296c-26.38,21.34-40,75-13.37,91.74,26.11,16.39,75.09-.39,85.13-46.13,7-31.83,9.91-57.09-5.51-66.38C804.81,263,786.25,273.88,758.9,296Z"/><path class="cls-6" d="M743.83,59.3C683.57,4.5,642,0,636.06,0S614.63,5.27,605,16.34c-32.13,36.85-51.57,83.8-52.58,132.54,13.78-4.85,21.31-18.11,33.77-25.14,24.33-13.74,59.09-.41,86.37-9.11,22.1-7,34.82-26.86,47.15-44.76a9.19,9.19,0,0,1,4.45-2.94c10.79,5,18,14.9,23.52,24.68,10.21,18,3.21,26.73,22.6,55.45,18.26,27.06,49.23,80.16,42.22,103.2C861.51,184.09,745.13,60.48,743.83,59.3Z"/><path class="cls-5" d="M958.44,339c9.65,29.18,9.25,79.25-25.56,86-37.37,7.29-65.83-34.19-58.6-74,5.82-32.06,14.47-56.1,32.35-58.23C930.2,290,947.4,305.58,958.44,339Z"/><ellipse class="cls-7" cx="803.76" cy="335.83" rx="19" ry="7" transform="translate(165.74 928.91) rotate(-65.59)"/><ellipse class="cls-7" cx="895.66" cy="355.62" rx="7" ry="19" transform="translate(-0.66 1.66) rotate(-0.11)"/></g></g></svg>