<svg xmlns="http://www.w3.org/2000/svg" xmlns:xlink="http://www.w3.org/1999/xlink" viewBox="0 0 288.92 313.02"><defs><style>.cls-1{stroke:#000;fill:url(#linear-gradient);}.cls-1,.cls-2{stroke-miterlimit:10;}.cls-2{fill:#928c3c;stroke:#6d6731;stroke-width:0.25px;}.cls-3{fill:url(#linear-gradient-2);}.cls-4{fill:url(#linear-gradient-3);}.cls-5{fill:url(#linear-gradient-4);}.cls-6{fill:url(#linear-gradient-5);}.cls-7{fill:url(#linear-gradient-6);}.cls-8{fill:url(#linear-gradient-7);}.cls-9{fill:url(#linear-gradient-8);}.cls-10{fill:url(#linear-gradient-9);}.cls-11{fill:url(#linear-gradient-10);}.cls-12{fill:url(#linear-gradient-11);}</style><linearGradient id="linear-gradient" x1="321.4" y1="196.7" x2="-249.58" y2="202.85" gradientUnits="userSpaceOnUse"><stop offset="0" stop-color="#dc8231"/><stop offset="0.5" stop-color="#f86023"/><stop offset="1" stop-color="#dc8231"/></linearGradient><linearGradient id="linear-gradient-2" x1="130.13" y1="74.65" x2="144.74" y2="74.98" gradientUnits="userSpaceOnUse"><stop offset="0" stop-color="#979440"/><stop offset="0.5" stop-color="#a3a554"/><stop offset="1" stop-color="#979440"/></linearGradient><linearGradient id="linear-gradient-3" x1="116.8" y1="76.43" x2="133.6" y2="78.41" xlink:href="#linear-gradient-2"/><linearGradient id="linear-gradient-4" x1="143.7" y1="87.41" x2="153.71" y2="83.61" xlink:href="#linear-gradient-2"/><linearGradient id="linear-gradient-5" x1="160.65" y1="92.52" x2="170.52" y2="82.66" xlink:href="#linear-gradient-2"/><linearGradient id="linear-gradient-6" x1="111.06" y1="79.06" x2="121.63" y2="87.47" xlink:href="#linear-gradient-2"/><linearGradient id="linear-gradient-7" x1="184.2" y1="47.11" x2="191.91" y2="49.11" xlink:href="#linear-gradient-2"/><linearGradient id="linear-gradient-8" x1="171.96" y1="-4.73" x2="168.67" y2="8.29" xlink:href="#linear-gradient-2"/><linearGradient id="linear-gradient-9" x1="297.29" y1="329.03" x2="296.72" y2="402.41" gradientTransform="translate(-322.17 -44.77) rotate(-25.67)" gradientUnits="userSpaceOnUse"><stop offset="0"/><stop offset="1" stop-opacity="0.3"/></linearGradient><linearGradient id="linear-gradient-10" x1="-3917.88" y1="325.28" x2="-3918.45" y2="398.89" gradientTransform="matrix(-0.95, -0.32, -0.32, 0.95, -3395.71, -1454.15)" xlink:href="#linear-gradient-9"/><linearGradient id="linear-gradient-11" x1="143.92" y1="286.82" x2="146.16" y2="113.38" gradientUnits="userSpaceOnUse"><stop offset="0"/><stop offset="0.56" stop-opacity="0.3"/><stop offset="0.98"/></linearGradient></defs><title>page2pumpkincarved</title><g id="Layer_2" data-name="Layer 2"><g id="pics"><g id="Layer_1-2" data-name="Layer 1"><path class="cls-1" d="M283.79,217.89c-4-11-33-35-34-52s-1-27-4-43-15-34-41-38-30,11-30,11l4.88,10.6c-5.53,1.87-10.17,6.12-13.67,10.35-6.28-2.66-13-4.05-16.21-3.95-10.5.35-17.31,2.05-22.05,4.67a21.85,21.85,0,0,0-11.39-7.15l3.44-8.52s7-18-30-13-42,63-44,68,1,14-13,29-35,42-32,59c2.75,15.58,6.36,33.68,38.52,40.44,3.95,6.79,10.27,11.93,19.48,14.56,12.73,3.64,26.18,1.76,34.81-.28a19.5,19.5,0,0,0,1.19,2.28c10,16,77,11,85,4a20.83,20.83,0,0,0,3.92-4.66c10.21,5.09,21.71,5.33,25.08,4.66,2.5-.5,10.28-1,18.42-5.15,14.59,0,40-4.63,51.58-27.85C293.79,242.89,287.79,228.89,283.79,217.89Z"/><path class="cls-2" d="M159.29,42.39s0,2,3,3,8-2,7-4-6-2-9,0-7,8-7,15c0,25,12.2,31.94,29.1,33-1.1,7-2.09,9.81,2.9,17.92-9,1.11-11.6,3-19.3,11.55-6.7-2.44-16.79-8.13-38.25.71,0,0-5.3-8.16-18.38-7.66-.08-6.5-9.08-13.5-11.08-14.5,5-2,11-5,11-11,5-4,6-1,13-26s29-36,45-37,21,6,21,6,8,7,5,20-20,18-25,18-12-1-14-2C152.29,55.39,153.29,47.39,159.29,42.39Z"/><path class="cls-2" d="M135.8,37.56s-3.51-24.17,27.49-35.17,27,22,10,16c-4-10-14-3-17.18,7.15C156.11,25.54,142.31,29.74,135.8,37.56Z"/><path class="cls-3" d="M125.12,116.77c7.17-7.38,10.17-9.38,8.17-26.38s-4-20-3-28,11.07-25.88,15.5-31.5-13.5,19.5-10.5,35.5,9,24,7,33a115.24,115.24,0,0,1-4.79,16.79c-3.21,1.21-7.32,1.53-9.26,3.37A22.92,22.92,0,0,0,125.12,116.77Z"/><path class="cls-4" d="M108.28,107.78s12-3.38,13-9.39c.93-5.83-.87-36.06,4.5-45.5a61.23,61.23,0,0,1,8-11s-7.5,14.5-7.5,22.5,1,23,2,29-.58,15.68-9.29,19.84a86.72,86.72,0,0,0-9.63-1.46A18.5,18.5,0,0,0,108.28,107.78Z"/><path class="cls-5" d="M169.65,114.88s-18.36-15.49-20.36-31.49,1.35-28.37,3.5-32.5,4-8,4-8-14.5,16.5-10.5,45.5,20,30,20,30Z"/><path class="cls-6" d="M152.79,60.89a45.66,45.66,0,0,0,13.5,35.5,165.9,165.9,0,0,0,13.31,12l5.69-1s-6-8-3-18C175.29,88.39,154.92,89.23,152.79,60.89Z"/><path class="cls-7" d="M100.91,99.21s12.38-.82,15.38-7.82,6.5-31.5,6.5-31.5-5.5,19.5-7.5,22.5a18.83,18.83,0,0,1-6.37,6.47c-1.63,2.53-1.63,4.53-10.63,8.53Z"/><path class="cls-8" d="M185.29,44.39c0,9.06-7,14-12,16s34-6,10-30C185.29,40.39,185.29,37.39,185.29,44.39Z"/><path class="cls-9" d="M153.29,11.39c-5.22,2.61,13-11,23-9s7,9,7,9-2-5-9-5A43,43,0,0,0,153.29,11.39Z"/><path class="cls-10" d="M125.35,150.42c18.45,9,3.55,35.72-7.7,41.27s-28-6.13-37.32-26.08-13.57-42.2-1.26-36.85C96.72,136.44,96.72,136.44,125.35,150.42Z"/><path class="cls-11" d="M172.7,153c-17.62,11.29.22,35.46,12.13,39.39s27.48-9.74,34.8-30.53,9.18-43.15-2.64-36.26C200,135.51,200,135.51,172.7,153Z"/><path class="cls-12" d="M45.78,197.45c3.16,24,9.9,42.17,14.85,51.21s11.88-10.54,11.88-10.54L83.4,251.67s-8.91,9-4,19.58,9.9,13.55,17.82,12,6.93-16.57,6.93-16.57H117s-2,12,4.95,16.57,11.88,7.53,16.83,0,4.95-22.59,4.95-22.59h12.87s-3,21.09,3,22.59,16.83,6,22.76,0,1-24.1,1-24.1l13.86-6s-1,13.55,6.93,15.06,17.82-6,18.81-16.57A19.54,19.54,0,0,0,216,235.11l6.93-12s10.89,21.09,16.83,19.58,4.95-45.18,4.95-45.18-22.76,6-32.66,9-4.95,19.58-4.95,19.58l-9.9,6s-1-15.06-6.93-13.55-8.91,0-9.9,4.52,1,15.06,1,15.06l-17.82,1.51s4.95-16.57-1-21.09S148.72,217,145.75,220s-1,19.58-1,19.58H126.95s4.95-16.57,1-19.58-14.85-6-16.83-4.52-4,22.59-4,22.59L92.3,230.59s7.92-15.06,5.94-18.07S86.37,199,82.41,202,72.51,220,72.51,220L61.62,205s9.9-7.53,8.91-13.55-24.74-10.54-24.74-10.54A81.92,81.92,0,0,0,45.78,197.45Z"/></g></g></g></svg>