<svg xmlns="http://www.w3.org/2000/svg" xmlns:xlink="http://www.w3.org/1999/xlink" viewBox="0 0 196.11 196.68"><defs><style>.cls-1{fill:url(#linear-gradient);}.cls-2,.cls-7{fill:none;stroke-miterlimit:10;}.cls-2{stroke:#f46f3b;stroke-width:0.67px;}.cls-3{fill:url(#linear-gradient-2);}.cls-4{fill:url(#linear-gradient-3);}.cls-5{fill:url(#linear-gradient-4);}.cls-6{fill:#928c3c;}.cls-7{stroke:#6d6731;stroke-width:0.17px;}.cls-8{fill:url(#linear-gradient-5);}.cls-9{fill:url(#linear-gradient-6);}.cls-10{fill:url(#linear-gradient-7);}.cls-11{fill:url(#linear-gradient-8);}.cls-12{fill:url(#linear-gradient-9);}.cls-13{fill:url(#linear-gradient-10);}.cls-14{fill:url(#linear-gradient-11);}.cls-15{fill:url(#linear-gradient-12);}.cls-16{fill:url(#linear-gradient-13);}.cls-17{fill:url(#linear-gradient-14);}.cls-18{fill:url(#linear-gradient-15);}</style><linearGradient id="linear-gradient" x1="254.37" y1="21.23" x2="294.92" y2="158.46" gradientTransform="matrix(-1.1, -0.06, -0.06, 1.01, 345.4, 34.39)" gradientUnits="userSpaceOnUse"><stop offset="0" stop-color="#dc7d31"/><stop offset="0.5" stop-color="#f85823"/><stop offset="1" stop-color="#dc7d31"/></linearGradient><linearGradient id="linear-gradient-2" x1="148.04" y1="126.16" x2="178.47" y2="51.99" xlink:href="#linear-gradient"/><linearGradient id="linear-gradient-3" x1="198.85" y1="37.49" x2="165.47" y2="170.03" xlink:href="#linear-gradient"/><linearGradient id="linear-gradient-4" x1="264.3" y1="169.01" x2="241.75" y2="38.52" xlink:href="#linear-gradient"/><linearGradient id="linear-gradient-5" x1="129.89" y1="138.33" x2="182.86" y2="34.78" gradientTransform="matrix(-1.1, -0.06, -0.06, 1.01, 345.4, 34.39)" gradientUnits="userSpaceOnUse"><stop offset="0" stop-color="#dc8231"/><stop offset="0.5" stop-color="#f86023"/><stop offset="1" stop-color="#dc8231"/></linearGradient><linearGradient id="linear-gradient-6" x1="160.44" y1="159.57" x2="196.45" y2="49.26" xlink:href="#linear-gradient-5"/><linearGradient id="linear-gradient-7" x1="251.22" y1="40.66" x2="270.39" y2="167.59" xlink:href="#linear-gradient-5"/><linearGradient id="linear-gradient-8" x1="255.89" y1="29.42" x2="305.97" y2="153.09" xlink:href="#linear-gradient-5"/><linearGradient id="linear-gradient-9" x1="511.61" y1="16.12" x2="520.72" y2="16.33" gradientTransform="matrix(1.1, 0.06, -0.06, 1.01, -460.09, -11.72)" gradientUnits="userSpaceOnUse"><stop offset="0" stop-color="#979440"/><stop offset="0.5" stop-color="#a3a554"/><stop offset="1" stop-color="#979440"/></linearGradient><linearGradient id="linear-gradient-10" x1="502.01" y1="18.38" x2="513" y2="19.67" xlink:href="#linear-gradient-9"/><linearGradient id="linear-gradient-11" x1="518.08" y1="22.88" x2="524.92" y2="20.28" xlink:href="#linear-gradient-9"/><linearGradient id="linear-gradient-12" x1="525.69" y1="24.31" x2="531.85" y2="18.14" xlink:href="#linear-gradient-9"/><linearGradient id="linear-gradient-13" x1="500.26" y1="18.57" x2="507.43" y2="24.28" xlink:href="#linear-gradient-9"/><linearGradient id="linear-gradient-14" x1="218.28" y1="63.33" x2="216.8" y2="202.37" xlink:href="#linear-gradient"/><linearGradient id="linear-gradient-15" x1="211.7" y1="196.03" x2="223.72" y2="61.33" xlink:href="#linear-gradient-5"/></defs><title>page2pumpkin2</title><g id="Layer_2" data-name="Layer 2"><g id="pics"><g id="Layer_1-2" data-name="Layer 1"><path class="cls-1" d="M87.25,50.9c0,.43-1.56-12.71-21.42-14.65C35.39,35.29,14.18,72.18,5.42,104c-9,33-5.62,60.94,7.06,69.67C31,184.56,39.93,185.72,45,184.6,49.86,183.5,57.13,96,57.12,96A406.48,406.48,0,0,1,87.25,50.9Z"/><path class="cls-2" d="M87.25,50.9c0,.43-1.56-12.71-21.42-14.65C35.39,35.29,14.18,72.18,5.42,104c-9,33-5.62,60.94,7.06,69.67C31,184.56,39.93,185.72,45,184.6,49.86,183.5,57.13,96,57.12,96A406.48,406.48,0,0,1,87.25,50.9Z"/><path class="cls-3" d="M117,57.81c0,.74-5.3-13.3,22.91-14,33.2,2.52,51.91,46,55.29,79.84,3.49,35.21-8.35,60.76-33.64,59-24.76-3.94-17-61.31-16.74-61.46C136.56,98.13,127.21,76.36,117,57.81Z"/><path class="cls-2" d="M117,57.81c0,.74-5.3-13.3,22.91-14,33.2,2.52,51.91,46,55.29,79.84,3.49,35.21-8.35,60.76-33.64,59-24.76-3.94-17-61.31-16.74-61.46C136.56,98.13,127.21,76.36,117,57.81Z"/><path class="cls-4" d="M171.59,160.72c.23,14.92-5.08,26.88-18.23,30.15s-26.75-4.15-26.82-4.12c-4.4-40.6-10.21-80-17.26-116,0,.13,4.5-9.69,14.56-11.78s24,.74,28,17.56C156.64,93,171.87,146.14,171.59,160.72Z"/><path class="cls-2" d="M171.59,160.72c.23,14.92-5.08,26.88-18.23,30.15s-26.75-4.15-26.82-4.12c-4.4-40.6-10.21-80-17.26-116,0,.13,4.5-9.69,14.56-11.78s24,.74,28,17.56C156.64,93,171.87,146.14,171.59,160.72Z"/><path class="cls-5" d="M95.74,72.74c0,.14-5-15.64-15.49-20.23C69.84,48.08,61,50.73,52.92,62.21c-9,12.16-29.81,85.2-24.13,103.66,5,19.71,20.58,22.09,23.63,22.93s17,1.22,24.2-9C83.69,169.17,95.72,72.68,95.74,72.74Z"/><path class="cls-2" d="M95.74,72.74c0,.14-5-15.64-15.49-20.23C69.84,48.08,61,50.73,52.92,62.21c-9,12.16-29.81,85.2-24.13,103.66,5,19.71,20.58,22.09,23.63,22.93s17,1.22,24.2-9C83.69,169.17,95.72,72.68,95.74,72.74Z"/><path class="cls-6" d="M128.46,13.76c-.55-1.6-4.2-2.54-6.53-1.51s-5.61,4.88-6,9.92c-1.36,18,6.3,23.67,17.08,26.5-2.1,0-14.56,3.82-11.32,14.07-3.87,1.08-3.9,1.07-8,5.09-3.81-2.07-10.5-7.8-23.78-2.34-.5,1.38-1.71-4.92-8.83-7.79,3-5,3.42-7.74.24-11.23,3.25-2.94,7.3-4,12.38-21.93C98.65,6.27,116.3-2.58,128.45.79,140.43,4,128.9,15.18,128.46,13.76Z"/><path class="cls-7" d="M128.46,13.76c-.55-1.6-4.2-2.54-6.53-1.51s-5.61,4.88-6,9.92c-1.36,18,6.3,23.67,17.08,26.5-2.1,0-14.56,3.82-11.32,14.07-3.87,1.08-3.9,1.07-8,5.09-3.81-2.07-10.5-7.8-23.78-2.34-.5,1.38-1.71-4.92-8.83-7.79,3-5,3.42-7.74.24-11.23,3.25-2.94,7.3-4,12.38-21.93C98.65,6.27,116.3-2.58,128.45.79,140.43,4,128.9,15.18,128.46,13.76Z"/><path class="cls-8" d="M178,175.39c-1.45,7,9.86-8.32,12.42-17.83,3-12.19,3.73-25,.37-40.74A120.42,120.42,0,0,0,165.33,65.5c-8.4-10.12-22.11-9.76-25.87-9.49-3.78-.3,10.6,6.15,14.88,12,19.28,23.38,36.14,41.71,28.77,85.83C180.76,168.72,178.44,173.26,178,175.39Z"/><path class="cls-9" d="M134.09,79.1c8.59-.28,31.63,76.11,20.72,89.59-8.92,12.58-11.81,8-12.71,12.7s5.62,9.4,12.66,5.19c7-4.39,15.8-15.11,11.52-31.41-3.75-16.74-17.54-72.3-20-79.48-1.9-8.16-9.64-8.13-13.47-6.09S130.53,78.12,134.09,79.1Z"/><path class="cls-10" d="M72.23,57.69c-9.06-1.85-22.9,19.73-31.51,43.61-8.89,24.16-12.56,50.62-7.5,65.1,6.28,18.78,18.45,16.32,21,16.4,2.38.17,11.55-5.11,2.7-12.15S40,162.13,38.62,145.39c-1.31-15.53.34-13.39,5.2-31.21C47.83,99.39,55.15,78.52,63,74.1s15.15-2.34,16.42-8S76,58,72.23,57.69Z"/><path class="cls-11" d="M67.31,47.78c-8.28-.44-11.88.38-25.25,13.87-18.17,19.07-29.38,54.08-29.28,72.77.08,13.31,7.94,31.63,11.23,38.94s-6.6-.67-12.07-11-7.74-17-7.68-31.44c-.31-9.85,15.54-56.08,26.25-69.15C34,57.56,45.12,36.27,65.48,43,85.29,51.13,67.29,47.69,67.31,47.78Z"/><path class="cls-12" d="M94.56,64.32c4.55-4.54,6.64-5.86,5.92-17.41S98.36,33.54,99.3,28.1c.82-5.62,9.07-17.93,12.7-20,3.53-3.41-11,10.81-9.28,22.59,1.55,10.89,5,17,3.25,22.84a99,99,0,0,1-3.78,11c-2,.63-4.55.62-5.78,1.73A13.81,13.81,0,0,0,94.56,64.32Z"/><path class="cls-13" d="M81.71,58.43s9.18-2.65,10.13-6.68.84-25,5.28-30.91a19.61,19.61,0,0,1,6.53-5.69c0-.26-6.41,7.92-6.78,13.63a190.88,190.88,0,0,0-.23,20c.28,4.11-4.14,12.17-9.51,14.65C86,60.6,81.72,58.4,81.71,58.43Z"/><path class="cls-14" d="M120.36,63.33c.09.06-7.55-9.9-8.68-20.31s1.67-19.15,3.49-22.07,3.36-5.39,3.36-5.39c-.21-.64-11.5,12.33-9,30.94,2.09,19,6.86,19.29,6.93,19.15C117.76,64.86,119.06,64.08,120.36,63.33Z"/><path class="cls-15" d="M113.86,28.46c-.58,1-3.4,12.15,10.37,26,.7-2.15,5.58-6,8.18-5.47C116.74,45.07,114.79,37.16,113.86,28.46Z"/><path class="cls-16" d="M84.07,53.31s2.29-.79,4.54-5.48C90.76,43,94.89,27.2,94.94,27.38c-.07-.29-5.23,11.94-6.59,14.17-1.45,2-1.26,3-6,5.7C82.93,49.2,83.52,51.23,84.07,53.31Z"/><path class="cls-17" d="M99.56,56.27C94.92,55.88,80.1,61.51,77,68.52c-3.36,7-12.79,48.9-11.12,77.23,1.41,28.76,3.87,38.83,8.72,43.87,5,5.09,45.16,11.52,52.54,1.26,7.4-10,7.18-45,6.41-57.79-.59-12.47-2.92-45.36-7.34-55.63C121.84,67.89,122.69,57.58,99.56,56.27Z"/><path class="cls-2" d="M99.56,56.27C94.92,55.88,80.1,61.51,77,68.52c-3.36,7-12.79,48.9-11.12,77.23,1.41,28.76,3.87,38.83,8.72,43.87,5,5.09,45.16,11.52,52.54,1.26,7.4-10,7.18-45,6.41-57.79-.59-12.47-2.92-45.36-7.34-55.63C121.84,67.89,122.69,57.58,99.56,56.27Z"/><path class="cls-18" d="M129.3,149.64c-3.13,4.86-6.93,23.93-24.14,26.23-17.14,2.51-22-7-28.54-19.53-6.5-12.23-9.63-16.72-8-8.55,1.1,9.08-1.48,39.91,22.48,42.24,24.21,1.4,33.16-3.8,37.56-17.73S129.36,149.72,129.3,149.64Z"/></g></g></g></svg>