<svg xmlns="http://www.w3.org/2000/svg" xmlns:xlink="http://www.w3.org/1999/xlink" viewBox="0 0 161.36 118.6"><defs><style>.cls-1,.cls-15,.cls-2,.cls-3,.cls-4{stroke:#f46f3b;stroke-width:0.49px;}.cls-1,.cls-15,.cls-2,.cls-3,.cls-4,.cls-5{stroke-miterlimit:10;}.cls-1{fill:url(#linear-gradient);}.cls-2{fill:url(#linear-gradient-2);}.cls-3{fill:url(#linear-gradient-3);}.cls-4{fill:url(#linear-gradient-4);}.cls-5{fill:#928c3c;stroke:#6d6731;stroke-width:0.12px;}.cls-6{fill:url(#linear-gradient-5);}.cls-7{fill:url(#linear-gradient-6);}.cls-8{fill:url(#linear-gradient-7);}.cls-9{fill:url(#linear-gradient-8);}.cls-10{fill:url(#linear-gradient-9);}.cls-11{fill:url(#linear-gradient-10);}.cls-12{fill:url(#linear-gradient-11);}.cls-13{fill:url(#linear-gradient-12);}.cls-14{fill:url(#linear-gradient-13);}.cls-15{fill:url(#linear-gradient-14);}.cls-16{fill:url(#linear-gradient-15);}.cls-17{fill:url(#linear-gradient-16);}</style><linearGradient id="linear-gradient" x1="-34.3" y1="42.1" x2="-9.9" y2="124.68" gradientTransform="translate(169.36 -8.02) rotate(8.52)" gradientUnits="userSpaceOnUse"><stop offset="0" stop-color="#dc6931"/><stop offset="0.09" stop-color="#e6611f"/><stop offset="0.21" stop-color="#f05a0e"/><stop offset="0.34" stop-color="#f65503"/><stop offset="0.5" stop-color="#f85400"/><stop offset="0.68" stop-color="#f65503"/><stop offset="0.8" stop-color="#f1590c"/><stop offset="0.9" stop-color="#e8601b"/><stop offset="1" stop-color="#dc6931"/></linearGradient><linearGradient id="linear-gradient-2" x1="-138.5" y1="105.91" x2="-119.3" y2="59.1" xlink:href="#linear-gradient"/><linearGradient id="linear-gradient-3" x1="-104.09" y1="52.26" x2="-124.74" y2="134.25" xlink:href="#linear-gradient"/><linearGradient id="linear-gradient-4" x1="-35.72" y1="133.37" x2="-49.16" y2="55.57" xlink:href="#linear-gradient"/><linearGradient id="linear-gradient-5" x1="-153.19" y1="109.27" x2="-120.63" y2="45.61" gradientTransform="translate(169.36 -8.02) rotate(8.52)" gradientUnits="userSpaceOnUse"><stop offset="0" stop-color="#dc6431"/><stop offset="0.5" stop-color="#f84623"/><stop offset="1" stop-color="#dc6431"/></linearGradient><linearGradient id="linear-gradient-6" x1="-128.81" y1="127.34" x2="-106.16" y2="57.95" xlink:href="#linear-gradient-5"/><linearGradient id="linear-gradient-7" x1="-40.77" y1="54.76" x2="-29.1" y2="132.03" xlink:href="#linear-gradient-5"/><linearGradient id="linear-gradient-8" x1="-32.45" y1="44.44" x2="-2.28" y2="118.94" xlink:href="#linear-gradient-5"/><linearGradient id="linear-gradient-9" x1="204.86" y1="39.6" x2="213.32" y2="39.79" gradientTransform="matrix(-0.99, -0.15, -0.15, 0.99, 302.91, 11.99)" gradientUnits="userSpaceOnUse"><stop offset="0" stop-color="#979440"/><stop offset="0.5" stop-color="#a3a554"/><stop offset="1" stop-color="#979440"/></linearGradient><linearGradient id="linear-gradient-10" x1="196.44" y1="39.36" x2="207.68" y2="40.68" xlink:href="#linear-gradient-9"/><linearGradient id="linear-gradient-11" x1="205.64" y1="39.5" x2="210.71" y2="37.57" xlink:href="#linear-gradient-9"/><linearGradient id="linear-gradient-12" x1="222.29" y1="45.16" x2="227.7" y2="39.74" xlink:href="#linear-gradient-9"/><linearGradient id="linear-gradient-13" x1="196.95" y1="41.17" x2="200.49" y2="43.99" xlink:href="#linear-gradient-9"/><linearGradient id="linear-gradient-14" x1="-77.47" y1="64.19" x2="-78.27" y2="139.68" xlink:href="#linear-gradient"/><linearGradient id="linear-gradient-15" x1="-79.87" y1="135.04" x2="-74.13" y2="70.75" xlink:href="#linear-gradient-5"/><linearGradient id="linear-gradient-16" x1="-38.17" y1="69.68" x2="-66.01" y2="69.98" xlink:href="#linear-gradient-5"/></defs><title>page2pumpkin4</title><g id="Layer_2" data-name="Layer 2"><g id="pics"><g id="Layer_1-2" data-name="Layer 1"><path class="cls-1" d="M104.46,31.46s3.27-5.78,18.29-1.75c45.28,12.14,49.11,74.19,18.68,82.9-16.11,4.61-19.32,5.5-23.9,4s3-51.76,3-51.76Z"/><path class="cls-2" d="M71.76,29s5.59-6.53-16.86-7.82C7.5,18.46-20.41,81.38,19,96.57,39.55,104.51,42.32,65,42.32,65Z"/><path class="cls-3" d="M12.76,81.77c-3.08,8.51-.69,16.62,11.3,20.86s26,2.67,26,2.67L77,38s-2.81-5.31-10.45-6.46-18.46-1.13-24,7.43S15.84,73.26,12.76,81.77Z"/><path class="cls-4" d="M93.13,42.82S99.56,36,108,36.07s14.64,2.6,19.56,9.86,15.68,51.69,9.19,63-21.84,9.38-24.84,9.33-16.46-2.46-21.38-9.72S93.13,42.82,93.13,42.82Z"/><path class="cls-5" d="M80.78,11C79.28,21,71.7,22.66,61.7,21.59c1.7.63,12,5.37,7.23,10.27,3.41,1.33,3.41,1.33,6.58,4.25,4.09-.39,10.9-2.38,23,3,.36.87,2.08-2.44,8.89-3.16-2.51-3.49-2.65-5.05.43-6.87-2.7-2-6.43-3.2-9-13.79s13.42-13.23,4.07-15S81.2,8.2,80.78,11Z"/><path class="cls-6" d="M8.94,84.86c.13,4.25-6.81-7.95-7.22-14.06C.72,55.64,5,45.67,32,29.6c7.77-4.63,18.45-4.79,21.51-5.14S44.43,29,40.38,31.87c-17.82,12.63-31.69,8-33,34.88C6.91,75.67,8.9,83.58,8.94,84.86Z"/><path class="cls-7" d="M56,39.91C50,41.43,20.06,80.18,26.88,89.8c6.3,8.89,9.8,6.77,10,9.65s-6.66,4.31-12.7.55-12-12-5.36-20.38S44.23,42.23,46.72,37.71s8.48-4.44,11.36-3.6S59,39.16,56,39.91Z"/><path class="cls-8" d="M114.14,39c13.57,4,31.12,52.95,18.14,69.39-8,10.15-19.54,6-21.89,5.7s-10-5.17-.69-7.44,16.8-1.77,20.06-11.48c3-9,1.2-8-.77-18.88-1.64-9.07-4.85-21.73-10.25-25.8s-11.22-5.35-11.27-9S111.26,38.19,114.14,39Z"/><path class="cls-9" d="M120.59,34.08c6.29,2.16,8.65,3.69,17.2,13.58C149.31,61,155.52,81.72,153.52,93c-1.4,8-9.94,12.5-14.06,16s4.73-.67,10.92-5.86,6.79-7,8.11-15.8c.95-6.31-5.05-29.79-11.62-38.11-2.38-3-8.22-15.3-24.16-17.28S120.59,34.08,120.59,34.08Z"/><path class="cls-10" d="M93.73,37.56C90,34,88.31,32.92,90.5,26.32s.64-8,1.88-11.45.95-6.32,6.15-10.92c2.47-2.19-5.39,2.89-8.11,9S84,25.35,84.67,29.11a36,36,0,0,0,1.81,7.12c1.81.76,4.21,1.25,5.24,2.16A13.46,13.46,0,0,1,93.73,37.56Z"/><path class="cls-11" d="M105.56,36.11S97.29,33,97.08,30.56s1-13.76.26-18.72c-.48-3.11,3.23-6.51,3.23-6.51S97.33,7,96.85,10.15,94.21,25.65,93.26,28,95,35.69,99.85,38.11C101.27,36.69,105.56,36.11,105.56,36.11Z"/><path class="cls-12" d="M70.79,32.34s8.59-4,10.72-10.23,3.18-11.09,6-15c2.05-2.81,16.62-5.59,16.62-5.59C101.78,2.28,85.64,4.71,83,24.37c-1.58,11.71-8.9,10.09-8.9,10.09Z"/><path class="cls-13" d="M80.81,12.83s2.92,8.59-11.68,13.75c-.41-1.28-4.16-4.29-6.52-4.65C77.42,23.34,79.44,18,80.81,12.83Z"/><path class="cls-14" d="M103.88,32.57a7.59,7.59,0,0,1-3.5-4C99,25.55,98.44,15.47,98.44,15.47s2.07,8.26,3.06,9.63.61,1.93,4.68,4.14Z"/><path class="cls-15" d="M88.74,36c3.54.45,14.4,4.19,16.21,8.13s5.86,29,2.05,46.39-7.06,23-12.18,25.09S50,113.86,45.1,106.59s2.31-27.39,5.15-34.3,10.3-24.56,15.19-29.13S71,33.8,88.74,36Z"/><path class="cls-16" d="M53.65,83.61c1.28,3.45-.45,15,14.53,19.3s20.47-.2,26.31-7.08,8.14-10.2,6.78-5.1,1.58,25.52-21.94,22-30.68-7.85-30.54-16.8S53.65,83.61,53.65,83.61Z"/><path class="cls-17" d="M66.59,59.17c-.86-2.67,1.08-23.92,20-20.8s16.07,19.56,13.87,24.71.32-18.84-14.5-20.48S68.06,63.71,66.59,59.17Z"/></g></g></g></svg>