<svg xmlns="http://www.w3.org/2000/svg" viewBox="0 0 1426 1026"><defs><style>.cls-1{fill:#3c593c;}.cls-2{fill:#496b49;}.cls-3{fill:#263826;}</style></defs><title>page4background_1</title><g id="Layer_2" data-name="Layer 2"><g id="Layer_1-2" data-name="Layer 1"><rect class="cls-1" width="1426" height="1026"/><rect class="cls-2" x="44" y="372.92" width="139.33" height="54.95" rx="14.65" ry="14.65"/><rect class="cls-3" x="584.49" y="349.86" width="196.83" height="52.84" rx="14.89" ry="14.89"/><rect class="cls-2" x="700.6" y="283.29" width="140.43" height="59.18" rx="15.86" ry="15.86"/><rect class="cls-3" x="622.09" y="218.82" width="160.34" height="56.01" rx="15.99" ry="15.99"/><rect class="cls-3" x="194.39" y="589.56" width="153.7" height="62.35" rx="14.02" ry="14.02"/><rect class="cls-2" x="248.57" y="659.3" width="139.33" height="56.01" rx="13.59" ry="13.59"/><rect class="cls-3" x="154.58" y="726.94" width="191.3" height="57.06" rx="15.03" ry="15.03"/><rect class="cls-3" x="161.78" y="75" width="184.67" height="60.23" rx="14.76" ry="14.76"/><rect class="cls-2" x="112.02" y="144.75" width="141.54" height="59.18" rx="15.51" ry="15.51"/><rect class="cls-3" x="269.04" y="144.75" width="148.18" height="59.18" rx="13.84" ry="13.84"/><rect class="cls-2" x="670.54" y="591.48" width="143.75" height="59.18" rx="15.91" ry="15.91"/><rect class="cls-3" x="1116.04" y="415.4" width="161.44" height="52.84" rx="14.78" ry="14.78"/><rect class="cls-2" x="1043.06" y="475.63" width="143.75" height="59.18" rx="13.5" ry="13.5"/><rect class="cls-3" x="1087.29" y="545.38" width="190.2" height="58.12" rx="15.16" ry="15.16"/><rect class="cls-3" x="1209.4" y="105.2" width="152.6" height="56.01" rx="14.23" ry="14.23"/><rect class="cls-2" x="1139.74" y="169.67" width="141.54" height="57.06" rx="13.18" ry="13.18"/><rect class="cls-3" x="992.21" y="886.86" width="196.83" height="52.84" rx="14.89" ry="14.89" transform="translate(2181.24 1826.56) rotate(-180)"/><rect class="cls-2" x="932.49" y="820.29" width="140.43" height="59.18" rx="15.86" ry="15.86" transform="translate(2005.42 1699.75) rotate(-180)"/><rect class="cls-3" x="991.1" y="755.82" width="160.34" height="56.01" rx="15.99" ry="15.99" transform="translate(2142.54 1567.65) rotate(-180)"/><rect class="cls-3" x="463.54" y="883.48" width="143.75" height="59.18" rx="15.91" ry="15.91"/></g></g></svg>