<svg xmlns="http://www.w3.org/2000/svg" viewBox="0 0 374.96 398.91"><defs><style>.cls-1{fill:#140101;}.cls-1,.cls-10,.cls-12,.cls-13,.cls-14,.cls-15,.cls-16,.cls-17,.cls-3,.cls-5,.cls-9{stroke:#000;}.cls-1,.cls-10,.cls-12,.cls-13,.cls-14,.cls-15,.cls-16,.cls-17,.cls-3,.cls-5,.cls-8,.cls-9{stroke-miterlimit:10;}.cls-1,.cls-12,.cls-13{stroke-width:0.74px;}.cls-2{fill:#020200;}.cls-11,.cls-3,.cls-8{fill:#ede698;}.cls-10,.cls-3,.cls-5{stroke-width:0.62px;}.cls-4,.cls-5{fill:#d1c279;}.cls-6{fill:#726942;}.cls-7{fill:#918553;}.cls-8{stroke:#918553;stroke-width:0.68px;}.cls-9{fill:#fff;stroke-width:0.31px;}.cls-10{fill:#1e1e1e;}.cls-12{fill:#300;}.cls-13,.cls-17{fill:#600;}.cls-14{fill:none;}.cls-15,.cls-16{fill:#033;}.cls-15{stroke-width:0.56px;opacity:0.49;}.cls-17{stroke-width:0.72px;}</style></defs><title>page3vamphead_1</title><g id="Layer_2" data-name="Layer 2"><g id="Layer_1-2" data-name="Layer 1"><path class="cls-1" d="M106.88,318.76C93.3,301.87-4.57,167.62,2.51,148.9s356.26-12.7,369.71-1.78-68.3,116-94,160.69S137.44,356.79,106.88,318.76Z"/><path class="cls-2" d="M151.33,305.71h76.51c24.27-17,95-118.66,50.76-222.19-15.37-36-157-38.06-173.63-.74C54.3,196.75,131.05,287,151.33,305.71Z"/><path class="cls-3" d="M146.55,330.36s1.5.73,8.83,13.24c3.16,5.4,20.34,16.66,30.16,20.84.15.06,15.31,10.74,4.42,34.34,11.7-27.62,28.35-38.48,43.41-74.31.37-8.46-1.1-37-1.1-37l-86.08-2.94Z"/><path class="cls-4" d="M146.18,284.52S164.58,327,191.8,327s40.78-35.14,40.62-36.33S158,282.46,146.18,284.52Z"/><path class="cls-5" d="M117,191.34C112,182.07,91.92,178,94.39,166.22,87,177.34,91,265.46,117,226.55S117,191.34,117,191.34Z"/><path class="cls-3" d="M264.79,193.56c5.57-8.9,24.84-15.46,23.18-27.34,6.63,11.6-2.39,103.07-25.6,62.47S264.79,193.56,264.79,193.56Z"/><path class="cls-6" d="M122.28,206.36c-7.6,0-9.55-10.18-12.62-15.41-1.21-2.05-4.71-1.25-4.6,1.25.18,4.19,1.44,8,2.36,12.07a43,43,0,0,1,.34,17,2.48,2.48,0,0,0,4.52,1.9,47.38,47.38,0,0,1,11.79-12.47l-3.72-2.13v.54l1.22-2.13c-1.35,1-3.31,1.19-4.78,2.16-1.75,1.17-3.05,3-5,3.83h2.49l-.78-.33,1.14,2.79a18.07,18.07,0,0,1,1.91-4.59c1.37-2.85-2.89-5.36-4.27-2.49-.89,1.86-2.09,3.71-2.41,5.77a2.54,2.54,0,0,0,1.14,2.79c3.52,1.52,5-1.11,7.75-3.07,2.27-1.64,6.56-1.7,6.52-5.26,0-1.72-2.14-3.28-3.72-2.13A54,54,0,0,0,108,220.65l4.52,1.9a49.58,49.58,0,0,0,.43-15.33c-.69-5.08-2.74-9.9-3-15l-4.6,1.25c4.27,7.26,6.54,17.91,16.89,17.86,3.18,0,3.19-5,0-4.94Z"/><path class="cls-7" d="M256.45,210.57A38.94,38.94,0,0,0,276,195.37l-3.88.5c-.9-.9-.29-1-1.11.8a10.89,10.89,0,0,0-.66,2.5c-.47,2.47-.61,5-.87,7.54l-1.82,17.55,4.6-1.25c-3.24-6.51-11.81-11.33-17.29-15.8l-.5,3.88c1.28-.6,5.41,2.09,6.4,2.7a25.69,25.69,0,0,1,5.36,4.56c1.34,1.45,4.5.42,4.22-1.75a45.05,45.05,0,0,1,.08-12.82l-4.85-.66q-1.14,5.29-4.91,4.2c-3.15-.38-3.12,4.57,0,4.94,5.79.7,10-3.42,9.85-9.15-.05-2.66-4.41-3.51-4.85-.66a49.65,49.65,0,0,0-.25,14.13l4.22-1.75c-3.75-4.05-11.88-10.77-17.76-8a2.48,2.48,0,0,0-.5,3.88l9,7.37c2.69,2.19,5.92,4.26,7.5,7.44,1.2,2.41,4.38,1,4.6-1.25.7-6.77,1.35-13.55,2.11-20.32.31-2.81,1.41-5.2,1.93-7.85a3.56,3.56,0,0,0-1-3.7,2.51,2.51,0,0,0-3.88.5,33.3,33.3,0,0,1-16.63,12.93c-3,1.06-1.69,5.84,1.31,4.77Z"/><path class="cls-3" d="M117,177.13c0,9.88-1.85,67.95,4.94,77.21s12.35,16.11,18.53,23.52,28.85,39.3,52.6,40.09c18.73.62,28.17-15.07,35-22.48s10-10.62,18.73-20.61c6.77-7.74,16.62-34.73,16.62-54.5s3.71-40.15,1.24-58.07c0,0,1.24-61.77-71-63.62S117,135.13,117,177.13Z"/><path class="cls-6" d="M185.63,239.43c-1.37-3.57-3.94-6.51-8-6.61-1.72,0-4.33.35-5,2.25-.52,1.54.63,3.3,1.68,4.32a15.16,15.16,0,0,0,4.83,2.75c1.49.62,3.95,1.55,5.42.4s.8-3.07-.4-4.17a9.13,9.13,0,0,0-2.33-1.52,24.84,24.84,0,0,1-2.55-.83c-1.45-1.89-4.7,0-3.24,1.89a4.61,4.61,0,0,0,2.47,1.74c.72.24,3,.72,3.26,1.62l.19-1.44-.17.3,1.12-.86c-1.13.38-3.06-.85-4.07-1.36-.07,0-2.93-1.91-2.55-2q-.52,1.27.66.7h.63a4.33,4.33,0,0,1,2.45.87,6.74,6.74,0,0,1,2,3c.86,2.23,4.48,1.26,3.61-1Z"/><path class="cls-6" d="M209.4,232.23a8,8,0,0,0-7.2,1.91c-2.06,1.74-2.74,3.79-3.19,6.34-.86,4.93,6.82,3.5,9.36,2.38a9.82,9.82,0,0,0,2.38-1.56,6.11,6.11,0,0,0,.46-.54c-.47.5.25-.24.38-.44a15.51,15.51,0,0,0,1-2.59,4.27,4.27,0,0,0,.21-3.08c-.85-2.31-3.78-2.75-5.87-2.06a5.06,5.06,0,0,0-2.66,2c-.73,1.15-.42,2.48-1,3.64a1.9,1.9,0,0,0,2.12,2.75,7.19,7.19,0,0,0,4.77-3c1.42-1.95-1.83-3.82-3.24-1.89a3.66,3.66,0,0,1-2.53,1.27l2.12,2.75a6.46,6.46,0,0,0,.58-1.75c.09-.57,0-1.41.38-1.87A1.94,1.94,0,0,1,209,236q.55-.33.21.26l-.22.44a7.19,7.19,0,0,1-1,2.08c.48-.58-1,.57-1.34.72a10.19,10.19,0,0,1-3,.64,7.17,7.17,0,0,0-1.32,0q-.82-.14.29,1a5.28,5.28,0,0,0,.14-.56c.26-.57.1-1.28.35-1.87a4.83,4.83,0,0,1,1.24-1.58,4.39,4.39,0,0,1,4-1.31c2.34.59,3.34-3,1-3.61Z"/><path class="cls-4" d="M199.07,98.95c12.35.22-36.09,18.42-15.38,49.77,21.36,32.34,10.89,85.74-2.47,68.57-4.32-5.56-11.12,3.09-11.12,3.09s-3.09,6.79-.62,9.88-8,.62-9.88-3.09-21.62,24.71,31.5,27.18,26,63.1-28,46.75c-11.24-10.62-9.42-8.66-21.23-23.73C130.6,263,130.61,264.88,120,247.4c-.64-17.32-6.24-90.55,1.86-113.15S145.26,98,199.07,98.95Z"/><path class="cls-8" d="M183.86,184.54c-2.18,6-5.95,23.47-3,32.74-2.23-5.56-20.75,2.58-13.72,14s24.87,2.11,16.69-1c-8.48-3.2-3,16.68,10.41,16.68,5.95,0,16.35-11.74,11.15-16.06s-3.69,16,12.64,2.47c12.64-10.5-5.95-19.77-8.92-16.06-3-2.64,8.41-23.17-6.69-39.53C185.34,159.22,188.32,172.19,183.86,184.54Z"/><path class="cls-6" d="M151.28,170c-7.35,1-14.83,1.58-22.24,1.89-1,0-1.32,1.6-.25,1.84,3.1.69,4.63,3.19,6.75,5.27,1.75,1.72,3.67,3.23,5.34,5l1.32-1.32c-3-2.46-7.75-6-9.05-9.79L131.77,174l6.53,4.12.22-1.71c-2.16.46-1.18-1.19-1.52-2.23s-.24-.84-1.12-1.58-2.23.51-1.32,1.32a9.59,9.59,0,0,0,2.74,1.79c1.09.48,2-1.14.95-1.62a6,6,0,0,1-2.36-1.5l-1.32,1.32c1.36,1.15,0,3.28,1.46,4.43.77.62,2.26,0,3-.13a1,1,0,0,0,.22-1.71l-6.53-4.12a1,1,0,0,0-1.38,1.06c1.47,4.27,6.18,7.85,9.54,10.62a.94.94,0,0,0,1.32-1.32c-2.24-2.45-4.87-4.49-7.11-6.94-1.71-1.87-3.29-3.3-5.81-3.86l-.25,1.84c7.58-.32,15.22-.95,22.74-2,1.19-.16.68-2-.5-1.81Z"/><path class="cls-6" d="M166.68,180q5.39,6.35,11.16,12.37l.41-1.57c-1.51.44-5-1.28-6.54-1.57a29.15,29.15,0,0,1-6.65-1.7l-.22,1.71c3.36-1.09,7.51.61,10.59,2,.91.41,2-.68,1.14-1.47a8.16,8.16,0,0,0-2.25-1.36c-1.73-.87-2.43-2.15-3.14-3.91l-1.57.91,4.87,4.18c.91.78,2.24-.54,1.32-1.32l-4.87-4.18c-.63-.54-1.95,0-1.57.91a12.29,12.29,0,0,0,1.81,3.43c1.15,1.36,2.81,1.47,4.06,2.66l1.14-1.47c-3.57-1.6-8.11-3.45-12-2.19-.69.22-1,1.36-.22,1.71,2.59,1.16,5.29,1.48,8,2.08,2.18.47,4.35,2,6.59,1.38a1,1,0,0,0,.41-1.57q-5.76-6-11.16-12.37c-.78-.92-2.1.41-1.32,1.32Z"/><path class="cls-6" d="M219.84,181.83c-2.6,4.17-6.41,7.41-8.44,11.95-.33.74.44,1.91,1.28,1.28,2.86-2.12,6.83-1.69,10.22-2.13a36.93,36.93,0,0,0,8.26-2c.9-.34.88-2-.25-1.84l-7.91,1c-2.61.35-5.75,1.23-8.36.82l.22,1.71a8.64,8.64,0,0,0,4.22-4l-1.71-.72-.81,2.21a.94.94,0,0,0,1.15,1.15,29.29,29.29,0,0,1,6.22-1.19c1.19-.1,1.2-2,0-1.87a32,32,0,0,0-6.72,1.26l1.15,1.15.81-2.21c.37-1-1.21-1.64-1.71-.72a7.11,7.11,0,0,1-3.54,3.32,1,1,0,0,0,.22,1.71c2.47.39,5-.24,7.42-.56l9.35-1.24-.25-1.84a42,42,0,0,1-11.57,2.31c-2.68.21-5.13.36-7.36,2l1.28,1.28c2-4.52,5.85-7.79,8.44-11.95.64-1-1-2-1.62-.95Z"/><path class="cls-6" d="M244.92,174a60.94,60.94,0,0,0,14.86,6.76V179a76.84,76.84,0,0,0-11.66,5.27l1.14,1.47c2.13-2.55,5.6-3.62,8.67-4.57a1,1,0,0,0,.41-1.57c-1.78-1.93-5,.43-6.92-2.05l-.41,1.57a5.23,5.23,0,0,1,4.18.7l-.15-1.14c-.69,1.06-10.78-6.26-11.41-6.86l-.41,1.57.79.27c.72.95,2.35,0,1.62-.95a2.47,2.47,0,0,0-2.9-1.13.94.94,0,0,0-.41,1.57,23.24,23.24,0,0,0,4.43,3.24c1.71,1,3.24,2.38,4.93,3.37,1.49.87,3.79,1.71,5-.13a1,1,0,0,0-.15-1.14c-1.36-1.58-4.14-1.47-6-1.18-.78.12-.79,1.08-.41,1.57a4.79,4.79,0,0,0,3.44,1.84c.53.07,3.09-.2,3.48.22l.41-1.57c-3.36,1-7.17,2.26-9.5,5.05a.94.94,0,0,0,1.14,1.47,74,74,0,0,1,11.21-5.08,1,1,0,0,0,0-1.81,59.15,59.15,0,0,1-14.42-6.58c-1-.64-2,1-.95,1.62Z"/><path d="M146.22,171c-5.69.33-11.38.74-17,1.33-.18,0-.33.25-.17.4,4.18,3.59,7.66,7.89,12.1,11.2.24.18.48-.23.24-.4a60.57,60.57,0,0,1-6.89-6.25c-.82-.83-1.63-1.67-2.47-2.48s-2.36-1.46-1.18-2.16c1.51-.9,5.65-.51,7.48-.64q4-.3,7.94-.52c.3,0,.3-.49,0-.47Z"/><path d="M168.67,180.83c.47.75,6.6,10.54,6.62,10.53-.43.27-4-1-4.86-1.09a23.56,23.56,0,0,0-5.84,0c-.3,0-.3.5,0,.47a23.11,23.11,0,0,1,11.3,1.45c.19.08.37-.18.26-.34l-7.07-11.26c-.16-.25-.57,0-.4.24Z"/><path d="M220.58,181.26a131.56,131.56,0,0,0-7.84,11.62c-.13.22.12.41.32.32,3.55-1.59,7.35-2.58,11.08-1,.27.12.51-.29.24-.4a10.73,10.73,0,0,0-4.76-.91,47.47,47.47,0,0,0-6,1.51c-.27-.36,2.38-3.92,2.76-4.51,1.46-2.19,3-4.33,4.57-6.43.18-.24-.22-.47-.4-.24Z"/><path d="M246.9,174.09c2.29,2.44,6.5,3.62,9.47,5,1.4.66,1.56.58.56,1.7a14,14,0,0,1-2.26,1.67q-2.65,1.92-5.38,3.75c-.25.17,0,.57.24.4q4.67-3.14,9.13-6.55c.12-.1.18-.32,0-.4L252.91,177c-1.92-.91-4.2-1.63-5.68-3.2-.21-.22-.54.11-.33.33Z"/><path class="cls-9" d="M157.22,171.61c-7.05-1.52-20,0-22.53,1.9s4.43,11.48,14.76,15.06,19.17,2.27,22.57.67C171.61,184.93,167.83,173.9,157.22,171.61Z"/><path d="M157.44,247.24s14.56,33.89,30.62,35.12,29.44-15.87,41.42-27.66c-17.06-.05-32.81,1.49-35.9,1.49s-25.33-4.94-25.33-4.94Z"/><path class="cls-7" d="M165.37,268.72c2.47,4.78,5.37,9.75,10,12.72,5,3.2,11.55,3.58,17.33,3.92,9.19.53,22.81-2.74,23.72-13.92.18-2.24-2.94-2.29-3.64-.49-1.34,3.4-2.28,6.23-5.66,8.13-4.2,2.36-7.77,4.36-12.73,4.7-9.94.7-20.49-3.59-23-14-.55-2.32-4.13-1.34-3.57,1,2.86,12,15,17.57,26.55,16.77,6-.42,10.62-2.74,15.67-5.8,3.71-2.25,4.78-5.9,6.29-9.75l-3.64-.49c-.85,10.48-16.2,10.64-23.51,9.93-4.61-.45-9.21-1-13-3.92-3.52-2.75-5.68-6.69-7.69-10.59-1.09-2.12-4.29-.25-3.2,1.87Z"/><path class="cls-6" d="M212.29,273.3c-4.39,6.86-16,9.81-23.71,9.77-8.9,0-15.71-7-20.59-13.8l-1.46,1.12c6.39,7.52,13.15,14.32,23.35,15.78,7.18,1,15.71-.22,19.81-6.84a.93.93,0,0,0-1.27-1.27c-4.95,2.77-9.77,5.25-15.6,4.81v1.85c5.06.24,10.26.13,13.91-3.82.81-.87-.5-2.19-1.31-1.31-3.33,3.59-8.09,3.49-12.6,3.28-1.2-.06-1.18,1.76,0,1.85,6.12.47,11.32-2.14,16.54-5.06l-1.27-1.27c-4.53,7.32-15.42,7.24-22.7,4.85-7.45-2.45-12.63-8.37-17.55-14.16-.67-.79-2.07.27-1.46,1.12,5.23,7.25,12.63,14.84,22.19,14.72,8.59-.11,20.41-3,25.31-10.68.64-1-1-1.94-1.6-.94Z"/><path class="cls-9" d="M236.14,173c10.83-2,14.29,2.71,17.52,6.14s-4.72,10.53-14.71,12.4c-11.66,2.17-20.13-.83-22.87-1.35C216.43,187.44,219.73,177.42,236.14,173Z"/><path class="cls-10" d="M157.44,247.24s8.65,32.12,25.94,35.21,26.7.11,46.09-27.74c-6.56,4.27-19.15,25.15-38.92,24.54S160.53,251.57,157.44,247.24Z"/><path d="M192.74,255.83c17.57-1.76,39.55-3.18,38-2.18-.92.61-2.09,4.9-37,4-22.26-.57-36-9-38-12C157.77,244.65,171.51,252.08,192.74,255.83Z"/><path d="M205.36,176.51c-1.43,1.71,3.09,6.79,4.32,6.79s36.45-11.74,38.92-11.74,10.5,1.24,9.88,0-12.84-20.92-14.71-15.92C242.69,158.54,208.44,172.81,205.36,176.51Z"/><ellipse cx="234.72" cy="181.38" rx="4.12" ry="8.33" transform="translate(-29.27 46.1) rotate(-10.56)"/><path d="M137.66,168.15c4.35-.4,38.3,13,40.15,13.59s5.53-7.47,4.32-6.79c-2.8,1.57-38.82-17.94-40.29-21.84-1.87-5-18.09,16-18.71,17.21S134.26,168.46,137.66,168.15Z"/><ellipse cx="156.09" cy="179.68" rx="8.29" ry="4.7" transform="translate(-64.83 268.25) rotate(-70.87)"/><path class="cls-4" d="M193.89,174.35s2.54,77.21-11.12,46.95C177.83,208.94,183.9,171.83,193.89,174.35Z"/><path class="cls-11" d="M186.51,233.68a2.62,2.62,0,0,1-.8-.61c-.88-1-2.31.47-1.44,1.44a4.26,4.26,0,0,0,1.22.93c1.16.6,2.19-1.15,1-1.76Z"/><path class="cls-11" d="M178.54,234.6c.91,0,1.88.89,2.63,1.34l2.5,1.51.24-1.86c-.43.16-2.07-1.06-2.48-1.23a3.18,3.18,0,0,0-2.27-.22c-.91.25-1,1.78,0,2a6.65,6.65,0,0,0,1.66.07,1,1,0,0,0,1.7.45c1-.89,2.72-.92,3.92-1.45,1-.43.43-1.89-.51-1.89a3.81,3.81,0,0,0-1.74.39l1.39,1.39c.38-.6,1.13-.7,1.38-1.38a2.08,2.08,0,0,0-.08-1.3,4.77,4.77,0,0,0-1.79-2.71,4,4,0,0,0-3.14-.64c-1.15.4-1.19,2-2.28,2.5l1,.26q.16.5.26,0a1.78,1.78,0,0,1,.4-.62,3.21,3.21,0,0,1,1.25-.82l-1.25-.71,0,.24c.19,1.29,2.15.74,2-.54l0-.24a1,1,0,0,0-1.25-.71c-1.34.53-4.76,3.17-2.81,4.79a1,1,0,0,0,1,.26,4.31,4.31,0,0,0,1.67-1.33c.57-.67.56-1.43,1.52-1.07A2.73,2.73,0,0,1,185,233.3c-.1-.51.38-.73-.39-.23a2.93,2.93,0,0,0-.81,1c-.59.93.54,1.78,1.39,1.39l.71-.12-.51-1.89c-1.48.66-3.08.62-4.33,1.77l1.7.45c-.43-1.53-1.83-1.27-3.08-1.49v2c1.66-.46,3,2.12,4.75,1.45a1,1,0,0,0,.24-1.86c-1.79-1.08-4-3-6.15-3.13-1.31-.07-1.3,2,0,2Z"/><path class="cls-11" d="M200.92,236.66a1.9,1.9,0,0,0,1.5,2.59c1.48.27,1.87-.77,2.85-1.52s2.74.58,3.24-.95c.42-1.28-.93-1.37-1.69-1.69l.71.71c-.26-1-.25-2-.52-3a15.7,15.7,0,0,0-1.15-2.84l-1.6,1.23,1.23,1.2c.23.22.74,1,.74.63l.5-.88c.45-.23.39.17.25-.43a3,3,0,0,0-.38-.8,3.13,3.13,0,0,0-1.09-1.08,2.38,2.38,0,0,0-2.63,0c-.75.6-.59,1.74-.65,2.61a6.29,6.29,0,0,0,.67,3.72,1,1,0,0,0,1.76-1,4.53,4.53,0,0,1-.39-2.69c0-.55-.16-1.45.58-.52a5.48,5.48,0,0,1,.47,1,1.67,1.67,0,0,0,2.44,1,1,1,0,0,0,.5-.88c0-1.37-1.67-2.39-2.57-3.26a1,1,0,0,0-1.6,1.23,17.55,17.55,0,0,1,1.37,4.94,1.43,1.43,0,0,0,.45.9,1.27,1.27,0,0,0,.48.24c.7.16.06.18.1-.6l.5-.88a12.5,12.5,0,0,1-1.41-.25,2.37,2.37,0,0,0-1,.27,3.05,3.05,0,0,0-.8.64c-.15.16-.9.79-.95.91.49-1.21-1.48-1.74-2-.54Z"/><path class="cls-2" d="M123.77,267.65c2.21-2.21-13.22-120,5.59-142.64,23.14-27.85,48.45-27.29,63.28-5,19.15-21.62,43.94-17.35,60.36,5.67,24.09,33.78,1.33,127.84,2.8,141.82,0,0,40-164.17,14-187.65-35.74-32.34-130.8-26.1-154.43-2.47S115.77,242.65,123.77,267.65Z"/><path class="cls-11" d="M192.88,167.73c-.56,4.38,3.65,5,6.48,7.6,4.15,3.86,9.13,11.16,9.53,17,.08,1.2,2,1.21,1.87,0-.33-4.81-3.19-9.53-5.91-13.4a31.24,31.24,0,0,0-4.17-4.9c-1.75-1.63-6.27-3.63-5.93-6.27.15-1.19-1.72-1.18-1.87,0Z"/><path class="cls-12" d="M374.42,150.11c-.78-6.62-56.45.74-77,16.19,19.34,7.37-29.78,123.33-64,163.33C260.59,368.61,379.77,192.78,374.42,150.11Z"/><path class="cls-12" d="M2.35,156c-1.47-7.36-18.59-23.15,82.4,11-7.27,4.92,16.92,153,61.8,163.33C142.14,348,79.83,358.15,2.35,156Z"/><path class="cls-13" d="M84.75,167c-7.18-10.76-61.29-33.9-82.4-20.6C55.89,173.74,77.39,166.29,84.75,167Z"/><path d="M220,20.33c1.29,22.61-14.59,48.91-37.2,50.2S139.5,49.61,138.21,27s18-25.07,40.56-26.36S218.67-2.28,220,20.33Z"/><path class="cls-12" d="M149.61,54.57l-1.38,4.84S177.29,73.34,213.53,57c-1.76-3.34-2.47-4.66-2.47-4.66S178.46,60.5,149.61,54.57Z"/><circle class="cls-14" cx="157.27" cy="198.23" r="23" transform="translate(-48 346.2) rotate(-87.36)"/><circle class="cls-15" cx="157.31" cy="198.38" r="23" transform="translate(-48.1 346.38) rotate(-87.36)"/><circle class="cls-15" cx="234.23" cy="201.92" r="23" transform="translate(21.73 426.6) rotate(-87.36)"/><path class="cls-14" d="M180.29,199.44c2.59-7.1,21.81-17,31,1.43"/><circle class="cls-14" cx="234.27" cy="202.07" r="23" transform="translate(21.63 426.79) rotate(-87.36)"/><line class="cls-16" x1="134.31" y1="198.23" x2="107.66" y2="182.84"/><line class="cls-16" x1="257.23" y1="201.92" x2="271.81" y2="187.18"/><path class="cls-17" d="M297.22,166.12c7.17-10.67,74.05-32,77.05-17C323.33,174.65,304.07,165.69,297.22,166.12Z"/></g></g></svg>