<svg xmlns="http://www.w3.org/2000/svg" xmlns:xlink="http://www.w3.org/1999/xlink" viewBox="0 0 1420.48 677.44"><defs><style>.cls-1{fill:#140101;}.cls-1,.cls-2,.cls-3,.cls-4{stroke:#000;}.cls-1,.cls-2,.cls-3,.cls-4,.cls-5{stroke-miterlimit:10;}.cls-1,.cls-2,.cls-3,.cls-5{stroke-width:0.74px;}.cls-2{fill:#600;}.cls-3{fill:#300;}.cls-4{fill:#ede698;stroke-width:0.62px;}.cls-5{fill:#fcfcfa;stroke:#020200;}.cls-6{fill:url(#linear-gradient);}.cls-7{fill:url(#linear-gradient-2);}.cls-8{fill:#020200;}.cls-9{fill:url(#linear-gradient-3);}.cls-10{fill:url(#linear-gradient-4);}.cls-11{fill:url(#linear-gradient-5);}.cls-12{fill:url(#linear-gradient-6);}.cls-13{fill:url(#linear-gradient-7);}.cls-14{fill:url(#radial-gradient);}.cls-15{fill:url(#radial-gradient-2);}.cls-16{fill:url(#radial-gradient-3);}.cls-17{fill:url(#radial-gradient-4);}.cls-18{fill:url(#radial-gradient-5);}.cls-19{fill:#d1c279;}.cls-20{fill:url(#radial-gradient-6);}.cls-21{fill:url(#radial-gradient-7);}</style><linearGradient id="linear-gradient" x1="679.11" y1="188.85" x2="672.67" y2="587.03" gradientUnits="userSpaceOnUse"><stop offset="0" stop-color="#005a80"/><stop offset="0.27" stop-color="#00415e"/><stop offset="0.55" stop-color="#00293d"/><stop offset="0.66" stop-color="#032435"/><stop offset="0.81" stop-color="#091621"/><stop offset="0.99" stop-color="#140101"/></linearGradient><linearGradient id="linear-gradient-2" x1="694.28" y1="208.59" x2="697.19" y2="585.31" gradientUnits="userSpaceOnUse"><stop offset="0" stop-color="#005a80"/><stop offset="0.28" stop-color="#00415e"/><stop offset="0.59" stop-color="#00293d"/><stop offset="0.68" stop-color="#032435"/><stop offset="0.83" stop-color="#091621"/><stop offset="0.99" stop-color="#140101"/></linearGradient><linearGradient id="linear-gradient-3" x1="645.31" y1="373.46" x2="564.53" y2="373.46" gradientUnits="userSpaceOnUse"><stop offset="0" stop-color="#00182d"/><stop offset="0.35" stop-color="#001120"/><stop offset="0.98"/></linearGradient><linearGradient id="linear-gradient-4" x1="744.5" y1="366.51" x2="825.43" y2="366.51" xlink:href="#linear-gradient-3"/><linearGradient id="linear-gradient-5" x1="700.07" y1="218.78" x2="703.11" y2="596.65" gradientUnits="userSpaceOnUse"><stop offset="0" stop-color="#003a5f"/><stop offset="0.01" stop-color="#003a5e"/><stop offset="0.74" stop-color="#00142b"/><stop offset="0.83" stop-color="#060e1e"/><stop offset="0.98" stop-color="#140101"/></linearGradient><linearGradient id="linear-gradient-6" x1="698.62" y1="226.32" x2="757.32" y2="226.32" xlink:href="#linear-gradient-3"/><linearGradient id="linear-gradient-7" x1="704.86" y1="229.06" x2="621.66" y2="239.77" xlink:href="#linear-gradient-3"/><radialGradient id="radial-gradient" cx="707.72" cy="281.55" r="6.62" xlink:href="#linear-gradient-3"/><radialGradient id="radial-gradient-2" cx="701.1" cy="346.29" r="6.62" xlink:href="#linear-gradient-3"/><radialGradient id="radial-gradient-3" cx="695.21" cy="418.39" r="6.62" xlink:href="#linear-gradient-3"/><radialGradient id="radial-gradient-4" cx="693.74" cy="489.76" r="6.62" xlink:href="#linear-gradient-3"/><radialGradient id="radial-gradient-5" cx="690.53" cy="559.48" r="6.62" xlink:href="#linear-gradient-3"/><radialGradient id="radial-gradient-6" cx="1161.66" cy="153.35" r="4.49" xlink:href="#linear-gradient-3"/><radialGradient id="radial-gradient-7" cx="194.66" cy="174.35" r="4.49" xlink:href="#linear-gradient-3"/></defs><title>page3vampbody</title><g id="Layer_2" data-name="Layer 2"><g id="Layer_1-2" data-name="Layer 1"><g id="body"><path class="cls-1" d="M614.28,188.11s-139.79-44.88-169.21-53S254.52,61.57,158.14,61.57,60.29,40.24,27.92,77.76c-23.54,33.11-38.24,563,51.76,595,81,0,1181,2,1256,4,26.24-40.58,45.7-63.22,64-150C1412,468,1287.78,14.76,1267.6,3.45,1246-8.64,1067.95,14.78,792.19,178,797.48,212.39,676.82,254.33,614.28,188.11Z"/><path class="cls-2" d="M106.64,91S129.45,268.31,128,302.89s45.61,290.62,28.69,321.88-53.47-42-104.47-35-29.43-107.41-22.07-217S51.46,141,51.46,141Z"/><path class="cls-3" d="M614.28,188.11s-212.62-68.42-297.23-78S230.24,88.06,188.3,83.64s-81.66,58.86-89.76,67.69-11,8.83-19.86,11.77,14,52.24,15.45,61.8S89.72,244,89.72,254.33,153,546.41,157.4,610.42s-67-28.69-105.94-11.77,77.25,24.28,88.29,43.41S108,675.37,79.67,672.74s-42-1.57-55-29c-17-36-31.95-27.32-20-100,12-73-4.35-198.61-1.59-242.54S13,138.2,20.82,99.89,48.95,53.34,78.9,56.35s74.72,5.31,83.6,5.26S227.55,64,299.16,87.08,614.28,188.11,614.28,188.11Z"/><path class="cls-4" d="M208.9,118.22s-22.81-11-29.43-16.19-21.34-19.86-21.34-22.81,2.21-8.83-9.56-11.77-28-2.94-31.64,0-5.15,8.83-22.07,15.45,16.19,12.51,26.49,3.68,12.51.74-.74,10.3-12.51,34.58-10.3,36.79,14,11.77,30.16,14,25.75,2.94,30.16,5.15,17.17,10,17.17,10l24.76-8.57Z"/><path class="cls-5" d="M243.95,122.19S221,110.5,215.89,110.5s-5.15,5.15-6.62,8.09S210,134,179.84,173.77c-5.15,7.36,29.43,17.66,29.43,17.66l.74,2.94s3.68,5.89,8.09,3.68,39.73-45.61,36.79-68.42C252.68,125.95,243.95,122.19,243.95,122.19Z"/><path class="cls-6" d="M631.2,196.21S597.73,173,541.81,180.39,494,193.63,435.14,183.33,251.21,123,245.32,122.27s8.83,1.47,8.09,10.3-24.28,59.59-33.84,62.54-10.67-2.58-10.67-2.58-4.78,9.2,32.74,23.18,113.3,50,123.6,54.44S382.16,287.8,388,287.8s59.59-2.21,77.25,2.94,74.31,22.81,81.66,29.43-1.08,320.58-15.79,347.06c34.68-4.85,267.67-4,311,1-11-33.11-12-362-1.66-368.66s99.32-26.49,112.56-25.75,25-15.45,48.56-24.28,147.88-65.48,147.88-65.48-42.67-61.8-35.31-82.4c13.61-11.4-90.86,35.68-90.86,35.68s-51.5,19.86-61.06,27.22-13.24,3.68-33.84,6.62-74.31,18.39-85.34,18.39-22.9-9.55-37.52-11.77c-13.43-2-57.2,9.42-78.72,23.54-6.88,4.51-48.56,8.09-64-.74C653.09,195,647.39,202.09,631.2,196.21Z"/><path class="cls-7" d="M656.59,211.29l-29.43,44.88-11.9,151.67,23.92,147.4v47c6.73,10.27,81.18-86.33,109,6,0-16.92-3.87-48.37-4.69-51.6s32.29-117.27,32.29-117.27V328.27l-7.36-84.61-28-28.69-40.1,50.4s1.84-11.4,1.1-15.08-23.54-19.86-23.54-19.86Z"/><path class="cls-8" d="M214.82,200.68A29.82,29.82,0,0,0,244,184.61c.22-.43-.43-.81-.65-.38a29.1,29.1,0,0,1-28.49,15.71c-.48,0-.48.71,0,.75Z"/><path class="cls-8" d="M387.47,287.09c-10.13-1.63-14.67-10.94-17.31-19.85A142.35,142.35,0,0,1,365,239.9c0-.48-.79-.48-.75,0,1,10.84,2.86,22,6.71,32.17,2.84,7.55,7.9,14.39,16.31,15.74.47.08.68-.65.2-.72Z"/><path class="cls-8" d="M435.86,286.48l-22.39.08c-6,0-24.95,2.66-23.05-8.23.08-.47-.64-.67-.72-.2-1.13,6.52,5.38,9,10.79,9.2,11.75.44,23.61-.05,35.37-.1a.38.38,0,0,0,0-.75Z"/><path class="cls-8" d="M478.65,189.31a63.25,63.25,0,0,0-36.81,22.49c-.3.37.23.91.53.53A62.65,62.65,0,0,1,478.85,190c.47-.1.27-.82-.2-.72Z"/><path class="cls-8" d="M352.45,161.37c-7-1.16-16.14-1.82-19.33,6.1-.18.45.54.64.72.2,3-7.5,11.91-6.65,18.41-5.58.47.08.68-.64.2-.72Z"/><path class="cls-8" d="M977.48,262.66c12.43-9.12,25.78-19.65,26.89-36.26,0-.48-.72-.48-.75,0-1.09,16.32-14.35,26.68-26.52,35.61-.39.28,0,.93.38.65Z"/><path class="cls-8" d="M959.94,272.78a19,19,0,0,0,10.53-18.49c0-.48-.79-.48-.75,0a18.29,18.29,0,0,1-10.15,17.84c-.43.22-.05.86.38.65Z"/><path class="cls-8" d="M1137.18,187.22c-6.6-1.2-14.2,2.65-18.58-4.34-3.85-6.14-6.62-13.31-9.19-20-.17-.45-.9-.25-.72.2,2.69,7,5.46,15.41,10.06,21.47s11.94,2.29,18.23,3.44c.47.09.67-.64.2-.72Z"/><path class="cls-8" d="M966.93,162a29.89,29.89,0,0,0-21.26,20.57.38.38,0,0,0,.72.2,29.13,29.13,0,0,1,20.74-20,.38.38,0,0,0-.2-.72Z"/><path class="cls-8" d="M589.32,180.65a30.66,30.66,0,0,0-31.73,18.85c-.18.45.54.64.72.2a29.91,29.91,0,0,1,31-18.3c.48.06.47-.7,0-.75Z"/><path class="cls-8" d="M562.15,298.61c20.65,68.45,40.49,137.12,58.09,206.42q8,31.6,15.58,63.31c.11.47.84.27.72-.2Q611.6,463.83,581.48,360.9q-9.16-31.29-18.61-62.49a.38.38,0,0,0-.72.2Z"/><path class="cls-8" d="M745.54,565.34c3-15.87,7-31.5,13.53-46.33,6.35-14.48,14.53-28.09,22.49-41.72a.38.38,0,0,0-.65-.38c-8.17,14-16.58,28-23,42.9-6.26,14.53-10.14,29.82-13.09,45.33-.09.47.63.67.72.2Z"/><path class="cls-8" d="M838.71,312.1c1.86-20,4.24-41.42,18.93-56.57.34-.35-.19-.88-.53-.53-14.82,15.29-17.27,36.86-19.15,57.1,0,.48.71.48.75,0Z"/><path class="cls-8" d="M547.58,322.84a86.9,86.9,0,0,0-9.22-38.16c-.22-.43-.86-.05-.65.38a85.93,85.93,0,0,1,9.12,37.78.38.38,0,0,0,.75,0Z"/><path class="cls-8" d="M684.55,585.24c-.55-38.25-2.93-76.4-4.68-114.6-1.93-42.09-2.13-84.35-.22-126.45,1.22-26.86,3.92-53.67,10-79.89.11-.47-.61-.67-.72-.2-10.56,45.38-11.11,92.45-11.3,138.81-.16,37.51,1.86,74.9,3.78,112.34,1.19,23.32,2,46.64,2.38,70a.38.38,0,0,0,.75,0Z"/><path class="cls-8" d="M652.94,559.58c-7.14-37.56-15.3-75.13-19.59-113.15-4.4-39-2.93-78.25,1.13-117.23,2.39-23,5.59-45.83,8.8-68.69.07-.47-.66-.68-.72-.2-5.5,39.23-11,78.57-12.4,118.2s2.94,78.55,10,117.51c3.86,21.28,8,42.51,12.05,63.76.09.47.81.27.72-.2Z"/><path class="cls-8" d="M739.38,549.1c7.54-34.41,15-68.87,19.64-103.82A726,726,0,0,0,765.08,338q-.52-30.3-3.57-60.48c0-.48-.8-.48-.75,0A741.5,741.5,0,0,1,751,489.9c-3.75,19.75-8,39.38-12.35,59-.1.47.62.67.72.2Z"/><path class="cls-8" d="M834.52,189.19a33.06,33.06,0,0,1,33,19.86c.19.44.84.06.65-.38a33.78,33.78,0,0,0-33.7-20.24c-.48,0-.48.79,0,.75Z"/><path class="cls-3" d="M792.33,177.81s297-119.51,386.16-123,92.8-8.66,75.14,56.08-61.06,355.35-53,370.07,175.1,29.43,185.4,30.16-102.28,24.46-110.37,40.64,60,125,60,125c3.13-5.23,101-67,82-179-20.42-120.48-127-467.94-145.91-488.84C1268.33.51,1259-.4,1242,.79S1061.6,15.22,792.33,177.81Z"/><path class="cls-2" d="M1223,53s-7.31,3.07-5.25,10.22c2.8,7.88-17.07,18.92-2.35,28.48,0,0,14,1.47,20.6-3.68-2.21,5.15-7.29,21.13-15,27.49s-33.51,347-20.27,365.39c-.74-12.51-4.57-9.29,6.17-87.78s35.53-234.53,41.9-261.72,18.88-64.71,10-72.07C1250.58,52.54,1247.49,53.33,1223,53Z"/><path class="cls-4" d="M1145.73,93.37s27.7-7.52,31.38-20.76.74-16.19,1.47-19.86,10.3-9.56,16.19-8.83,13.24-5.15,21.34-6.62,25-10.3,32.37-8.83,8.83,8.83-6.62,17.66-12.51,0-22.07,9.56c-5.62,6,2,8.36-6.62,19.13-7.57,9.49-.51,17.71,4.41,16.92,2.91-.46,15.45,0,18.39-3.68-2.21,3.68-8.09,24.28-16.92,28.69S1167.63,141,1167.63,141l-33.19-16.19Z"/><path class="cls-5" d="M1115.41,99.89s25.28-10,28.22-9.25,29.43,58.86,28.69,66.21-30.51,15.42-30.51,15.42S1102.63,112.08,1115.41,99.89Z"/><path class="cls-9" d="M638.17,549.24l-61.41-251.5,28.69-24.28-19.13-14,69.89-61.8S598.45,353.54,638.17,549.24Z"/><path class="cls-10" d="M745.17,541.24,825.43,311,804.1,281.55l21.34-13.24L744.5,191.79S802.56,330.09,745.17,541.24Z"/><path class="cls-11" d="M656.22,197.68s-13.73,28-13,51.56c6.57-16.12,13.78-22.87,21.87-22.87,6.62,4.41-.74,11,19.86,17.66s16.19,18.39,11,30.9-26.21,185-15.77,323.31c17.79-.71,24.85-47.73,28.28-143.06,3.68-102.26,15.45-189.81,18.39-206.74s10.3-15.45,12.51-21.34,17.87,17.1,18.13,24.74c-1.21-13-.48-38-13.72-60.79-15.73,34.17-34.13,52-43.41,74.31,10.74-24.17-4.66-34.62-2.94-33.84C677.62,222.52,661.88,213.14,656.22,197.68Z"/><path class="cls-12" d="M699.16,266.22c-3.92,2.27,14.5-36.73,28.06-53.46,10.16-12.53,13.2-18.51,14.71-22.81,4.41-12.51,11.9,7.4,15.39,60.14-.62-2.3-8.21-21.21-15.76-23.72-2.21-.74-1.9,1.36-3.68,2.94-6.62,5.89-6.51,6.83-7.72,8.64C722.43,251.39,714.14,258.24,699.16,266.22Z"/><path class="cls-13" d="M654.07,196.24s-14.84,31.21-12.89,61c3.1-7.74,14.85-36.31,22.92-28.79s-5.9,8.84,28.25,21.34c9.31,3.21,8.54,16.36,6.21,19.46,6.2-10.82,13.58-35.21-7.37-42.17C666.71,218.93,662.46,200,654.07,196.24Z"/><circle class="cls-14" cx="707.72" cy="281.55" r="6.62"/><circle class="cls-15" cx="701.1" cy="346.29" r="6.62"/><circle class="cls-16" cx="695.21" cy="418.39" r="6.62"/><circle class="cls-17" cx="693.74" cy="489.76" r="6.62"/><circle class="cls-18" cx="690.53" cy="559.48" r="6.62"/><path class="cls-19" d="M129.17,67.24c43.37,3.31,7.4,14.49,47,37,39,22.16,42.36,30.45-3,17-13.87-6-12.78-40-31-44C119.17,72.24,121.1,66.62,129.17,67.24Z"/><path class="cls-19" d="M102.4,79.52c2.78.72.75,8.25-13.22,6.72,0-3,.42-1.3,7.71-4.15S102.4,79.52,102.4,79.52Z"/><path class="cls-19" d="M1154.17,94.24c49-8,13-60,55-44C1224.17,54.24,1165.17,104.24,1154.17,94.24Z"/><path class="cls-19" d="M1238.17,30.24s-1,9,14,4c7.33-3.52,2-7-2-7S1239.9,28.11,1238.17,30.24Z"/><circle class="cls-20" cx="1161.66" cy="153.35" r="4.49"/><circle class="cls-21" cx="194.66" cy="174.35" r="4.49"/></g></g></g></svg>