<svg xmlns="http://www.w3.org/2000/svg" viewBox="0 0 132.67 80.46"><defs><style>.cls-1{fill:#d97aa5;}.cls-2{fill:#a14077;}</style></defs><title>page2brain</title><g id="Layer_2" data-name="Layer 2"><g id="pics"><path class="cls-1" d="M13,35.46s2-15,9-19a43.56,43.56,0,0,1,13-5l10-1s8-7,19-5,10,4,10,4,4-8,15-6,11,6,11,6,12,2,15,7S116.5,28,116.5,28s12,5,12,14V54a17.78,17.78,0,0,1,2,11c-1,6-5,10-7,10s-14-5-15-5-3,4-6,5a32.17,32.17,0,0,1-8,1l-5-3-5,4-6,2-7-1-4-3-9,1-6-5-7,4-13,1-5-3-5-6-5-1-10-5-5-11,2-9Z"/><path class="cls-2" d="M45,26.46c-3-1-6-2-13,0s8-12,20-3c6-3,15-8,25,1,6,6-6-4-22,3,5,3,4,7,4,7s8-3,14,1-3,1-7,2-6,1-10,5-2-4,1-6C55,33.46,51,28.46,45,26.46Z"/><path class="cls-2" d="M21,44.46c2-2,19-7,26,7,4-4,14-8,29-2,8-6,17-4,19-3s0,1-7,2-8,4-8,4,5,3,6,7-1-1-9-4-14-5-24-2-7,7-9,5,2-6,2-6a23.61,23.61,0,0,0-12-6c-7-1-10-1-13,0S19,46.46,21,44.46Z"/><path class="cls-2" d="M89,32.46c-1.86,1.24-2,8-4,4s-3-3-4-4,2,0,4,0,1-3,7-3S92,30.46,89,32.46Z"/><path class="cls-2" d="M130,53.46s3-3,0-14-12-12-12-12,4-7-2-13a18.16,18.16,0,0,0-14-5s-1-7-10-9a18.21,18.21,0,0,0-17,5c-3-2-11-4-18-3s-9,3-14,7c-9-1-18,1-24,6s-8,11-8,19c-7,2-11,9-11,12,0,19,21,21,21,21s0,9,13,10,19-4,19-4,3,4,6,4a35.48,35.48,0,0,0,7-1s2,4,11,4,13-6,13-6,3,5,10,4a14.34,14.34,0,0,0,10-6s14,9,20,0S130,53.46,130,53.46Zm-22,11c-3,8-10,11-16,9,2-3,2-4,1-4s-8,6-13,7-8,1-12-3c-3,1-12,0-13-2,2-2,4-4,4-5s-14,9-24,7-13-14-15-13,1,6,1,6-16-4-16-17,19-15,19-17-9,0-9,0,5-11,9-14,17-7,17-7-3,5-2,6,14-12,25-9,16,10,20,17,1-6,1-6,10,0,16,11,4,16,4,16-5-5-5-3S111,56.46,108,64.46Zm17,6c-4,5-13-1-13-1s3-7-3-18v-4a20.34,20.34,0,0,0,5,1c2,0-1-2-4-5,0-4-5-24-18-27-1-2,0-6-1-6s-2,2-2,5c-1-1-6-1-6-1s0-3-4-6,16-6,22,6,1-3,1-3,9,1,11,8,1,11,2,12,2-2,2-2,7,3,9,13,0,11-1,13-4,5,3,1C128,61.46,129,65.46,125,70.46Z"/></g></g></svg>