<svg xmlns="http://www.w3.org/2000/svg" viewBox="0 0 310.18 250"><defs><style>.cls-1{fill:#f9f8f7;stroke:#151a28;}.cls-1,.cls-3{stroke-miterlimit:10;stroke-width:0.84px;}.cls-2{fill:#331e1e;}.cls-3{fill:#edcfc5;stroke:#000;}.cls-4{fill:#ccb0a8;}</style></defs><title>page4skullbottom</title><g id="Layer_2" data-name="Layer 2"><g id="Layer_1-2" data-name="Layer 1"><path class="cls-1" d="M117.9,174.14c-3.84-1.71-7.89-4.4-11.76-13.44-2.52-5.88-5.88-14.28,2.52-14.28s10.92,0,14.28,12.6C127.67,176.74,125.46,177.5,117.9,174.14Z"/><path class="cls-1" d="M126.3,146.42c4.18-.35,10.08,3.36,12.6,15.12s4.2,17.64-1.68,17.64-10.65-2.88-12.47-13.2S116.22,147.26,126.3,146.42Z"/><path class="cls-1" d="M148.14,146.42c5,.25,13.44-.84,13.44,12.6s1.62,21.39-6.72,22.68c-10.92,1.68-12.78-5.9-14.79-14.71S131.34,145.58,148.14,146.42Z"/><path class="cls-1" d="M172.49,146.42c5.87.31,14.29-1.68,10.92,17.64s-6.72,19.32-15.12,18.48c-5.08-.51-6.73-16.82-6.73-20.59S156.54,145.58,172.49,146.42Z"/><path class="cls-1" d="M195.17,146.42c5.94,0,10.92-.84,7.56,16s-6.72,18.48-16,19.32c-6.48.59-3.36-23.52-.84-31.07C187.43,146.12,191.81,146.42,195.17,146.42Z"/><path class="cls-2" d="M259.49,41.17S244.35,43.9,242,47.39s-7.35,13.24-5,34.63c2.73,2.9,23.62,6.06,23.41-4.74S259.49,41.17,259.49,41.17Z"/><path class="cls-1" d="M214.49,145.58c4.2,0,14,1.64,2.52,20.16-15.12,24.36-15.26,4.2-14.77,1.26s1.33-15.54,3.85-18.06S209.45,145.58,214.49,145.58Z"/><path class="cls-2" d="M65.25,79.09S74.09,90.35,92.43,85c.7-6.19,3.22-36.42-26.18-44C65.41,55.3,65.25,79.09,65.25,79.09Z"/><path class="cls-1" d="M96.07,166.58c5,5,14,7.75,12.6,2.52-2.52-9.24-6.27-18.4-7.56-20.16-2.14-2.94-13.62-6-12.6,0C90.3,159.41,94.88,165.39,96.07,166.58Z"/><path class="cls-1" d="M227.08,169.94c-5,5-11.51,6.91-10.08,1.68,2.52-9.24,6.38-20.9,7.65-22.68,2.37-3.31,11.19-6.26,10,0C232.65,159.38,230.44,166.58,227.08,169.94Z"/><path class="cls-3" d="M67.51,39.76c0,10.08-9.78,89.9,11.76,120.94,8.22,11.85,29.41,8.37,37.79,11.76,30.71,12.39,71.39,10.08,88.18,3.36,10.17-4.07,30.86-2.8,39.47-14.28C263.25,136.84,260.1,69.46,259,39.76c4.2,0,13.58-1.82,22.75,2,9.17-4.55,20.16-11.74,28.1-22.42,0,0-4.72,5.88-2.59,19.86-1.23,14-15.5,49.25-32.3,48.41-.84,11.76-6.72,59.63-4.74,76.57-.3,15.82-.6,26.76-16,44s-22.11,25.6-49.82,38.2c-30.23,5.88-78.95,2.52-98.26-.84-16-10.08-47-29.39-61.31-60.47C42.32,156.5,41.48,86,41.48,86s-16.3-1.72-29.15-35.29c0,0,4-31.06-12-50.37C18,18.77,20.48,37.24,67.51,39.76Z"/><path class="cls-4" d="M143.92,246.69a313.8,313.8,0,0,1-34.49-3.18c-22.38-7.72-58.06-46.83-62.2-59.25-4-12-3.24-96.59-3.23-97.44l0-1.66-1.52-.67c-.2-.09-19.9-9.15-27.89-34.19,0-2.19,0-4.23.09-6.21.18-8.29.33-15-2.56-24.59,10.52,11.1,27.2,23,50.37,23,.78,0,1.57,0,2.36,0-2.39,50.17-2.53,74.7,2.64,96,4.55,18.78,11.53,29.4,20.76,31.57,3.37.79,7.93,1.41,12.75,2.06,4.52.61,9.14,1.24,12.84,2a35.58,35.58,0,0,1,5.37,1.82c7.56,3,19,7.43,49.08,7.43,11.92,0,13.11,2.3,13.2,2.56,1.13,3.06-10.66,13.1-17.71,19.1-14,11.89-28.39,24.18-25.52,34.64A12.35,12.35,0,0,0,143.92,246.69Z"/></g></g></svg>