<svg xmlns="http://www.w3.org/2000/svg" xmlns:xlink="http://www.w3.org/1999/xlink" viewBox="0 0 1655.8 1003.9"><defs><style>.cls-1{fill:url(#linear-gradient);}.cls-2{fill:url(#linear-gradient-2);}.cls-3{fill:#151a28;}.cls-4{fill:url(#linear-gradient-3);}.cls-5{fill:#ffff41;}.cls-5,.cls-7{stroke:#000;stroke-miterlimit:10;}.cls-6{fill:url(#linear-gradient-4);}.cls-7{stroke-width:1.06px;}</style><linearGradient id="linear-gradient" x1="-451.87" y1="1017.43" x2="-423.17" y2="775.04" gradientTransform="matrix(-0.93, 0.36, 0.36, 0.93, 301.37, 109.05)" gradientUnits="userSpaceOnUse"><stop offset="0" stop-color="#4a3d72"/><stop offset="0.04" stop-color="#3f3663"/><stop offset="0.13" stop-color="#302c4d"/><stop offset="0.23" stop-color="#24243c"/><stop offset="0.35" stop-color="#1b1e31"/><stop offset="0.52" stop-color="#161b2a"/><stop offset="1" stop-color="#151a28"/></linearGradient><linearGradient id="linear-gradient-2" x1="-405.12" y1="417.89" x2="-434.5" y2="883.09" gradientTransform="matrix(-0.93, 0.36, 0.36, 0.93, 301.37, 109.05)" gradientUnits="userSpaceOnUse"><stop offset="0" stop-color="#4a3d72"/><stop offset="0.22" stop-color="#39325a"/><stop offset="0.52" stop-color="#25253f"/><stop offset="0.8" stop-color="#191d2e"/><stop offset="1" stop-color="#151a28"/></linearGradient><linearGradient id="linear-gradient-3" x1="-17.88" y1="78.38" x2="-472.39" y2="435.1" xlink:href="#linear-gradient-2"/><linearGradient id="linear-gradient-4" x1="-705.54" y1="160.61" x2="-439.74" y2="519.31" xlink:href="#linear-gradient-2"/></defs><title>page3bat2_1</title><g id="Layer_2" data-name="Layer 2"><g id="Layer_1-2" data-name="Layer 1"><path class="cls-1" d="M843.81,780.86c69.82-91.24,205.56-149.06,312.9-143.67,40.61,2,95.72,64.08,71.63,150.33a50.42,50.42,0,0,1,37.45,8.76l36.17,20-47.71-11.36,31.51,26.29-43.33-22.63,10.77,31.45s-1.11-1.94-11.76-13.37c-11.82-12.68-24.34-21.23-27.67-27.53-141.81-52.54-245.64-.36-274,137.73.09,7.63-3.77,20.8-5.16,36.24s-1.09,17.77-1.09,17.77l-10.79-31.44-20.34,44.44,8.76-40.09L880.45,1002l16.93-41s4.1-11.08,16.25-21.79C855.51,917,782.95,860.4,843.81,780.86Z"/><path class="cls-2" d="M348.19,634.09S220.93,666,0,610.53C266.82,466.8,340.34,433,445.83,341.17c134.4,117.75,209.91,164.11,252.39,180.91,23.27,7.47,47.69,14.77,71.09,22,5.84-56.85,31.22-102.56,75.83-121.84,43.78-18.93,103.42-5.85,157.5,28.15,17.2-20.44,34.87-41.1,49.15-60.62,47.52-90.31,81.09-325.95,81.09-325.95,199.4,70.2,261.06,60.59,522.94,32.73-152.44,150.29-278.11,205.27-278.11,205.27s85.71,130,162.43,140.61c-116,32.35-213,25.38-289.73,1.36,20.88,84,45.85,167.11,37.51,170.3,0,0-59.82-60.86-148.7-68.29-11.34,1.23-23.93,3.1-37.12,5.33q4.59,7.59,8.69,15.46c72.91,140.16-10.28,182.21-89.11,216.29S849.94,846.49,790.49,687.7q-3.45-9.22-6.36-18.43A601,601,0,0,0,728,696.64c-73.59,53.42-92.27,136.22-92.27,136.22-9,1.78-33-80.77-61-161.82C521.21,731.85,440.62,789.21,321.9,823.9,382.81,774.25,348.19,634.09,348.19,634.09Z"/><path class="cls-3" d="M1525.4,440.86c5.16.62,10.22,1.16,15.13,1.59Q1533.2,441.92,1525.4,440.86Z"/><path class="cls-3" d="M539.35,476.24c-2.53-.92-20.29-13.95-25.56-18.66-138,126.79-294.73,155-513.3,152.78C266.24,591.35,383,555,501.14,446.26c-6.66-6.12-47.23-36.51-53.48-43.09C328.8,480.9,71.77,595.37.49,610.35c68.06-36.84,282.16-148.92,445.72-269.2,60.18,15.87,46.46,82,266.77,181.61-19.07-14.95-33.5-34.34-41.18-57.44a118.31,118.31,0,0,1-5.43-48.67c-36.94,2.5-73.64-3.93-104.13-18.68-39.33-19-67.94-51.7-78.46-89.59-3.2-11.53-4.85-23.65-10.86-34.14-9.69-16.92-29.38-27.47-48.29-37.31l-64.18-33.4c-2.84-1.48-6-3.54-5.51-6.49.56-3.32,5.27-5.1,9.18-6,20.28-4.52,41-4.83,61.34-4.11,86.93,3.08,170.48,24.94,240.59,63,26.75,14.5,53.11,33.91,60.88,59.61a227.77,227.77,0,0,1,75.59-42.08A235.24,235.24,0,0,1,848.79,257c-14.85-88.34,35.32-189.7,120.93-241.45,9.46-5.72,19.61-11,30.39-12.37s22.33,1.9,27.38,10.32c6.74,11.23.09,26.09-4.33,39.29a115.8,115.8,0,0,0-4.75,55.65c3.49,20.89,13,40.05,16.28,61,6.63,42.34-16.24,89.4-54,117.78,21,15.3,36.84,35.72,45,60.35a120.42,120.42,0,0,1,3,64.16c60.22-94.76,43-45.82,104.09-348.2,241.69,77.68,303.93,44.17,522.64,33-231.36,72-390.45,38.77-480.48,22.75-7,36.81-14.86,70.36-23.44,101h0s203.68,60.28,503.92-123.69c0,0-258.22,197.36-510.13,144.94q-5.94,19.51-12.24,37.31h0s249.22,142.88,392.29,162.09c-126.86-15.33-323.22-87.57-396.9-149.31h0a712.49,712.49,0,0,1-30.78,71.39s169.91,142.8,190,250.85c-10.27-22.46-22.11-86-195.77-239.53l0,0c-30.54,34-68.28,69.74-82.8,85-23.35,37.52-14.11,74.05-87.66,105.57-90.16,38.63-110-4-146.53-12.84-19.7-3.55-41.46-1.68-81.11-6.87-48.9,77.19-57.94,288.32-57.94,288.32-7.14-163,39.29-285,42.54-293.36-40.36-13.64-82.91-31.42-123.4-54.5-2.63,22.43-32.44,233.32-233.16,338.31C360.1,792.71,505.89,723.33,539.35,476.24Z"/><path class="cls-4" d="M361.17,203.2l71.48,3.67c15.73.81,31.65,1.64,46.26,5.7,19.37,5.37,35.35,16.07,52.93,24.33,33.35,15.67,72.25,22.45,108.39,33.81s71.47,29,86.88,58.56c0,0,20.25-42.93-83.27-90.65s-210.39-56.93-263.6-50.3S361.17,203.2,361.17,203.2Z"/><path class="cls-5" d="M920.94,311.34c29.31,17.1,50.88,68.12,27.1,88.66-23.33,20.16-74.29,11-91.13-32.72-11.72-30.41-18.43-54.93-4.6-66.45C870.56,285.63,890.56,293.62,920.94,311.34Z"/><path class="cls-6" d="M861.06,274.23c-10.41-21.72,12.16-78.89,26.12-108.4,14.82-31.33,6.59-38.89,13.95-58.23,4-10.51,9.61-21.38,19.52-28a9.19,9.19,0,0,1,4.84,2.24C940.39,97.71,956,115.37,978.87,119c28.28,4.47,60.62-14,86.75-4.06,13.38,5.07,22.82,17,37.18,19.74-8.37-48-34.69-91.49-72-123.06C1019.57,2.14,1003.49-.78,997.59.17S951.31,11.81,900,75.09C898.92,76.46,802.59,216.24,861.06,274.23Z"/><path class="cls-5" d="M730.2,384c-5.13,30.3,2.85,79.74,38.29,81.19,38,1.56,59.9-43.75,46.73-82-10.6-30.81-22.79-53.27-40.78-52.67C750.7,331.29,736.06,349.33,730.2,384Z"/><ellipse class="cls-7" cx="882.62" cy="357.51" rx="7" ry="19" transform="translate(-51.95 540.27) rotate(-33.12)"/><ellipse class="cls-7" cx="794.78" cy="390.97" rx="7" ry="19" transform="translate(-49.51 123.17) rotate(-8.6)"/></g></g></svg>