<svg xmlns="http://www.w3.org/2000/svg" xmlns:xlink="http://www.w3.org/1999/xlink" viewBox="0 0 199.09 331.1"><defs><style>.cls-1,.cls-2,.cls-3,.cls-4,.cls-9{stroke:#f46f3b;stroke-width:0.95px;}.cls-1,.cls-12,.cls-2,.cls-3,.cls-4,.cls-9{stroke-miterlimit:10;}.cls-1{fill:url(#linear-gradient);}.cls-2{fill:url(#linear-gradient-2);}.cls-3{fill:url(#linear-gradient-3);}.cls-4{fill:url(#linear-gradient-4);}.cls-5{fill:url(#linear-gradient-5);}.cls-6{fill:url(#linear-gradient-6);}.cls-7{fill:url(#linear-gradient-7);}.cls-8{fill:url(#linear-gradient-8);}.cls-9{fill:url(#linear-gradient-9);}.cls-10{fill:url(#linear-gradient-10);}.cls-11{fill:url(#linear-gradient-11);}.cls-12{fill:#928c3c;stroke:#6d6731;stroke-width:0.2px;}.cls-13{fill:url(#linear-gradient-12);}.cls-14{fill:url(#linear-gradient-13);}.cls-15{fill:url(#linear-gradient-14);}.cls-16{fill:url(#linear-gradient-15);}.cls-17{fill:url(#linear-gradient-16);}.cls-18{fill:url(#linear-gradient-17);}.cls-19{fill:url(#linear-gradient-18);}</style><linearGradient id="linear-gradient" x1="81.82" y1="69.28" x2="150.59" y2="302.04" gradientTransform="matrix(-1, 0, 0, 1, 156.51, 0)" gradientUnits="userSpaceOnUse"><stop offset="0" stop-color="#dc6931"/><stop offset="0.09" stop-color="#e6611f"/><stop offset="0.21" stop-color="#f05a0e"/><stop offset="0.34" stop-color="#f65503"/><stop offset="0.5" stop-color="#f85400"/><stop offset="0.68" stop-color="#f65503"/><stop offset="0.8" stop-color="#f1590c"/><stop offset="0.9" stop-color="#e8601b"/><stop offset="1" stop-color="#dc6931"/></linearGradient><linearGradient id="linear-gradient-2" x1="-29.57" y1="244.97" x2="20.84" y2="122.06" xlink:href="#linear-gradient"/><linearGradient id="linear-gradient-3" x1="46.69" y1="87.09" x2="-12.35" y2="321.59" xlink:href="#linear-gradient"/><linearGradient id="linear-gradient-4" x1="113.51" y1="321.2" x2="73.5" y2="89.64" xlink:href="#linear-gradient"/><linearGradient id="linear-gradient-5" x1="-53.93" y1="249.6" x2="32.78" y2="80.09" gradientTransform="matrix(-1, 0, 0, 1, 156.51, 0)" gradientUnits="userSpaceOnUse"><stop offset="0" stop-color="#dc6431"/><stop offset="0.5" stop-color="#f84623"/><stop offset="1" stop-color="#dc6431"/></linearGradient><linearGradient id="linear-gradient-6" x1="-22.64" y1="301.85" x2="42.55" y2="102.1" xlink:href="#linear-gradient-5"/><linearGradient id="linear-gradient-7" x1="84.75" y1="88.3" x2="119.53" y2="318.56" xlink:href="#linear-gradient-5"/><linearGradient id="linear-gradient-8" x1="86.16" y1="75.49" x2="167.87" y2="277.26" xlink:href="#linear-gradient-5"/><linearGradient id="linear-gradient-9" x1="55.49" y1="112.17" x2="53.06" y2="341.58" xlink:href="#linear-gradient"/><linearGradient id="linear-gradient-10" x1="51.63" y1="323.46" x2="58.71" y2="244.11" xlink:href="#linear-gradient-5"/><linearGradient id="linear-gradient-11" x1="104.43" y1="109.8" x2="70.33" y2="110.16" xlink:href="#linear-gradient-5"/><linearGradient id="linear-gradient-12" x1="170.97" y1="126.77" x2="182.39" y2="127.03" gradientTransform="matrix(0.99, 0.1, -0.1, 1.07, -66.47, -96.5)" gradientUnits="userSpaceOnUse"><stop offset="0" stop-color="#979440"/><stop offset="0.5" stop-color="#a3a554"/><stop offset="1" stop-color="#979440"/></linearGradient><linearGradient id="linear-gradient-13" x1="160.5" y1="128.02" x2="173.59" y2="129.56" xlink:href="#linear-gradient-12"/><linearGradient id="linear-gradient-14" x1="181.84" y1="136.31" x2="189.29" y2="133.48" xlink:href="#linear-gradient-12"/><linearGradient id="linear-gradient-15" x1="194.96" y1="139.98" x2="202.5" y2="132.44" xlink:href="#linear-gradient-12"/><linearGradient id="linear-gradient-16" x1="156.46" y1="130.24" x2="164.03" y2="136.27" xlink:href="#linear-gradient-12"/><linearGradient id="linear-gradient-17" x1="212.9" y1="106.61" x2="218.97" y2="108.18" xlink:href="#linear-gradient-12"/><linearGradient id="linear-gradient-18" x1="203.36" y1="68.33" x2="200.89" y2="78.12" xlink:href="#linear-gradient-12"/></defs><title>page2pumpkin1</title><g id="Layer_2" data-name="Layer 2"><g id="pics"><g id="Layer_1-2" data-name="Layer 1"><path class="cls-1" d="M78.51,64.9s-2.37-7.79-21.3-2.43C.17,78.62-16.3,252.45,19,292.35c18.67,21.11,22.4,25.24,28.22,22.79s5.82-157,5.82-157Z"/><path class="cls-2" d="M118.56,72.26s-4.48-9.92,22.94-3.72c57.92,13.09,79.18,202.69,28.75,230.65-26.4,14.64-22.57-105.49-22.57-105.49Z"/><path class="cls-3" d="M180.44,257.49c2.18,27-2.18,50.29-17.47,57.65s-32-3.68-32-3.68L110.55,96.79s4.37-14.72,13.83-14.72S147,87,152,115.19,178.26,230.5,180.44,257.49Z"/><path class="cls-4" d="M90.16,104.15s-6.55-23.31-16.75-27S55.22,78.39,47.94,98,19.54,246.45,25.37,283.25s24.75,38,28.39,39.25,20.39,0,27.67-19.63S90.16,104.15,90.16,104.15Z"/><path class="cls-5" d="M184.5,268.49c-.93,12.72,9.7-20.83,11.3-39,4-45.16.6-77.06-29.19-137.57C158,74.48,138.62,71.43,135,69s16.69,15.52,21.07,26c19.29,46,36.94,38.19,33.67,119.76C188.63,241.75,184.79,264.64,184.5,268.49Z"/><path class="cls-6" d="M135.67,112.12c7,7.26,36.22,137.29,26.21,163.15-9.25,23.9-13.1,15.95-13.83,24.53s7.28,15.95,15.29,7.36,16.75-30.67,10.19-58.88-24-123.89-26.21-138.61-9.46-17.17-13.1-15.95S132.16,108.49,135.67,112.12Z"/><path class="cls-7" d="M65.41,83.3C48.26,89.08,18.1,228.55,30.83,283.86c7.85,34.12,22.57,27,25.48,27s13.1-11,2.18-22.08-20-12.88-22.21-43.55c-2-28.43,0-24.53,4.37-56.43,3.63-26.54,9.83-63.17,17.11-73s14.56-11,15.29-22.08S69,82.07,65.41,83.3Z"/><path class="cls-8" d="M59.39,68.11c-8,3.68-12,4.6-24.19,30.52C18.81,133.59,7.53,193.09,7.89,228c.26,24.56,9.76,42.06,14.13,54.33s-5.61-4.15-12.16-22.55-7-24.19-7-51.18c0-19.4,6.26-90.42,21-109.39,6.16-7.92,19.32-36.58,35.48-35.47C79,65.12,59.39,68.11,59.39,68.11Z"/><path class="cls-9" d="M96.72,85.75c-4.37-.25-18.2,6.13-21.11,17.17S63.22,187.57,64.68,241.54s4.37,72.37,10.19,81,54.6,14.72,61.88-4.91,2.18-83.41,0-105.49-8-78.51-13.1-94.45S118.56,87,96.72,85.75Z"/><path class="cls-10" d="M130.57,289.76c-2.18,4-2.18,18.44-21.11,20.93s-24.75-4-30.58-13.46-8-14-7.28-7.48-6.55,30.9,22.57,30.9,38.59-4,40-15S130.57,289.76,130.57,289.76Z"/><path class="cls-11" d="M117.6,126.36c1.53-3.49,3-33.06-20.42-32.67s-23,23.56-21.29,31.08,3-25.93,21.29-25.14S115,132.3,117.6,126.36Z"/><path class="cls-12" d="M114.79,32.15s-.15,1.57,2.08,2.57,6.31-1,5.69-2.61-4.47-2-6.93-.67-6,5.75-6.52,11.23c-1.9,19.6,7,25.93,19.89,28-1.38,5.42-2.36,7.53.87,14.25-7,.2-9.16,1.48-15.73,7.62-5-2.41-12.31-7.61-29.49-2.28,0,0-3.46-6.78-13.56-7.36.43-5.1-6-11.25-7.42-12.18,4-1.2,8.84-3.1,9.3-7.8,4.15-2.76,4.69-.34,12-19.4a39.4,39.4,0,0,1,37.44-25.64c12.39.41,15.7,6.26,15.7,6.26s5.62,6.08,2.33,16-16.76,12.61-20.6,12.24-9.16-1.68-10.62-2.61C108.42,41.81,109.79,35.62,114.79,32.15Z"/><path class="cls-12" d="M97.08,26.62S96.21,7.42,120.9,1.11,140,20.35,127.38,14.39c-2.32-8.13-10.55-3.39-13.77,4.32C113.62,18.71,102.68,21,97.08,26.62Z"/><path class="cls-13" d="M82.85,87.88c6.08-5.25,8.54-6.59,8.29-20.06s-1.56-16-.18-22.16,10.49-19.45,14.32-23.53S93.4,36.41,94.5,49.17s5.1,19.47,2.88,26.37a92,92,0,0,1-5,12.8c-2.56.71-5.75.65-7.38,2A17.81,17.81,0,0,0,82.85,87.88Z"/><path class="cls-14" d="M70.57,79.58s9.53-1.76,10.73-6.39,2.07-28.31,6.92-35.31a48.16,48.16,0,0,1,7-8s-6.87,10.8-7.48,17.07a198.41,198.41,0,0,0-.66,22.87c.31,4.77-1.64,12.24-8.66,14.85a65.92,65.92,0,0,0-7.3-1.86A14.76,14.76,0,0,0,70.57,79.58Z"/><path class="cls-15" d="M117.26,89.71s-13-13.5-13.28-26.19,3.19-22.13,5.16-25.2,3.69-6,3.69-6S100.42,44.2,101.29,67.22s13.11,25,13.11,25Z"/><path class="cls-16" d="M108.38,46.16A36.35,36.35,0,0,0,116.08,75a129,129,0,0,0,9.34,10.35l4.45-.32a17.3,17.3,0,0,1-.94-14.32C123.61,69.37,107.87,68.52,108.38,46.16Z"/><path class="cls-17" d="M65.55,72.32s9.59.28,12.43-5,7.39-24.19,7.39-24.19S79.66,58,77.89,60.21a14.7,14.7,0,0,1-5.4,4.6c-1.44,1.86-1.59,3.43-8.82,5.89Z"/><path class="cls-18" d="M134.64,35.65c-.69,7.09-6.45,10.45-10.45,11.64s26.62-2.17,10-22.76C134.95,32.51,135.18,30.16,134.64,35.65Z"/><path class="cls-19" d="M112.52,7.42c-4.21,1.66,10.84-7.65,18.38-5.34s4.7,7.57,4.7,7.57-1.16-4.07-6.55-4.59A32.73,32.73,0,0,0,112.52,7.42Z"/></g></g></g></svg>