<svg xmlns="http://www.w3.org/2000/svg" xmlns:xlink="http://www.w3.org/1999/xlink" viewBox="0 0 140 189"><defs><style>.cls-1{fill:url(#linear-gradient);}.cls-2{fill:url(#linear-gradient-2);}.cls-3{fill:url(#radial-gradient);}</style><linearGradient id="linear-gradient" x1="41.58" y1="96.59" x2="124.24" y2="210.07" gradientUnits="userSpaceOnUse"><stop offset="0" stop-opacity="0.6"/><stop offset="1" stop-opacity="0"/></linearGradient><linearGradient id="linear-gradient-2" y1="56.35" x2="73.41" y2="56.35" gradientUnits="userSpaceOnUse"><stop offset="0" stop-color="#000313"/><stop offset="0.41" stop-color="#000d20"/><stop offset="0.98" stop-color="#002038"/></linearGradient><radialGradient id="radial-gradient" cx="87.77" cy="43.71" r="59.59" gradientTransform="translate(-26.69 21.6) scale(0.99 0.81)" gradientUnits="userSpaceOnUse"><stop offset="0" stop-color="#003860"/><stop offset="0.06" stop-color="#00375e"/><stop offset="1" stop-color="#00293d"/></radialGradient></defs><title>page1tomb</title><g id="Layer_2" data-name="Layer 2"><g id="Layer_2-2" data-name="Layer 2"><path class="cls-1" d="M135.43,146.86c4.94,9.76,10.87,26-11.86,35.79,0,0-25.67,8.79-50.41,5.69S36.58,168,36.58,168l-8.29-12.52,2.66-2.12-3.42-.4-1.28-3.31h0l-3.55-.22,2.7-2-14.21-36.7,8-5.24L68.21,92.36S129.71,135.56,135.43,146.86Z"/><path class="cls-2" d="M11.88,110.64,5,66.4l3.13-1.54-3.75-1L.63,40.16S-5,17.52,17.51,6.2s55.9-3.69,55.9-3.69L22.51,112.7Z"/><polygon points="16.4 70.75 12.82 70.77 5.54 69.86 2.19 71.28 12.82 73.86 16.58 72.1 16.4 70.75"/><path d="M21.94,78s-3.49,1-10.37-2.06a39.17,39.17,0,0,0,6.65,4.53l-.08-.62,4.28-1.56Z"/><polygon points="15.07 32.63 9.07 30.13 11.27 36.16 15.07 32.63"/><path d="M15.48,30.6l-2.67-2.53L7.19,25.5l3.75,1-2.5-3.09L14.69,27l4.3.15S15,29,15.48,30.6Z"/><path class="cls-3" d="M22.51,112.7,18.13,79.77l4.38-1.54s-5-2.06-5.63-4.63a24.75,24.75,0,0,1-.63-5.14l6.25-2.57H15.63L11.25,36,15,33l.63-3.09s0-1,2.5-2.06,0-3.6,0-3.6l3.75-2.06a16.75,16.75,0,0,1-3.13-6.69C18.13,11.86,41.27-1,70,2.09S103.79,18,108.17,29.87,95.66,112.7,95.66,112.7Z"/><path d="M32.73,30.52l1.56-.14.66-.15,5.24-1c.07,0,.12,0,.13,0l.21-.11a44.29,44.29,0,0,1,4.73-.7l.73-.23q4-.65,4-.3l.09.38q-.82.72-.74,1.16a8.57,8.57,0,0,1,.36,1.05l.67,2.84q.44,1,.48,1.16l0,.13q1.35,5.75.39,6c0,.13-.25.24-.62.32l-.85.19q-1.07.24-1.1.12l-.21.11-.11,0q-4.08.74-6.48,1l-.44.1-.24,0,0,.06q5.89,1.88,14,4.18,2.45.83,2.58,1.36.08.34-1,.62l-.66.15-.24,0a2.51,2.51,0,0,1-1.1.63q-1.21.27-5.42-1.73a37.09,37.09,0,0,1-5.32-2.29,54.41,54.41,0,0,1-5.93-1.94l-.22,0a9.76,9.76,0,0,0,.49,1.61,6.12,6.12,0,0,0,.11,1,4.64,4.64,0,0,0,.32.86,12.38,12.38,0,0,0,.29,1.73l0,.19q.15.64-.07.69a1,1,0,0,1,.38.64l.07.31a2,2,0,0,1,0,.6.43.43,0,0,1,.19.3l-.08.14a.37.37,0,0,1,.17.23q.12.51-.1.56c.09.06.14.11.15.15a.41.41,0,0,1,0,.35,2,2,0,0,1,.25.55q.18.76-1.12,1l-.11,0q-1.65.24-1.83-.53a5,5,0,0,0,.1-.56,3.39,3.39,0,0,1-.29-.73l.11,0-.14-.1A23.66,23.66,0,0,0,36,50.22a12.14,12.14,0,0,0-.22-2.42q-.17-.74-1.17-4-.13-1,.09-1.08l-.14-.1a4,4,0,0,1,0-.87,2.1,2.1,0,0,1-.26-.6l0-.28a4.74,4.74,0,0,1-.88-2.27q0-1,0-1.06a17.7,17.7,0,0,1-.33-1.92,8.27,8.27,0,0,1-.4-1.23l0-.35a1.18,1.18,0,0,1-.21-.41q-.06-.26-.16-1.16a6.92,6.92,0,0,0-.69-1l-.08-.32A1.52,1.52,0,0,1,32.73,30.52Zm2.27.9,0,.13q.89,3.06,1.17,3l.07.78.89,3.79a.36.36,0,0,1,0,.28l.32.39q.14,1.59.2,1.83c.07,0,.12,0,.13,0l.73-.23,3.06-.67q.85-.19,2.24-.56a20.47,20.47,0,0,0,3.73-.63,57.21,57.21,0,0,0-.11-7.74,2,2,0,0,1-.24-.54L47,30.46l0-.67-2,.43Q40.18,30.94,35,31.42Z"/><path d="M76.41,28.11a1.56,1.56,0,0,1,1.05.4v.31q0,.23-.48.73,0,1-1,1a25.29,25.29,0,0,1-4.5.48l-.2-.08a8.75,8.75,0,0,1-1.05.08h-1l-.5.08.1.4v.4c0,.06,0,.08-.1.08l.1.15v1.35c0,.06,0,.08-.1.08a6.73,6.73,0,0,1,.2,2.08V36.8s0,.07-.1.07a2.11,2.11,0,0,1,.2,1,.57.57,0,0,1-.1.25,14,14,0,0,1,.2,1.75l-.1.17a.47.47,0,0,0,.1.23,10.87,10.87,0,0,1-.1,1.2q.1,2.1.1,2.87,0,1.19-.2,1.19a1.14,1.14,0,0,1,.2.64c0,.05,0,.08-.1.08l.1.4v.48a10.86,10.86,0,0,0,.28,2.62h.77q1.74,0,4.2-.08a5.71,5.71,0,0,0,.77.08,3.87,3.87,0,0,1,.85-.08q1.55.21,1.55.48v.56q0,1-1.05,1a.86.86,0,0,1-.3-.08l-1.73.17a12.91,12.91,0,0,0-3-.33h-.08c-.07,0-.1,0-.1-.07a1,1,0,0,1-.3.07q-.5,0-1.63-.07l-.75.07a19.55,19.55,0,0,0-2.5-.23.81.81,0,0,1-.38.08.94.94,0,0,1-.4-.08q-4.26.48-4.6.48-1.43-.26-1.43-.48V50a1.68,1.68,0,0,1,1.43-.79,7.22,7.22,0,0,1,2.12.25,3.22,3.22,0,0,1,.67-.08.74.74,0,0,1,.28.08l.48-.08a13.87,13.87,0,0,0,1.73.23h1.25a5.2,5.2,0,0,1-.3-1.58l.1-.33a1.87,1.87,0,0,1-.1-.56c0-.1,0-.15.1-.15l-.1-.56v-2.7q0-.71-.08-1.6a3.49,3.49,0,0,0,.08-.87L67,40.7c0-.06,0-.08.08-.08l-.08-.4V38.63a16.28,16.28,0,0,0-.2-2.24l.1-.15a8.06,8.06,0,0,1-.4-1.35l.1-.56a4.29,4.29,0,0,1-.58-1.83v-1q-1.59.08-2.38.08-3.37-.21-3.37-.56v-.64l.58-.79a1.23,1.23,0,0,1-1.05-.48V29q0-.56,1.55-.56.65-.08,3.35-.15l.85.07a19.86,19.86,0,0,1,2.1-.15,5.51,5.51,0,0,1,1.92.23l.48-.08q.85,0,1.92-.07l.38.07,1.73-.15.67.08Z"/><path d="M85.25,28.49q.53,0,.51.59.9,0,1.34,0l.63.09a1,1,0,0,1,.36,0q.45,0,.44.15l.62-.05,3.66.46a.9.9,0,0,1,.34,0,3.93,3.93,0,0,1,.8.23l1,0q1.34.07,1.33.17l.17-.05.45,0q.89,0,.87.53t-1.2.6l-.51,1.56.09.38a7.35,7.35,0,0,1-.24,1.13.37.37,0,0,0,.07.24,3.85,3.85,0,0,0-.12.7l0,.63a.44.44,0,0,1-.1.25.37.37,0,0,1,.07.24l0,.39a1.52,1.52,0,0,1-.3,1l.07.32,0,.57s0,.06-.09.06l.08.14a4.57,4.57,0,0,1-.24,1.12,1.19,1.19,0,0,1,.09.45.35.35,0,0,0-.11.18q.55.16.54.28l0,.38q-.92.53-.93.92l.08.12v.06q0,.36-.66.6l-.45,0-1.77-.33a3.09,3.09,0,0,1-.62.05.72.72,0,0,1-.27-.09c-.06,0-.09,0-.09.07q-.89-.11-1.34-.13l-1.17,0a1.25,1.25,0,0,1-.44-.08l-.53,0h-.08a8.76,8.76,0,0,1-1.17-.11,11.63,11.63,0,0,1-1.26,0h-.28c-.11,0-.17.06-.18.19a6.13,6.13,0,0,1-.24,1.51l.07.26q-.66,2.86-.67,3.13a2.47,2.47,0,0,0,.06.57q-.12.88-.16,1.71l0,.56q0,.34-.47.49l-.64,0a2.56,2.56,0,0,1-1.15-2.51q-.09,0-.07-.26,0-1,.6-5.6V42a.39.39,0,0,1,.1-.25.63.63,0,0,1-.15-.38,1.81,1.81,0,0,1,.28-.56q.25-3.72.28-4.6a2.41,2.41,0,0,0-.06-.51,3,3,0,0,0,.12-.75l0-.95a.35.35,0,0,1,.12-.25,16.23,16.23,0,0,1-.18-2.29l0-.81a2.68,2.68,0,0,0-.13-.89,1,1,0,0,1,.66-1.06l.64,0q.33.15.32.4h.11A1.5,1.5,0,0,1,85.25,28.49Zm-.14,3.23.07.44a.4.4,0,0,1-.1.25,3.89,3.89,0,0,1,.05.71l0,.95a.44.44,0,0,1-.1.25.37.37,0,0,1,.07.24l0,.39S85,35,85,35a1.18,1.18,0,0,1,.14.7,35.48,35.48,0,0,1-.47,4.91l.17.07q.56-.08,4.66-.05,3.54-.13,3.68-.42l.08-1.89a6.39,6.39,0,0,1,.16-1.14,2.18,2.18,0,0,1-.07-.83.49.49,0,0,1,.12-.37,3.09,3.09,0,0,1-.08-.7l0-.71q0-.65.4-2.83,0-.89-.24-.9-4.18-.36-5-.4l-2.51-.1q-.72,0-.74.42Zm7.46,9.67c0,.08-.09.12-.26.11v.06a3.9,3.9,0,0,1,.61.08l.09-.12v-.06Z"/></g></g></svg>